<?xml version="1.0" standalone="no"?>
<!DOCTYPE svg PUBLIC "-//W3C//DTD SVG 1.1//EN" "http://www.w3.org/Graphics/SVG/1.1/DTD/svg11.dtd" >
<svg>
<metadata>
Created by FontForge 20090622 at Sun Nov 20 15:50:54 2016
 By deploy user
Copyright (C) 1990-1992 ParaGraph JV.
</metadata>
<defs>
<font id="FreeSetBoldCyrillic" horiz-adv-x="2490" >
  <font-face 
    font-family="FreeSet"
    font-weight="700"
    font-stretch="normal"
    units-per-em="4096"
    panose-1="2 11 -30 0 0 0 0 0 0 0"
    ascent="3276"
    descent="-820"
    x-height="2122"
    cap-height="2867"
    bbox="-82 -1192 4796 3740"
    underline-thickness="56"
    underline-position="-263"
    unicode-range="U+0020-U+2122"
  />
<missing-glyph horiz-adv-x="3072" 
d="M512 0v2560h2048v-2560h-2048zM2496 64v2432h-1920v-2432h1920z" />
    <glyph glyph-name=".notdef" horiz-adv-x="3072" 
d="M512 0v2560h2048v-2560h-2048zM2496 64v2432h-1920v-2432h1920z" />
    <glyph glyph-name=".null" horiz-adv-x="0" 
 />
    <glyph glyph-name="nonmarkingreturn" horiz-adv-x="0" 
 />
    <glyph glyph-name="space" unicode=" " horiz-adv-x="1438" 
 />
    <glyph glyph-name="exclam" unicode="!" horiz-adv-x="1159" 
d="M291 549h581v-549h-581v549zM287 2867h585l-61 -2011h-459z" />
    <glyph glyph-name="quotedbl" unicode="&#x22;" horiz-adv-x="1942" 
d="M246 2867h561l-98 -1061h-365zM1135 2867h561l-99 -1065h-364z" />
    <glyph glyph-name="numbersign" unicode="#" horiz-adv-x="2953" 
d="M1905 172h-324l111 631h-672l-107 -631h-327l110 631h-467l62 295h463l123 729h-463l61 295h463l111 631h323l-106 -631h667l107 631h327l-110 -631h467l-62 -295h-467l-122 -729h467l-62 -295h-463zM1749 1098l123 729h-668l-123 -729h668z" />
    <glyph glyph-name="dollar" unicode="$" horiz-adv-x="2388" 
d="M233 111l62 499q352 -153 729 -159v798l-94 45q-209 103 -294.5 149.5t-191.5 137.5t-172.5 218t-66.5 294q0 221 108 399t295.5 280.5t415.5 111.5v286h328v-270q347 -7 671 -115l-61 -458q-303 127 -610 127v-730l118 -49q392 -161 552.5 -359t160.5 -464
q0 -272 -127.5 -456.5t-317 -280.5t-386.5 -123v-287h-328v262q-418 6 -791 144zM1331 1098v-594q115 36 186.5 111t71.5 167q0 211 -258 316zM1044 1847v574q-119 -26 -188.5 -102t-69.5 -165q0 -211 258 -307z" />
    <glyph glyph-name="percent" unicode="%" horiz-adv-x="3621" 
d="M926 2900q214 0 368 -100.5t233 -282t79 -416.5t-79 -416t-232 -281.5t-369 -100.5t-369.5 101t-232 281.5t-78.5 415.5t78.5 416t233 282t368.5 101zM926 2634q-138 0 -175.5 -139t-37.5 -394t38 -393.5t175 -138.5q136 0 174.5 138.5t38.5 393.5t-38.5 394t-174.5 139z
M2552 2978l311 -193l-1786 -2879l-307 205zM2695 1565q214 0 368.5 -101t233 -282t78.5 -416t-78.5 -416t-233 -282t-368.5 -101q-323 0 -501.5 220.5t-178.5 578.5t178.5 578.5t501.5 220.5zM2695 1298q-138 0 -175.5 -138.5t-37.5 -393.5t37.5 -394t175.5 -139t175.5 139
t37.5 394t-37.5 393.5t-175.5 138.5z" />
    <glyph glyph-name="ampersand" unicode="&#x26;" horiz-adv-x="3039" 
d="M2204 0l-172 188q-182 -133 -380 -191t-464 -58q-347 0 -572 130.5t-328.5 336.5t-103.5 434q0 268 173.5 470t433.5 287q-181 194 -267 336t-86 320q0 168 83 321t267 252t469 99q277 0 473 -86.5t294 -235.5t98 -330q0 -296 -187.5 -478.5t-386.5 -270.5l545 -611
q176 266 176 639h504q-16 -615 -369 -1015l471 -537h-671zM1737 545l-652 721q-124 -52 -232 -164t-108 -287t128.5 -315t347.5 -140q298 0 516 185zM1176 1942l90 -95q136 57 240 164.5t104 249.5q0 118 -94 192t-218 74q-131 0 -217 -67t-86 -179q0 -150 181 -339z" />
    <glyph glyph-name="quotesingle" unicode="'" horiz-adv-x="1053" 
d="M246 2867h561l-98 -1061h-365z" />
    <glyph glyph-name="parenleft" unicode="(" horiz-adv-x="1544" 
d="M856 2867h524q-153 -246 -271 -479t-195.5 -454.5t-118.5 -455.5t-41 -483q0 -486 152.5 -919t473.5 -953h-524q-196 304 -329.5 556.5t-213 470.5t-114.5 420.5t-35 424.5q0 223 35 425.5t114.5 420.5t214 472t328.5 554z" />
    <glyph glyph-name="parenright" unicode=")" horiz-adv-x="1544" 
d="M164 2867h524q193 -296 329.5 -553.5t215 -474t113 -418.5t34.5 -426q0 -292 -63.5 -564.5t-215 -587t-413.5 -720.5h-524q155 249 271 477.5t194.5 450t120 458.5t41.5 486q0 328 -71 632t-208 601.5t-348 638.5z" />
    <glyph glyph-name="asterisk" unicode="*" horiz-adv-x="1978" 
d="M709 1405l-504 242l184 315l455 -315l-41 557h368l-45 -557l463 315l185 -315l-504 -242l504 -246l-185 -315l-463 315l45 -557h-368l41 557l-455 -315l-184 315z" />
    <glyph glyph-name="plus" unicode="+" 
d="M184 1245v369h877v876h369v-876h876v-369h-876v-876h-369v876h-877z" />
    <glyph glyph-name="comma" unicode="," horiz-adv-x="1176" 
d="M397 553h574l-283 -1024h-483z" />
    <glyph glyph-name="hyphen" unicode="-" horiz-adv-x="2142" 
d="M246 1438h1650v-480h-1650v480z" />
    <glyph glyph-name="period" unicode="." horiz-adv-x="1065" 
d="M819 582v-582h-573v582h573z" />
    <glyph glyph-name="slash" unicode="/" horiz-adv-x="2556" 
d="M123 -1057l1999 4301l311 -135l-2011 -4301z" />
    <glyph glyph-name="zero" unicode="0" horiz-adv-x="2433" 
d="M1217 2900q256 0 479.5 -98.5t388 -423.5t164.5 -944q0 -620 -164 -944.5t-388 -423.5t-480 -99q-255 0 -480 99t-389 423.5t-164 944.5q0 472 100 774t257 450t324 195t352 47zM1217 2449q-273 0 -356 -291t-83 -724q0 -434 83 -725t356 -291q189 0 286.5 157.5
t124.5 375t27 483.5q0 433 -82.5 724t-355.5 291z" />
    <glyph glyph-name="one" unicode="1" horiz-adv-x="1757" 
d="M946 2867h524v-2867h-581v2241l-160 -144l-332 -287l-274 340z" />
    <glyph glyph-name="two" unicode="2" horiz-adv-x="2347" 
d="M295 2224l-49 467q455 209 868 209q359 0 571 -122.5t293.5 -294.5t81.5 -337q0 -203 -105.5 -434t-278.5 -455.5t-382 -428t-422 -365.5l5 -12l278 20h987v-471h-1937v475q371 332 610 577t377.5 430t196 326t57.5 265q0 181 -135.5 274.5t-352.5 93.5
q-145 0 -324 -61.5t-339 -155.5z" />
    <glyph glyph-name="three" unicode="3" horiz-adv-x="2363" 
d="M303 2322l-33 467q396 111 779 111q410 0 639.5 -120t309 -281t79.5 -316q0 -258 -140 -442.5t-393 -220.5v-13q179 -32 303.5 -133.5t187 -245t62.5 -297.5q0 -152 -61 -300.5t-200.5 -277.5t-372 -207.5t-554.5 -78.5q-328 0 -704 119l28 483q357 -151 680 -151
q299 0 434.5 128t135.5 302q0 414 -627 414h-295v450h266q355 0 495 110.5t140 303.5q0 139 -119.5 231t-384.5 92q-327 0 -655 -127z" />
    <glyph glyph-name="four" unicode="4" horiz-adv-x="2523" 
d="M1245 2867h750v-1847h364v-451h-364v-569h-582v569h-1249v492zM1413 1020v954l8 316h-8l-594 -1069l-123 -197l4 -8l205 4h508z" />
    <glyph glyph-name="five" unicode="5" horiz-adv-x="2363" 
d="M315 2867h1688v-450h-1106v-570q107 13 197 13q270 0 497.5 -96.5t366.5 -308.5t139 -537q0 -238 -111 -454.5t-366 -356.5t-657 -140q-376 0 -697 107l13 504q336 -144 573 -144q228 0 370 72.5t201.5 184t59.5 235.5q0 186 -138 334.5t-452 148.5q-328 0 -578 -82v1540
z" />
    <glyph glyph-name="six" unicode="6" horiz-adv-x="2396" 
d="M2032 2806l-66 -463q-258 106 -512 106q-286 0 -440.5 -143t-204 -325t-51.5 -347h12q96 134 224.5 208.5t324.5 74.5q176 0 336 -56.5t286 -172t198.5 -294t72.5 -415.5q0 -448 -250.5 -730t-740.5 -282q-459 0 -690 230.5t-289 523.5t-58 635q0 646 196 989.5t463 449
t562 105.5q353 0 627 -94zM1204 1466q-167 0 -280 -120t-113 -404t114 -404t279 -120q167 0 280 120t113 404t-112.5 404t-280.5 120z" />
    <glyph glyph-name="seven" unicode="7" horiz-adv-x="2118" 
d="M1995 2437l-1049 -2437h-651l1106 2417h-1278v450h1872v-430z" />
    <glyph glyph-name="eight" unicode="8" 
d="M733 1503q-193 84 -309.5 248t-116.5 383q0 184 76 330.5t209 243t301 144.5t352 48q293 0 505.5 -93t322.5 -255t110 -365q0 -226 -120 -397t-326 -246q235 -82 381.5 -267.5t146.5 -457.5q0 -288 -149 -480t-383.5 -282t-487.5 -90q-248 0 -479.5 81t-386 270
t-154.5 493q0 84 30 209.5t143 268t335 214.5zM1286 1729q150 55 247 173t97 236q0 141 -110.5 232.5t-274.5 91.5q-150 0 -267.5 -88.5t-117.5 -235.5q0 -149 113.5 -237.5t312.5 -171.5zM1192 1266q-373 -169 -373 -467q0 -166 121 -273.5t305 -107.5q204 0 315 110
t111 271q0 287 -479 467z" />
    <glyph glyph-name="nine" unicode="9" horiz-adv-x="2396" 
d="M365 61l65 463q266 -106 512 -106q288 0 442 143t203 323t51 349h-12q-200 -283 -549 -283q-236 0 -440.5 102.5t-328.5 313.5t-124 522q0 291 108 520t330.5 360.5t553.5 131.5q460 0 690 -230.5t288 -523.5t58 -635q0 -646 -196 -989.5t-463 -449t-562 -105.5
q-352 0 -626 94zM1192 1401q165 0 279 120t114 404t-113 404t-280 120t-280 -120t-113 -404t114 -404t279 -120z" />
    <glyph glyph-name="colon" unicode=":" horiz-adv-x="1065" 
d="M819 2122v-582h-573v582h573zM819 582v-582h-573v582h573z" />
    <glyph glyph-name="semicolon" unicode=";" horiz-adv-x="1176" 
d="M934 2122v-582h-574v582h574zM397 553h574l-283 -1024h-483z" />
    <glyph glyph-name="less" unicode="&#x3c;" horiz-adv-x="2753" 
d="M229 1466l2192 1200v-434l-1397 -774l1397 -774v-434z" />
    <glyph glyph-name="equal" unicode="=" horiz-adv-x="2617" 
d="M246 856v369h2121v-369h-2121zM250 2003h2122v-369h-2122v369z" />
    <glyph glyph-name="greater" unicode="&#x3e;" horiz-adv-x="2753" 
d="M2523 1466l-2191 -1216v434l1397 774l-1397 774v434z" />
    <glyph glyph-name="question" unicode="?" horiz-adv-x="2163" 
d="M737 815v82q0 145 34.5 256.5t113 228t225.5 289.5q118 140 175.5 233t57.5 210q0 150 -92 247t-309 97q-385 0 -696 -152l-41 467q382 131 799 131q349 0 563.5 -109t302.5 -268t88 -315q0 -235 -101.5 -416t-300.5 -383q-145 -145 -215.5 -251.5t-70.5 -264.5v-82h-533
zM717 508h573v-508h-573v508z" />
    <glyph glyph-name="at" unicode="@" horiz-adv-x="3236" 
d="M2392 2118l-127 -893q0 -96 40 -138.5t83 -42.5q80 0 165 67.5t142.5 196t57.5 298.5q0 239 -89.5 427t-244 314t-352 190t-416.5 64q-252 0 -468.5 -94.5t-373 -259.5t-241.5 -376.5t-85 -436.5q0 -296 147 -565.5t423.5 -436t638.5 -166.5q395 0 716 164l123 -274
q-370 -189 -852 -189q-335 0 -615 119.5t-476.5 327.5t-300 473.5t-103.5 546.5q0 280 104 543.5t299.5 473.5t468 329.5t595.5 119.5q367 0 687.5 -144t517 -437t196.5 -713q0 -270 -101.5 -473.5t-265 -311.5t-346.5 -108q-156 0 -254 95.5t-98 248.5h-13
q-157 -299 -516 -299q-201 0 -368.5 144.5t-167.5 424.5q0 249 92 444.5t252 303.5t348 108q293 0 414 -262h12l28 197h324zM1937 1466q5 45 5 136q0 139 -75.5 214.5t-183.5 75.5q-148 0 -254 -153t-106 -404q0 -157 83.5 -224t174.5 -67q113 0 221 105.5t135 316.5z" />
    <glyph glyph-name="A" unicode="A" horiz-adv-x="3068" 
d="M1204 2867h664l1138 -2867h-655l-242 643h-1183l-242 -643h-623zM1110 1118h827l-421 1172h-9z" />
    <glyph glyph-name="B" unicode="B" horiz-adv-x="2564" 
d="M287 2867h942q195 0 405 -46t379.5 -204t169.5 -458q0 -298 -142 -450.5t-325 -209.5v-8q261 -38 431.5 -220t170.5 -464q0 -188 -89.5 -369.5t-340.5 -309.5t-696 -128h-905v2867zM868 2417v-713h283q256 0 351 115t95 241q0 135 -96.5 246t-374.5 111h-258zM868 1253
v-802h324q165 0 279.5 50.5t173.5 141t59 209.5q0 401 -512 401h-324z" />
    <glyph glyph-name="C" unicode="C" horiz-adv-x="2580" 
d="M2380 578l37 -488q-369 -123 -742 -123q-303 0 -575 92.5t-478.5 277t-322 458t-115.5 622.5q0 336 110 611t318.5 470.5t505.5 298.5t664 103q326 0 635 -98l-25 -492q-266 107 -569 107q-294 0 -527 -116t-365 -340t-132 -536q0 -345 143 -564t366 -314.5t474 -95.5
q320 0 598 127z" />
    <glyph glyph-name="D" unicode="D" horiz-adv-x="2937" 
d="M287 2867h905q231 0 470 -37.5t492.5 -176t426 -437t172.5 -782.5q0 -469 -163.5 -765.5t-409.5 -438.5t-496.5 -186t-491.5 -44h-905v2867zM868 2384v-1901h332q417 0 625.5 187.5t260.5 394t52 369.5q0 162 -52 368.5t-260.5 394t-625.5 187.5h-332z" />
    <glyph glyph-name="E" unicode="E" horiz-adv-x="2204" 
d="M287 2867h1712v-508h-1131v-647h1028v-471h-1028v-733h1131v-508h-1712v2867z" />
    <glyph glyph-name="F" unicode="F" horiz-adv-x="2015" 
d="M287 2867h1605v-483h-1024v-696h975v-471h-975v-1217h-581v2867z" />
    <glyph glyph-name="G" unicode="G" horiz-adv-x="2986" 
d="M2609 2777l-33 -512q-369 168 -819 168q-308 0 -524 -128.5t-325 -356t-109 -514.5q0 -281 106.5 -505t317 -351t510.5 -127q234 0 385 57v684h-586v450h1167v-1519q-551 -156 -1003 -156q-479 0 -821 187t-516.5 518.5t-174.5 761.5q0 373 122 652.5t340 460t503 267
t620 86.5q466 0 840 -123z" />
    <glyph glyph-name="H" unicode="H" horiz-adv-x="2900" 
d="M287 2867h581v-1155h1164v1155h581v-2867h-581v1241h-1164v-1241h-581v2867z" />
    <glyph glyph-name="I" unicode="I" horiz-adv-x="1155" 
d="M287 0v2867h581v-2867h-581z" />
    <glyph glyph-name="J" unicode="J" horiz-adv-x="1552" 
d="M684 2867h582v-2036q0 -166 -20 -302t-92.5 -266.5t-226.5 -213t-403 -82.5q-218 0 -442 53v467q148 -36 278 -36q176 0 250 101t74 320v1995z" />
    <glyph glyph-name="K" unicode="K" horiz-adv-x="2712" 
d="M287 2867h581v-1225h13l1036 1225h692l-1196 -1298l1270 -1569h-737l-1065 1425h-13v-1425h-581v2867z" />
    <glyph glyph-name="L" unicode="L" horiz-adv-x="2089" 
d="M287 2867h581v-2384h1139v-483h-1720v2867z" />
    <glyph glyph-name="M" unicode="M" horiz-adv-x="3953" 
d="M2253 0h-553l-696 2048l-132 410h-12l8 -443v-2015h-581v2867h983l573 -1667l127 -508h12l127 508l574 1667h983v-2867h-582v2015l8 443h-12l-131 -410z" />
    <glyph glyph-name="N" unicode="N" horiz-adv-x="3052" 
d="M287 2867h753l992 -1806l151 -389h12l-12 508v1687h582v-2867h-754l-999 1876l-144 319h-12l12 -507v-1688h-581v2867z" />
    <glyph glyph-name="O" unicode="O" horiz-adv-x="3178" 
d="M1589 2900q404 0 723 -170t500.5 -502t181.5 -794t-181.5 -794.5t-500.5 -502.5t-723 -170q-405 0 -723.5 170t-500 502t-181.5 795t181.5 794.5t500 501.5t723.5 170zM1589 2490q-185 0 -362 -85t-302.5 -320.5t-125.5 -650.5q0 -416 125.5 -651.5t302.5 -320.5t362 -85
q131 0 264.5 43.5t254 157.5t196.5 326t76 530q0 416 -125.5 651t-303.5 320t-362 85z" />
    <glyph glyph-name="P" unicode="P" horiz-adv-x="2400" 
d="M287 2867h848q632 0 866.5 -287.5t234.5 -609.5q0 -228 -110.5 -433t-336.5 -332.5t-548 -127.5h-373v-1077h-581v2867zM868 1528h267q231 0 359 132t128 327q0 183 -117.5 306.5t-369.5 123.5h-267v-889z" />
    <glyph glyph-name="Q" unicode="Q" horiz-adv-x="3178" 
d="M2159 -541l-529 508q-370 0 -699 145t-538 474t-209 848q0 463 181.5 794.5t500 501.5t723.5 170q406 0 725 -170t499.5 -501t180.5 -795q0 -390 -161 -771t-654 -585l668 -619h-688zM1589 2490q-185 0 -362 -85t-302.5 -320.5t-125.5 -650.5q0 -416 125.5 -651.5
t302.5 -320.5t362 -85q131 0 264.5 43.5t254 157.5t196.5 326t76 530q0 416 -125.5 651t-303.5 320t-362 85z" />
    <glyph glyph-name="R" unicode="R" horiz-adv-x="2847" 
d="M410 2867h1015q545 0 754 -226.5t209 -551.5q0 -295 -163.5 -455t-389.5 -213v-8q105 -25 174.5 -101t124.5 -202l467 -1110h-651l-369 909q-58 142 -145.5 206.5t-223.5 64.5h-221v-1180h-581v2867zM991 2417v-787h312q258 0 372.5 127t114.5 271q0 148 -102.5 268.5
t-384.5 120.5h-312z" />
    <glyph glyph-name="S" unicode="S" horiz-adv-x="2261" 
d="M217 111l62 499q163 -74 361.5 -123t346.5 -49q205 0 332 101.5t127 242.5q0 104 -43 176t-115 122t-184 103l-236 111q-221 111 -362 211.5t-221 243.5t-80 344q0 161 71 344.5t273.5 323t556.5 139.5q461 0 819 -123l-61 -459q-339 140 -627 140q-245 0 -337.5 -96
t-92.5 -208q0 -159 106 -248.5t275 -160.5q300 -128 465.5 -222t284 -269t118.5 -451q0 -159 -61.5 -307t-193.5 -267.5t-342.5 -190.5t-495.5 -71q-355 0 -746 144z" />
    <glyph glyph-name="T" unicode="T" horiz-adv-x="2359" 
d="M61 2867h2237v-508h-828v-2359h-581v2359h-828v508z" />
    <glyph glyph-name="U" unicode="U" horiz-adv-x="2966" 
d="M2679 2867v-1777q0 -352 -112.5 -578t-291.5 -344t-377 -159.5t-407 -41.5q-297 0 -564 84t-453.5 334t-186.5 705v1777h581v-1777q0 -672 615 -672q614 0 614 672v1777h582z" />
    <glyph glyph-name="V" unicode="V" horiz-adv-x="2871" 
d="M82 2867h623l618 -1863l127 -443h8l123 443l627 1863h581l-991 -2867h-717z" />
    <glyph glyph-name="W" unicode="W" horiz-adv-x="4272" 
d="M3604 2867h586l-774 -2867h-737l-438 1864l-99 549h-8l-90 -549l-422 -1864h-750l-790 2867h610l426 -1712l123 -647h8l115 647l385 1712h786l406 -1712l119 -647h8l119 647z" />
    <glyph glyph-name="X" unicode="X" horiz-adv-x="2863" 
d="M168 2867h688l459 -799l131 -241h12l131 241l471 799h635l-872 -1368l958 -1499h-688l-549 909l-123 221h-12l-123 -221l-569 -909h-635l958 1499z" />
    <glyph glyph-name="Y" unicode="Y" horiz-adv-x="2687" 
d="M8 2867h672l590 -1007l90 -197h12l98 197l594 1007h615l-1032 -1704v-1163h-582v1171z" />
    <glyph glyph-name="Z" unicode="Z" horiz-adv-x="2421" 
d="M2171 2367l-1323 -1859h1368v-508h-2011v487l1335 1880l-332 -8h-966v508h1929v-500z" />
    <glyph glyph-name="bracketleft" unicode="[" horiz-adv-x="1479" 
d="M1274 3080v-405h-475v-3162h475v-406h-1028v3973h1028z" />
    <glyph glyph-name="backslash" unicode="\" horiz-adv-x="2613" 
d="M1978 -1040l-1650 3907l311 111l1647 -3904z" />
    <glyph glyph-name="bracketright" unicode="]" horiz-adv-x="1479" 
d="M205 3080h1028v-3973h-1028v406h475v3162h-475v405z" />
    <glyph glyph-name="asciicircum" unicode="^" horiz-adv-x="2388" 
d="M1188 2028l971 -1541h-476l-491 783l-487 -783h-476z" />
    <glyph glyph-name="underscore" unicode="_" horiz-adv-x="2007" 
d="M0 -483h2007v-369h-2007v369z" />
    <glyph glyph-name="grave" unicode="`" horiz-adv-x="1405" 
d="M221 3002h574l360 -655h-340z" />
    <glyph glyph-name="a" unicode="a" horiz-adv-x="2380" 
d="M397 1577v438q352 139 779 139q411 0 618.5 -135.5t263.5 -309.5t56 -370v-1339h-545v311h-8q-104 -204 -294.5 -274t-369.5 -70q-266 0 -436 95t-244 242.5t-74 309.5q0 303 238 502t815 199h160q53 -4 151 -4h49l-4 90q-9 183 -141.5 273.5t-333.5 90.5
q-170 0 -330.5 -40.5t-349.5 -147.5zM1556 963h-94q-340 0 -546.5 -63t-206.5 -282q0 -117 80 -195.5t260 -78.5q141 0 255.5 56t183 183t68.5 326v54z" />
    <glyph glyph-name="b" unicode="b" 
d="M266 3072h557v-889l-12 -348h8q187 319 611 319q305 0 511.5 -148.5t306 -398t99.5 -546.5q0 -365 -132 -613.5t-336.5 -364.5t-424.5 -116q-191 0 -386 83.5t-306 318.5h-8v-369h-488v3072zM823 1061q0 -201 62.5 -348.5t170.5 -225t238 -77.5q199 0 335 175.5
t136 475.5q0 198 -63.5 346.5t-171 226.5t-236.5 78q-130 0 -238 -77.5t-170.5 -225t-62.5 -348.5z" />
    <glyph glyph-name="c" unicode="c" horiz-adv-x="1896" 
d="M1761 2097l-32 -401q-141 57 -345 57q-197 0 -347.5 -93t-231 -254.5t-80.5 -352.5q0 -205 81 -360.5t223.5 -239.5t318.5 -84q239 0 426 86l20 -406q-254 -82 -545 -82q-381 0 -630 166.5t-362.5 423.5t-113.5 524q0 271 123.5 516t383 401t640.5 156q245 0 471 -57z
" />
    <glyph glyph-name="d" unicode="d" horiz-adv-x="2478" 
d="M1667 3072h557v-3072h-487v369h-8q-218 -402 -693 -402q-183 0 -346 69.5t-286 207.5t-192 346.5t-69 470.5q0 343 125 590t334 375t459 128q401 0 610 -319h8l-12 348v889zM1667 1061q0 198 -63.5 346.5t-171 226.5t-236.5 78q-130 0 -238 -77.5t-170.5 -225
t-62.5 -348.5t62.5 -348.5t170.5 -225t238 -77.5q199 0 335 175.5t136 475.5z" />
    <glyph glyph-name="e" unicode="e" horiz-adv-x="2314" 
d="M2171 893h-1446q15 -235 181.5 -379.5t449.5 -144.5q331 0 663 147v-418q-351 -131 -733 -131q-224 0 -425.5 60.5t-365 191.5t-258 342.5t-94.5 499.5q0 308 131 558.5t370.5 392.5t547.5 142q260 0 481.5 -110t359.5 -365t138 -659v-127zM725 1274h872
q0 236 -125.5 365.5t-312.5 129.5q-129 0 -227.5 -70t-151.5 -185t-55 -240z" />
    <glyph glyph-name="f" unicode="f" horiz-adv-x="1659" 
d="M82 2122h410v151q0 354 123 593t565 239q196 0 397 -49l-16 -390q-107 29 -213 29q-134 0 -199 -51.5t-82.5 -144t-17.5 -254.5v-123h499v-410h-499v-1712h-557v1712h-410v410z" />
    <glyph glyph-name="g" unicode="g" horiz-adv-x="2507" 
d="M369 -762l45 467q352 -176 655 -176q283 0 448.5 144t165.5 425v279h-12q-167 -385 -647 -385q-215 0 -382.5 85.5t-277 232t-165.5 339t-56 404.5q0 339 119.5 585.5t319.5 371t434 124.5q226 0 410 -89t278 -280h12v357h525v-1954q0 -248 -72.5 -483t-312 -414.5
t-697.5 -179.5q-424 0 -790 147zM1176 1683q-208 0 -329.5 -172.5t-121.5 -445.5q0 -234 72 -374.5t183.5 -198.5t236.5 -58q206 0 336 181.5t130 490.5q0 253 -132 415t-375 162z" />
    <glyph glyph-name="h" unicode="h" horiz-adv-x="2507" 
d="M266 0v3072h557v-954l-20 -328h12q141 208 331.5 286t344.5 78q352 0 551 -194t199 -555v-1405h-558v1221q0 212 -68 345.5t-292 133.5q-186 0 -343 -157t-157 -486v-1057h-557z" />
    <glyph glyph-name="i" unicode="i" horiz-adv-x="1106" 
d="M274 2122h557v-2122h-557v2122zM840 3011v-574h-574v574h574z" />
    <glyph glyph-name="j" unicode="j" horiz-adv-x="1065" 
d="M811 2122v-2290q0 -315 -115 -530t-532 -215q-103 0 -246 32v394q54 -17 143 -17q114 0 153.5 76.5t39.5 239.5v2310h557zM246 2998h573v-516h-573v516z" />
    <glyph glyph-name="k" unicode="k" horiz-adv-x="2261" 
d="M266 3072h557v-1831h21l663 881h639l-778 -963l852 -1159h-680l-696 1077h-21v-1077h-557v3072z" />
    <glyph glyph-name="l" unicode="l" horiz-adv-x="1090" 
d="M266 3072h557v-3072h-557v3072z" />
    <glyph glyph-name="m" unicode="m" horiz-adv-x="3695" 
d="M823 0h-557v2122h529v-361h12q56 125 152 212.5t225 134t274 46.5q169 0 341.5 -75t240.5 -322h12q135 246 333 321.5t363 75.5q415 0 547.5 -233.5t132.5 -507.5v-1413h-557v1192q0 231 -57.5 369.5t-257.5 138.5q-185 0 -307.5 -145.5t-122.5 -383.5v-1171h-557v1192
q0 230 -57 369t-250 139q-184 0 -311.5 -139t-127.5 -390v-1171z" />
    <glyph glyph-name="n" unicode="n" horiz-adv-x="2507" 
d="M823 0h-557v2122h537v-332h12q140 211 327.5 287.5t344.5 76.5q205 0 376.5 -72.5t274.5 -223.5t103 -371v-1487h-558v1282q0 182 -93 300t-267 118q-149 0 -264 -81t-175.5 -209t-60.5 -267v-1143z" />
    <glyph glyph-name="o" unicode="o" horiz-adv-x="2478" 
d="M143 1061q0 493 292 793t806 300q258 0 461.5 -77.5t344 -222t214.5 -347t74 -446.5q0 -325 -130 -573t-377.5 -384.5t-586.5 -136.5q-342 0 -590 137.5t-378 384.5t-130 572zM725 1061q0 -217 67.5 -374t185.5 -237.5t263 -80.5q221 0 366.5 182.5t145.5 509.5
q0 329 -145.5 510.5t-366.5 181.5q-145 0 -263 -81t-185.5 -237t-67.5 -374z" />
    <glyph glyph-name="p" unicode="p" 
d="M823 -877h-557v2999h488v-369h8q107 184 284.5 292.5t407.5 108.5q270 0 472.5 -123.5t311.5 -370t109 -599.5q0 -298 -81 -511t-216.5 -341.5t-294 -185t-325.5 -56.5q-400 0 -611 320h-8l12 -348v-816zM823 1061q0 -201 62.5 -348.5t170.5 -225t238 -77.5
q199 0 335 175.5t136 475.5q0 198 -63.5 346.5t-171 226.5t-236.5 78q-130 0 -238 -77.5t-170.5 -225t-62.5 -348.5z" />
    <glyph glyph-name="q" unicode="q" 
d="M1667 -872v815l12 348h-8q-215 -324 -610 -324q-165 0 -326.5 58t-295.5 187.5t-215 344t-81 508.5q0 334 111 580.5t314 377.5t468 131q482 0 693 -397h8v365h487v-2994h-557zM1667 1061q0 198 -63.5 346.5t-171 226.5t-236.5 78q-130 0 -238 -77.5t-170.5 -225
t-62.5 -348.5t62.5 -348.5t170.5 -225t238 -77.5q199 0 335 175.5t136 475.5z" />
    <glyph glyph-name="r" unicode="r" horiz-adv-x="1622" 
d="M266 2122h508v-459h12q44 221 197 356t373 135q78 0 184 -24l-20 -406q-72 13 -181 13q-187 0 -351.5 -154.5t-164.5 -562.5v-1020h-557v2122z" />
    <glyph glyph-name="s" unicode="s" horiz-adv-x="1860" 
d="M1655 2064l-49 -401q-261 102 -484 102q-214 0 -293 -68.5t-79 -152.5q0 -106 74 -154.5t249 -107.5q258 -79 440.5 -217t182.5 -442q0 -345 -257.5 -500.5t-570.5 -155.5q-157 0 -352.5 35.5t-351.5 87.5l24 434q330 -143 598 -143q183 0 268 68t85 161q0 121 -86.5 175
t-282.5 124q-185 68 -302.5 137t-192 185.5t-74.5 296.5q0 157 77 300t251 234.5t446 91.5q390 0 680 -90z" />
    <glyph glyph-name="t" unicode="t" horiz-adv-x="1622" 
d="M459 1712h-418v410h418v422l557 176v-598h491v-410h-491v-962q0 -125 16.5 -202t75.5 -124t182 -47q117 0 217 37v-394q-233 -53 -430 -53q-618 0 -618 656v1089z" />
    <glyph glyph-name="u" unicode="u" horiz-adv-x="2507" 
d="M1683 2122h558v-2122h-537v332h-12q-138 -211 -326.5 -288t-345.5 -77q-470 0 -612 253t-142 530v1372h557v-1282q0 -418 361 -418q144 0 258 76t177.5 208t63.5 293v1123z" />
    <glyph glyph-name="v" unicode="v" horiz-adv-x="2314" 
d="M41 2122h610l447 -1311l86 -311h12l78 311l430 1311h569l-782 -2122h-655z" />
    <glyph glyph-name="w" unicode="w" horiz-adv-x="3723" 
d="M41 2122h594l352 -1176l107 -434h8l98 446l348 1164h660l360 -1176l107 -438h8l102 442l336 1172h561l-696 -2122h-659l-390 1319l-82 352h-12l-74 -348l-368 -1323h-660z" />
    <glyph glyph-name="x" unicode="x" horiz-adv-x="2322" 
d="M102 2122h664l295 -496l123 -242h12l127 250l279 488h618l-651 -1028l712 -1094h-663l-352 565l-127 238h-13l-131 -246l-336 -557h-618l713 1094z" />
    <glyph glyph-name="y" unicode="y" horiz-adv-x="2257" 
d="M12 2122h615l397 -1172l119 -405h20l131 422l385 1155h566l-897 -2380q-79 -205 -158 -333.5t-250.5 -221t-460.5 -92.5q-154 0 -323 57l41 414q107 -45 217 -45q155 0 244 54.5t141 182.5l49 123z" />
    <glyph glyph-name="z" unicode="z" horiz-adv-x="2200" 
d="M258 2122h1696v-410l-905 -1085l-189 -205v-12h1135v-410h-1790v422l942 1081l184 197v12h-1073v410z" />
    <glyph glyph-name="braceleft" unicode="{" horiz-adv-x="1819" 
d="M123 889v409h90q352 0 352 439v561q0 216 52 380.5t252 283t597 118.5h90l17 -405h-45q-194 0 -288.5 -63.5t-118 -157t-23.5 -242.5v-397q0 -264 -65.5 -437t-287.5 -248l-73 -24v-25l73 -24q221 -73 287 -247t66 -437v-398q0 -213 63.5 -314.5t150.5 -124.5t216 -23h45
l-17 -406h-90q-397 0 -597 118.5t-252 283t-52 380.5v562q0 438 -352 438h-90z" />
    <glyph glyph-name="bar" unicode="|" horiz-adv-x="860" 
d="M246 -1147v4313h368v-4313h-368z" />
    <glyph glyph-name="braceright" unicode="}" horiz-adv-x="1819" 
d="M1696 1298v-409h-90q-353 0 -353 -438v-562q0 -216 -52 -381t-251 -283t-598 -118h-90l-16 406h45q193 0 287.5 62.5t118.5 156.5t24 243v398q0 263 65 436.5t287 247.5l74 24v25l-74 24q-222 75 -287 248t-65 437v397q0 225 -74.5 344t-355.5 119h-45l16 405h90
q399 0 598 -118t251 -283t52 -381v-561q0 -439 353 -439h90z" />
    <glyph glyph-name="asciitilde" unicode="~" horiz-adv-x="2466" 
d="M1974 1446l246 -184q-143 -207 -271.5 -310.5t-330.5 -103.5q-127 0 -228 32.5t-260 102.5q-180 82 -274 82q-96 0 -194.5 -49.5t-169.5 -155.5l-246 184q128 200 265.5 307t336.5 107q141 0 274 -45q78 -27 192.5 -79.5t169.5 -72.5t126 -20q226 0 364 205z" />
    <glyph glyph-name="afii10051" horiz-adv-x="3215" 
d="M82 2867h2261v-508h-954v-721q322 201 741 201q306 0 508 -110t297.5 -312.5t95.5 -478.5q0 -295 -66 -487t-187 -297.5t-280 -146t-368 -40.5q-201 0 -369 33l41 438q119 -41 283 -41q133 0 240.5 106t107.5 415q0 471 -455 471q-153 0 -303 -54q-186 -68 -286 -131
v-1204h-582v2359h-725v508z" />
    <glyph glyph-name="afii10052" horiz-adv-x="2089" 
d="M287 2867h1761v-508h-1180v-2359h-581v2867z" />
    <glyph glyph-name="quotesinglbase" unicode="&#x201a;" horiz-adv-x="1176" 
d="M397 553h574l-283 -1024h-483z" />
    <glyph glyph-name="afii10100" unicode="&#x192;" horiz-adv-x="1786" 
d="M266 2122h1479v-430h-922v-1692h-557v2122z" />
    <glyph glyph-name="quotedblbase" unicode="&#x201e;" horiz-adv-x="2249" 
d="M438 553h582l-283 -1024h-491zM1421 553h582l-283 -1024h-491z" />
    <glyph glyph-name="ellipsis" unicode="&#x2026;" horiz-adv-x="3011" 
d="M205 594h594v-594h-594v594zM1208 594h594v-594h-594v594zM2212 594h594v-594h-594v594z" />
    <glyph glyph-name="dagger" unicode="&#x2020;" horiz-adv-x="2687" 
d="M1057 -877v2237h-934v573h934v934h573v-934h934v-573h-934v-2237h-573z" />
    <glyph glyph-name="perthousand" unicode="&#x2030;" horiz-adv-x="4899" 
d="M2408 2978l312 -193l-1786 -2879l-307 205zM782 2900q214 0 368.5 -101t233 -282t78.5 -416t-78.5 -415.5t-232 -281.5t-369.5 -101t-369 100.5t-232 281.5t-79 416q0 358 178.5 578.5t501.5 220.5zM782 2634q-136 0 -174.5 -139t-38.5 -394t38.5 -393.5t174.5 -138.5
q137 0 175 138.5t38 393.5t-37.5 394t-175.5 139zM2552 1565q214 0 368 -100.5t233 -282t79 -416.5t-79 -416.5t-233 -282t-368 -100.5t-368.5 101t-233 282t-78.5 416t78.5 416t233 282t368.5 101zM2552 1298q-138 0 -175.5 -138.5t-37.5 -393.5t37.5 -394t175.5 -139
t175.5 139t37.5 394t-37.5 393.5t-175.5 138.5zM4116 1565q214 0 368.5 -101t233 -282t78.5 -416t-78.5 -416t-233 -282t-368.5 -101q-215 0 -368.5 101t-232 282t-78.5 416t78.5 416t232 282t368.5 101zM4116 1298q-136 0 -174.5 -138.5t-38.5 -393.5t38.5 -394t174.5 -139
q138 0 175.5 139t37.5 394t-37.5 393.5t-175.5 138.5z" />
    <glyph glyph-name="afii10058" unicode="&#x160;" horiz-adv-x="4157" 
d="M610 2867h1905v-1073h401q379 0 616.5 -127.5t339 -324t101.5 -416.5q0 -197 -62.5 -363t-191.5 -292t-336.5 -198.5t-482.5 -72.5h-967v2396h-757v-610q0 -499 -22.5 -802t-104 -534.5t-257 -357t-473.5 -125.5q-101 0 -278 33l25 455q105 -21 155 -21
q238 0 315.5 271.5t77.5 744.5q0 87 -2 250t-2 233v934zM2515 1343v-892h385q222 0 350.5 125.5t128.5 320.5q0 169 -111.5 307.5t-412.5 138.5h-340z" />
    <glyph glyph-name="quilsinglleft" unicode="&#x2039;" horiz-adv-x="1323" 
d="M639 2122h520l-450 -832l450 -864h-520l-475 864z" />
    <glyph glyph-name="afii10059" unicode="&#x152;" horiz-adv-x="4256" 
d="M2613 2867v-1114h402q270 0 471 -63t330 -176.5t192 -263.5t63 -324q0 -226 -93 -435t-333 -350t-647 -141h-966v1282h-1164v-1282h-581v2867h581v-1114h1164v1114h581zM2613 1303v-852h385q221 0 350.5 125.5t129.5 320.5q0 154 -112.5 280t-412.5 126h-340z" />
    <glyph glyph-name="afii10061" horiz-adv-x="2712" 
d="M287 2867h581v-1225h13l1036 1225h692l-1196 -1298l1270 -1569h-737l-1065 1425h-13v-1425h-581v2867z" />
    <glyph glyph-name="afii10060" horiz-adv-x="3244" 
d="M82 2867h2253v-508h-951v-712q416 213 807 213q247 0 439 -78.5t300.5 -241t108.5 -401.5v-1139h-581v975q0 250 -138 342t-317 92q-141 0 -304.5 -50.5t-314.5 -141.5v-1217h-581v2359h-721v508z" />
    <glyph glyph-name="afii10145" horiz-adv-x="2871" 
d="M287 0v2867h581v-2396h1135v2396h582v-2867h-861v-553h-577v553h-860z" />
    <glyph glyph-name="afii10099" horiz-adv-x="2728" 
d="M463 3064h557v-291h893v-348h-893v-279l-8 -336h12q210 344 635 344q479 0 651 -327t172 -885q0 -344 -33.5 -612.5t-125 -499t-264.5 -413t-445 -310.5l-238 430q187 80 296.5 209t160 292t63.5 341t13 440v99q0 354 -82 572t-340 218q-124 0 -230.5 -66t-171.5 -192.5
t-65 -294.5v-1155h-557v2425h-340v348h340v291z" />
    <glyph glyph-name="quoteleft" unicode="&#x2018;" horiz-adv-x="1176" 
d="M246 2396l192 1024h492l-103 -1024h-581z" />
    <glyph glyph-name="quoteright" unicode="&#x2019;" horiz-adv-x="1184" 
d="M397 2867h582l-283 -1024h-491z" />
    <glyph glyph-name="quotedblleft" unicode="&#x201c;" horiz-adv-x="2159" 
d="M246 2396l192 1024h492l-103 -1024h-581zM1229 2396l192 1024h492l-103 -1024h-581z" />
    <glyph glyph-name="quotedblright" unicode="&#x201d;" horiz-adv-x="2249" 
d="M438 2867h582l-283 -1024h-491zM1421 2867h582l-283 -1024h-491z" />
    <glyph glyph-name="bullet" unicode="&#x2022;" horiz-adv-x="1651" 
d="M123 1434q0 203 101.5 364.5t266 250.5t336.5 89q202 0 363 -101t249.5 -265t88.5 -338q0 -175 -87.5 -336.5t-248 -263t-365.5 -101.5q-174 0 -338 88.5t-265 249.5t-101 363z" />
    <glyph glyph-name="emdash" unicode="&#x2013;" horiz-adv-x="2376" 
d="M184 1606h2007v-369h-2007v369z" />
    <glyph glyph-name="endash" unicode="&#x2014;" horiz-adv-x="3490" 
d="M164 1315h3162v-373h-3162v373z" />
    <glyph glyph-name="trademark" unicode="&#x2122;" horiz-adv-x="4059" 
d="M246 2867h1356v-295h-480v-1233h-401v1233h-475v295zM3027 1339h-377l-303 897l-78 246h-12l8 -274v-869h-401v1528h561l315 -872l86 -271h25l86 271l315 872h561v-1528h-401v869l8 274h-12l-78 -246z" />
    <glyph glyph-name="afii10106" unicode="&#x161;" horiz-adv-x="3527" 
d="M442 2122h1708v-754h480q300 0 483 -106t257.5 -262.5t74.5 -315.5q0 -283 -199 -483.5t-612 -200.5h-1041v1712h-655v-471q0 -465 -54 -737.5t-201 -404.5t-425 -132q-140 0 -238 33l25 426q77 -25 131 -25q122 0 179.5 95t72 244t14.5 395v106v881zM2150 999v-630h353
q215 0 302 94.5t87 220.5q0 121 -85 218t-313 97h-344z" />
    <glyph glyph-name="quilsinglright" unicode="&#x203a;" horiz-adv-x="1323" 
d="M684 2122l475 -832l-475 -864h-520l450 864l-450 832h520z" />
    <glyph glyph-name="afii10107" unicode="&#x153;" horiz-adv-x="3621" 
d="M1688 2122h557v-754h479q300 0 483 -106t257.5 -262.5t74.5 -315.5q0 -283 -199 -483.5t-612 -200.5h-1040v958h-885v-958h-557v2122h557v-754h885v754zM2245 999v-630h352q215 0 302 94.5t87 220.5q0 121 -85 218t-312 97h-344z" />
    <glyph glyph-name="afii10109" horiz-adv-x="2277" 
d="M266 2122h557v-963h21l680 963h622l-786 -1004l897 -1118h-701l-712 1016h-21v-1016h-557v2122z" />
    <glyph glyph-name="afii10108" horiz-adv-x="2683" 
d="M463 0v2425h-340v348h340v299h557v-299h893v-348h-893v-307l-21 -328h13q140 211 327 287.5t344 76.5q206 0 377 -72.5t274 -223.5t103 -371v-1487h-557v1282q0 218 -113 318t-272 100q-202 0 -338.5 -155t-136.5 -402v-1143h-557z" />
    <glyph glyph-name="afii10193" unicode="&#x178;" horiz-adv-x="2478" 
d="M246 0v2122h557v-1712h872v1712h557v-2122h-712v-557h-562v557h-712z" />
    <glyph glyph-name="afii10062" unicode="&#xa1;" horiz-adv-x="2720" 
d="M61 2867h652l569 -1220l123 -304h12l123 308l545 1216h573l-1147 -2441q-111 -238 -291 -348.5t-466 -110.5q-146 0 -357 90l66 435q116 -62 246 -62q117 0 193.5 36t129.5 157l82 192zM1839 3707l299 -160q-194 -479 -758 -479q-563 0 -757 479l299 160
q104 -266 458 -266q352 0 459 266z" />
    <glyph glyph-name="afii10062" unicode="&#x40e;" horiz-adv-x="2720" 
d="M61 2867h652l569 -1220l123 -304h12l123 308l545 1216h573l-1147 -2441q-111 -238 -291 -348.5t-466 -110.5q-146 0 -357 90l66 435q116 -62 246 -62q117 0 193.5 36t129.5 157l82 192zM1839 3707l299 -160q-194 -479 -758 -479q-563 0 -757 479l299 160
q104 -266 458 -266q352 0 459 266z" />
    <glyph glyph-name="afii10110" unicode="&#xa2;" horiz-adv-x="2318" 
d="M41 2122h618l402 -1180l127 -397h8l131 422l385 1155h565l-897 -2380q-65 -176 -150 -311t-261 -235.5t-457 -100.5q-150 0 -328 57l41 414q133 -45 221 -45q291 0 385 237l50 123zM1634 3125l205 -188q-214 -402 -676 -402t-676 402l205 188q156 -229 471 -229
q327 0 471 229z" />
    <glyph glyph-name="afii10110" unicode="&#x45e;" horiz-adv-x="2318" 
d="M41 2122h618l402 -1180l127 -397h8l131 422l385 1155h565l-897 -2380q-65 -176 -150 -311t-261 -235.5t-457 -100.5q-150 0 -328 57l41 414q133 -45 221 -45q291 0 385 237l50 123zM1634 3125l205 -188q-214 -402 -676 -402t-676 402l205 188q156 -229 471 -229
q327 0 471 229z" />
    <glyph glyph-name="afii10057" unicode="&#xa3;" horiz-adv-x="1552" 
d="M684 2867h582v-2036q0 -166 -20 -302t-92.5 -266.5t-226.5 -213t-403 -82.5q-218 0 -442 53v467q148 -36 278 -36q176 0 250 101t74 320v1995z" />
    <glyph glyph-name="afii10057" unicode="&#x408;" horiz-adv-x="1552" 
d="M684 2867h582v-2036q0 -166 -20 -302t-92.5 -266.5t-226.5 -213t-403 -82.5q-218 0 -442 53v467q148 -36 278 -36q176 0 250 101t74 320v1995z" />
    <glyph glyph-name="currency" unicode="&#xa4;" horiz-adv-x="3113" 
d="M246 2298l323 328l344 -340q281 192 643 192q341 0 644 -192l340 340l327 -328l-340 -340q197 -273 197 -647q0 -352 -197 -647l340 -336l-327 -328l-336 340q-296 -197 -648 -197q-372 0 -647 197l-340 -340l-323 328l340 336q-197 285 -197 647q0 374 197 647z
M860 1311q0 -173 88 -334t247.5 -262t360.5 -101q202 0 361.5 101t247.5 262t88 334q0 202 -100.5 361.5t-262 247t-334.5 87.5q-172 0 -333.5 -87.5t-262 -247t-100.5 -361.5z" />
    <glyph glyph-name="afii10050" unicode="&#xa5;" horiz-adv-x="2089" 
d="M287 2867h1179v570h582v-1078h-1180v-2359h-581v2867z" />
    <glyph glyph-name="afii10050" unicode="&#x490;" horiz-adv-x="2089" 
d="M287 2867h1179v570h582v-1078h-1180v-2359h-581v2867z" />
    <glyph glyph-name="brokenbar" unicode="&#xa6;" horiz-adv-x="1065" 
d="M819 2122v-582h-573v582h573zM819 582v-582h-573v582h573z" />
    <glyph glyph-name="section" unicode="&#xa7;" horiz-adv-x="2556" 
d="M2056 2777l-49 -410q-231 79 -363.5 111.5t-275.5 32.5q-153 0 -252.5 -59t-99.5 -154q0 -104 75.5 -184.5t166 -129t303.5 -149.5q195 -89 320.5 -160t222.5 -161t151.5 -214t54.5 -296q0 -428 -434 -758q184 -184 184 -447q0 -409 -277 -546.5t-616 -137.5
q-350 0 -671 144l53 409q205 -81 324 -112t274 -31q203 0 300 76t97 178q0 122 -99 206.5t-290 182.5q-259 132 -380.5 201t-248 176.5t-203.5 251t-77 325.5q0 229 124.5 413.5t325.5 295.5q-176 149 -176 467q0 181 106.5 324.5t299 223t434.5 79.5q345 0 696 -148z
M1061 1565q-104 -82 -171 -193t-67 -209q0 -140 70 -234t163.5 -153t446.5 -260q100 87 165 216.5t65 258.5q0 98 -50 174t-135.5 136t-211.5 124z" />
    <glyph glyph-name="afii10023" unicode="&#xa8;" horiz-adv-x="2204" 
d="M287 2867h1712v-508h-1131v-647h1028v-471h-1028v-733h1131v-508h-1712v2867zM455 3740h471v-471h-471v471zM1393 3740h471v-471h-471v471z" />
    <glyph glyph-name="afii10023" unicode="&#x401;" horiz-adv-x="2204" 
d="M287 2867h1712v-508h-1131v-647h1028v-471h-1028v-733h1131v-508h-1712v2867zM455 3740h471v-471h-471v471zM1393 3740h471v-471h-471v471z" />
    <glyph glyph-name="copyright" unicode="&#xa9;" horiz-adv-x="3424" 
d="M246 1434q0 323 123.5 596t333.5 467t474.5 298.5t534.5 104.5q324 0 595 -123.5t466 -334.5t300 -473t105 -535q0 -274 -103 -535.5t-298 -473.5t-468 -335t-597 -123q-271 0 -534 105.5t-474 300.5t-334.5 467.5t-123.5 593.5zM586 1434q0 -329 161.5 -587t422 -399
t542.5 -141q328 0 586.5 161.5t399.5 422.5t141 543t-140.5 542t-399.5 422t-587 162q-282 0 -542.5 -140.5t-422 -399t-161.5 -586.5zM2130 2146l-16 -274q-122 41 -279 41q-76 0 -166.5 -36.5t-160.5 -136.5t-70 -270q0 -166 57 -277.5t148.5 -166.5t195.5 -55
q155 0 295 61l16 -282q-173 -66 -356 -66q-275 0 -443.5 115.5t-239.5 294.5t-71 376q0 189 78.5 354t248 268t427.5 103q184 0 336 -49z" />
    <glyph glyph-name="afii10053" unicode="&#xaa;" horiz-adv-x="2601" 
d="M2380 578l37 -488q-369 -123 -742 -123q-305 0 -577 92.5t-478.5 277.5t-321 458t-114.5 622q0 427 190 765t552 528t856 190q326 0 635 -98l-25 -492q-266 107 -569 107q-292 0 -499.5 -99.5t-326.5 -258.5t-166 -347h1164v-471h-1184q20 -195 125 -375t317.5 -297.5
t528.5 -117.5q323 0 598 127z" />
    <glyph glyph-name="afii10053" unicode="&#x404;" horiz-adv-x="2601" 
d="M2380 578l37 -488q-369 -123 -742 -123q-305 0 -577 92.5t-478.5 277.5t-321 458t-114.5 622q0 427 190 765t552 528t856 190q326 0 635 -98l-25 -492q-266 107 -569 107q-292 0 -499.5 -99.5t-326.5 -258.5t-166 -347h1164v-471h-1184q20 -195 125 -375t317.5 -297.5
t528.5 -117.5q323 0 598 127z" />
    <glyph glyph-name="guillemotleft" unicode="&#xab;" horiz-adv-x="2408" 
d="M659 2122h578l-496 -832l496 -864h-578l-495 864zM1667 2122h578l-496 -832l496 -864h-578l-496 864z" />
    <glyph glyph-name="logicalnot" unicode="&#xac;" horiz-adv-x="3097" 
d="M287 1372v512h2523v-1106h-471v594h-2052z" />
    <glyph glyph-name="registered" unicode="&#xae;" horiz-adv-x="3424" 
d="M246 1434q0 323 123.5 596t333.5 467t474.5 298.5t534.5 104.5q324 0 595 -123.5t466 -334.5t300 -473t105 -535q0 -274 -103 -535.5t-298 -473.5t-468 -335t-597 -123q-271 0 -534 105.5t-474 300.5t-334.5 467.5t-123.5 593.5zM586 1434q0 -329 161.5 -587t422 -399
t542.5 -141q328 0 586.5 161.5t399.5 422.5t141 543t-140.5 542t-399.5 422t-587 162q-282 0 -542.5 -140.5t-422 -399t-161.5 -586.5zM1159 2175h651q150 0 264.5 -49.5t177 -141t62.5 -215.5q0 -137 -83 -229t-208 -119v-4q55 -13 97.5 -62.5t58.5 -92.5l242 -582h-398
l-192 475q-14 39 -61.5 79t-131.5 40h-114v-594h-365v1495zM1524 1892v-336h159q254 0 254 181q0 60 -56.5 107.5t-197.5 47.5h-159z" />
    <glyph glyph-name="afii10056" unicode="&#xaf;" horiz-adv-x="1729" 
d="M573 0v2867h582v-2867h-582zM737 3584v-516h-553v516h553zM991 3584h553v-516h-553v516z" />
    <glyph glyph-name="afii10056" unicode="&#x407;" horiz-adv-x="1729" 
d="M573 0v2867h582v-2867h-582zM737 3584v-516h-553v516h553zM991 3584h553v-516h-553v516z" />
    <glyph glyph-name="degree" unicode="&#xb0;" horiz-adv-x="1147" 
d="M123 2769q0 111 57 215.5t160.5 169.5t232.5 65q111 0 216 -57t170 -160.5t65 -232.5q0 -111 -57.5 -216t-160.5 -170t-233 -65q-129 0 -232.5 65t-160.5 170t-57 216zM369 2769q0 -87 63.5 -146t140.5 -59q88 0 146.5 63.5t58.5 141.5q0 89 -63 147t-142 58
q-78 0 -141 -59t-63 -146z" />
    <glyph glyph-name="plusminus" unicode="&#xb1;" horiz-adv-x="2572" 
d="M225 1245v369h877v876h368v-876h877v-369h-877v-672h-368v672h-877zM225 0v369h2122v-369h-2122z" />
    <glyph glyph-name="afii10055" unicode="&#xb2;" horiz-adv-x="1155" 
d="M287 0v2867h581v-2867h-581z" />
    <glyph glyph-name="afii10055" unicode="&#x406;" horiz-adv-x="1155" 
d="M287 0v2867h581v-2867h-581z" />
    <glyph glyph-name="afii10103" unicode="&#xb3;" horiz-adv-x="1106" 
d="M274 2122h557v-2122h-557v2122zM840 3011v-574h-574v574h574z" />
    <glyph glyph-name="afii10103" unicode="&#x456;" horiz-adv-x="1106" 
d="M274 2122h557v-2122h-557v2122zM840 3011v-574h-574v574h574z" />
    <glyph glyph-name="afii10098" unicode="&#xb4;" horiz-adv-x="1806" 
d="M246 2122h966v499h529l4 -929h-942v-1692h-557v2122z" />
    <glyph glyph-name="afii10098" unicode="&#x491;" horiz-adv-x="1806" 
d="M246 2122h966v499h529l4 -929h-942v-1692h-557v2122z" />
    <glyph glyph-name="mu" unicode="&#xb5;" horiz-adv-x="2363" 
d="M246 2122h557v-1282q0 -418 360 -418q162 0 276 85t169 217.5t55 274.5v1123h557v-2122h-537v332h-12q-56 -120 -191 -242.5t-358 -122.5q-156 0 -242 66t-130 196h-17l70 -1106h-557v2999z" />
    <glyph glyph-name="paragraph" unicode="&#xb6;" horiz-adv-x="2343" 
d="M913 -897v2535q-343 0 -536 178.5t-193 436.5q0 165 83 306t243.5 224.5t378.5 83.5h414v-3764h-390zM1667 2867h389v-3764h-389v3764z" />
    <glyph glyph-name="periodcentered" unicode="&#xb7;" horiz-adv-x="1270" 
d="M184 1475q0 111 57.5 215.5t161 169.5t232.5 65q111 0 215.5 -57t169.5 -160.5t65 -232.5q0 -130 -64.5 -233t-169.5 -160.5t-216 -57.5q-175 0 -313 128.5t-138 322.5z" />
    <glyph glyph-name="afii10071" unicode="&#xb8;" horiz-adv-x="2314" 
d="M2171 893h-1446q15 -235 181.5 -379.5t449.5 -144.5q331 0 663 147v-418q-351 -131 -733 -131q-224 0 -425.5 60.5t-365 191.5t-258 342.5t-94.5 499.5q0 308 131 558.5t370.5 392.5t547.5 142q260 0 481.5 -110t359.5 -365t138 -659v-127zM725 1274h872
q0 236 -125.5 365.5t-312.5 129.5q-129 0 -227.5 -70t-151.5 -185t-55 -240zM520 2929h496v-475h-496v475zM1303 2929h495v-475h-495v475z" />
    <glyph glyph-name="afii10071" unicode="&#x451;" horiz-adv-x="2314" 
d="M2171 893h-1446q15 -235 181.5 -379.5t449.5 -144.5q331 0 663 147v-418q-351 -131 -733 -131q-224 0 -425.5 60.5t-365 191.5t-258 342.5t-94.5 499.5q0 308 131 558.5t370.5 392.5t547.5 142q260 0 481.5 -110t359.5 -365t138 -659v-127zM725 1274h872
q0 236 -125.5 365.5t-312.5 129.5q-129 0 -227.5 -70t-151.5 -185t-55 -240zM520 2929h496v-475h-496v475zM1303 2929h495v-475h-495v475z" />
    <glyph glyph-name="afii61352" unicode="&#xb9;" horiz-adv-x="4243" 
d="M287 2867h717l991 -1806l151 -389h13l-13 508v1687h545v-2867h-717l-999 1876l-144 319h-12l12 -507v-1688h-544v2867zM3494 2318q257 0 401 -174t144 -465q0 -184 -64 -330t-187.5 -227.5t-293.5 -81.5q-255 0 -400 176.5t-145 462.5q0 291 144 465t401 174zM3494 2105
q-108 0 -140 -110.5t-32 -315.5q0 -195 32.5 -310.5t139.5 -115.5t139.5 115.5t32.5 310.5q0 205 -32 315.5t-140 110.5zM4039 467v-324h-1090v324h1090z" />
    <glyph glyph-name="afii61352" unicode="&#x2116;" horiz-adv-x="4243" 
d="M287 2867h717l991 -1806l151 -389h13l-13 508v1687h545v-2867h-717l-999 1876l-144 319h-12l12 -507v-1688h-544v2867zM3494 2318q257 0 401 -174t144 -465q0 -184 -64 -330t-187.5 -227.5t-293.5 -81.5q-255 0 -400 176.5t-145 462.5q0 291 144 465t401 174zM3494 2105
q-108 0 -140 -110.5t-32 -315.5q0 -195 32.5 -310.5t139.5 -115.5t139.5 115.5t32.5 310.5q0 205 -32 315.5t-140 110.5zM4039 467v-324h-1090v324h1090z" />
    <glyph glyph-name="afii10101" unicode="&#xba;" horiz-adv-x="1954" 
d="M1434 918h-709q9 -248 177 -398.5t409 -150.5q231 0 454 98l33 -418q-270 -82 -577 -82q-347 0 -590 141t-365.5 393t-122.5 584q0 311 120.5 554t352.5 379t551 136q192 0 361 -30.5t250 -59.5l-37 -413q-242 102 -443 102q-226 0 -390 -124t-183 -343h709v-368z" />
    <glyph glyph-name="afii10101" unicode="&#x454;" horiz-adv-x="1954" 
d="M1434 918h-709q9 -248 177 -398.5t409 -150.5q231 0 454 98l33 -418q-270 -82 -577 -82q-347 0 -590 141t-365.5 393t-122.5 584q0 311 120.5 554t352.5 379t551 136q192 0 361 -30.5t250 -59.5l-37 -413q-242 102 -443 102q-226 0 -390 -124t-183 -343h709v-368z" />
    <glyph glyph-name="guillemotright" unicode="&#xbb;" horiz-adv-x="2408" 
d="M741 2122l496 -832l-496 -864h-577l495 864l-495 832h577zM1749 2122l496 -832l-496 -864h-578l496 864l-496 832h578z" />
    <glyph glyph-name="afii10105" unicode="&#xbc;" horiz-adv-x="1065" 
d="M811 2122v-2290q0 -315 -115 -530t-532 -215q-103 0 -246 32v394q54 -17 143 -17q114 0 153.5 76.5t39.5 239.5v2310h557zM246 2998h573v-516h-573v516z" />
    <glyph glyph-name="afii10105" unicode="&#x458;" horiz-adv-x="1065" 
d="M811 2122v-2290q0 -315 -115 -530t-532 -215q-103 0 -246 32v394q54 -17 143 -17q114 0 153.5 76.5t39.5 239.5v2310h557zM246 2998h573v-516h-573v516z" />
    <glyph glyph-name="afii10054" unicode="&#xbd;" horiz-adv-x="2261" 
d="M217 111l62 499q163 -74 361.5 -123t346.5 -49q205 0 332 101.5t127 242.5q0 104 -43 176t-115 122t-184 103l-236 111q-221 111 -362 211.5t-221 243.5t-80 344q0 161 71 344.5t273.5 323t556.5 139.5q461 0 819 -123l-61 -459q-339 140 -627 140q-245 0 -337.5 -96
t-92.5 -208q0 -159 106 -248.5t275 -160.5q300 -128 465.5 -222t284 -269t118.5 -451q0 -159 -61.5 -307t-193.5 -267.5t-342.5 -190.5t-495.5 -71q-355 0 -746 144z" />
    <glyph glyph-name="afii10054" unicode="&#x405;" horiz-adv-x="2261" 
d="M217 111l62 499q163 -74 361.5 -123t346.5 -49q205 0 332 101.5t127 242.5q0 104 -43 176t-115 122t-184 103l-236 111q-221 111 -362 211.5t-221 243.5t-80 344q0 161 71 344.5t273.5 323t556.5 139.5q461 0 819 -123l-61 -459q-339 140 -627 140q-245 0 -337.5 -96
t-92.5 -208q0 -159 106 -248.5t275 -160.5q300 -128 465.5 -222t284 -269t118.5 -451q0 -159 -61.5 -307t-193.5 -267.5t-342.5 -190.5t-495.5 -71q-355 0 -746 144z" />
    <glyph glyph-name="afii10102" unicode="&#xbe;" horiz-adv-x="1860" 
d="M1655 2064l-49 -401q-261 102 -484 102q-214 0 -293 -68.5t-79 -152.5q0 -106 74 -154.5t249 -107.5q258 -79 440.5 -217t182.5 -442q0 -345 -257.5 -500.5t-570.5 -155.5q-157 0 -352.5 35.5t-351.5 87.5l24 434q330 -143 598 -143q183 0 268 68t85 161q0 121 -86.5 175
t-282.5 124q-185 68 -302.5 137t-192 185.5t-74.5 296.5q0 157 77 300t251 234.5t446 91.5q390 0 680 -90z" />
    <glyph glyph-name="afii10102" unicode="&#x455;" horiz-adv-x="1860" 
d="M1655 2064l-49 -401q-261 102 -484 102q-214 0 -293 -68.5t-79 -152.5q0 -106 74 -154.5t249 -107.5q258 -79 440.5 -217t182.5 -442q0 -345 -257.5 -500.5t-570.5 -155.5q-157 0 -352.5 35.5t-351.5 87.5l24 434q330 -143 598 -143q183 0 268 68t85 161q0 121 -86.5 175
t-282.5 124q-185 68 -302.5 137t-192 185.5t-74.5 296.5q0 157 77 300t251 234.5t446 91.5q390 0 680 -90z" />
    <glyph glyph-name="afii10104" unicode="&#xbf;" horiz-adv-x="1884" 
d="M664 2122h557v-2122h-557v2122zM799 3011v-574h-553v574h553zM1085 3011h553v-574h-553v574z" />
    <glyph glyph-name="afii10104" unicode="&#x457;" horiz-adv-x="1884" 
d="M664 2122h557v-2122h-557v2122zM799 3011v-574h-553v574h553zM1085 3011h553v-574h-553v574z" />
    <glyph glyph-name="afii10017" unicode="&#xc0;" horiz-adv-x="3068" 
d="M1204 2867h664l1138 -2867h-655l-242 643h-1183l-242 -643h-623zM1110 1118h827l-421 1172h-9z" />
    <glyph glyph-name="afii10017" unicode="&#x410;" horiz-adv-x="3068" 
d="M1204 2867h664l1138 -2867h-655l-242 643h-1183l-242 -643h-623zM1110 1118h827l-421 1172h-9z" />
    <glyph glyph-name="afii10018" unicode="&#xc1;" horiz-adv-x="2601" 
d="M287 2867h1835v-508h-1254v-598h467q367 0 595.5 -132.5t326.5 -342.5t98 -450q0 -149 -55 -295t-175 -268.5t-319 -197.5t-471 -75h-1048v2867zM868 1311v-860h361q191 0 351.5 85.5t160.5 344.5t-160.5 344.5t-351.5 85.5h-361z" />
    <glyph glyph-name="afii10018" unicode="&#x411;" horiz-adv-x="2601" 
d="M287 2867h1835v-508h-1254v-598h467q367 0 595.5 -132.5t326.5 -342.5t98 -450q0 -149 -55 -295t-175 -268.5t-319 -197.5t-471 -75h-1048v2867zM868 1311v-860h361q191 0 351.5 85.5t160.5 344.5t-160.5 344.5t-351.5 85.5h-361z" />
    <glyph glyph-name="afii10019" unicode="&#xc2;" horiz-adv-x="2564" 
d="M287 2867h942q195 0 405 -46t379.5 -204t169.5 -458q0 -298 -142 -450.5t-325 -209.5v-8q261 -38 431.5 -220t170.5 -464q0 -188 -89.5 -369.5t-340.5 -309.5t-696 -128h-905v2867zM868 2417v-713h283q256 0 351 115t95 241q0 135 -96.5 246t-374.5 111h-258zM868 1253
v-802h324q165 0 279.5 50.5t173.5 141t59 209.5q0 401 -512 401h-324z" />
    <glyph glyph-name="afii10019" unicode="&#x412;" horiz-adv-x="2564" 
d="M287 2867h942q195 0 405 -46t379.5 -204t169.5 -458q0 -298 -142 -450.5t-325 -209.5v-8q261 -38 431.5 -220t170.5 -464q0 -188 -89.5 -369.5t-340.5 -309.5t-696 -128h-905v2867zM868 2417v-713h283q256 0 351 115t95 241q0 135 -96.5 246t-374.5 111h-258zM868 1253
v-802h324q165 0 279.5 50.5t173.5 141t59 209.5q0 401 -512 401h-324z" />
    <glyph glyph-name="afii10020" unicode="&#xc3;" horiz-adv-x="2089" 
d="M287 2867h1761v-508h-1180v-2359h-581v2867z" />
    <glyph glyph-name="afii10020" unicode="&#x413;" horiz-adv-x="2089" 
d="M287 2867h1761v-508h-1180v-2359h-581v2867z" />
    <glyph glyph-name="afii10021" unicode="&#xc4;" horiz-adv-x="3035" 
d="M758 2867h1868v-2359h327v-1110h-573v602h-1725v-602h-573v1110h328q147 249 222 483t100.5 462t25.5 497v917zM2044 2359h-733v-409q0 -311 -18.5 -534t-83 -452.5t-193.5 -455.5h1028v1851z" />
    <glyph glyph-name="afii10021" unicode="&#x414;" horiz-adv-x="3035" 
d="M758 2867h1868v-2359h327v-1110h-573v602h-1725v-602h-573v1110h328q147 249 222 483t100.5 462t25.5 497v917zM2044 2359h-733v-409q0 -311 -18.5 -534t-83 -452.5t-193.5 -455.5h1028v1851z" />
    <glyph glyph-name="afii10022" unicode="&#xc5;" horiz-adv-x="2204" 
d="M287 2867h1712v-508h-1131v-647h1028v-471h-1028v-733h1131v-508h-1712v2867z" />
    <glyph glyph-name="afii10022" unicode="&#x415;" horiz-adv-x="2204" 
d="M287 2867h1712v-508h-1131v-647h1028v-471h-1028v-733h1131v-508h-1712v2867z" />
    <glyph glyph-name="afii10024" unicode="&#xc6;" horiz-adv-x="4006" 
d="M1712 2867h582v-1225h12l963 1225h692l-1114 -1298l1130 -1569h-737l-934 1425h-12v-1425h-582v1425h-12l-934 -1425h-737l1130 1569l-1114 1298h692l963 -1225h12v1225z" />
    <glyph glyph-name="afii10024" unicode="&#x416;" horiz-adv-x="4006" 
d="M1712 2867h582v-1225h12l963 1225h692l-1114 -1298l1130 -1569h-737l-934 1425h-12v-1425h-582v1425h-12l-934 -1425h-737l1130 1569l-1114 1298h692l963 -1225h12v1225z" />
    <glyph glyph-name="afii10025" unicode="&#xc7;" horiz-adv-x="2441" 
d="M676 1257v472h348q227 0 343 102.5t116 265.5q0 332 -463 332q-321 0 -660 -156l-57 484q244 78 428 110.5t412 32.5q338 0 555.5 -97t318.5 -261t101 -363q0 -160 -58.5 -293t-165 -224t-252.5 -130v-12q268 -47 421 -242.5t153 -519.5q0 -319 -198.5 -496t-461.5 -236
t-512 -59q-214 0 -379 38.5t-460 137.5l45 488q434 -193 766 -193q287 0 426 112.5t139 268.5q0 438 -557 438h-348z" />
    <glyph glyph-name="afii10025" unicode="&#x417;" horiz-adv-x="2441" 
d="M676 1257v472h348q227 0 343 102.5t116 265.5q0 332 -463 332q-321 0 -660 -156l-57 484q244 78 428 110.5t412 32.5q338 0 555.5 -97t318.5 -261t101 -363q0 -160 -58.5 -293t-165 -224t-252.5 -130v-12q268 -47 421 -242.5t153 -519.5q0 -319 -198.5 -496t-461.5 -236
t-512 -59q-214 0 -379 38.5t-460 137.5l45 488q434 -193 766 -193q287 0 426 112.5t139 268.5q0 438 -557 438h-348z" />
    <glyph glyph-name="afii10026" unicode="&#xc8;" horiz-adv-x="3060" 
d="M287 2867h581v-1474l-12 -697h12l205 418l1004 1753h696v-2867h-582v1479l13 692h-13l-196 -434l-1012 -1737h-696v2867z" />
    <glyph glyph-name="afii10026" unicode="&#x418;" horiz-adv-x="3060" 
d="M287 2867h581v-1474l-12 -697h12l205 418l1004 1753h696v-2867h-582v1479l13 692h-13l-196 -434l-1012 -1737h-696v2867z" />
    <glyph glyph-name="afii10027" unicode="&#xc9;" horiz-adv-x="3060" 
d="M287 2867h581v-1474l-12 -697h12l205 418l1004 1753h696v-2867h-582v1479l13 692h-13l-196 -434l-1012 -1737h-696v2867zM1958 3707l299 -160q-194 -479 -758 -479q-563 0 -758 479l299 160q107 -266 459 -266t459 266z" />
    <glyph glyph-name="afii10027" unicode="&#x419;" horiz-adv-x="3060" 
d="M287 2867h581v-1474l-12 -697h12l205 418l1004 1753h696v-2867h-582v1479l13 692h-13l-196 -434l-1012 -1737h-696v2867zM1958 3707l299 -160q-194 -479 -758 -479q-563 0 -758 479l299 160q107 -266 459 -266t459 266z" />
    <glyph glyph-name="afii10028" unicode="&#xca;" horiz-adv-x="2712" 
d="M287 2867h581v-1225h13l1036 1225h692l-1196 -1298l1270 -1569h-737l-1065 1425h-13v-1425h-581v2867z" />
    <glyph glyph-name="afii10028" unicode="&#x41a;" horiz-adv-x="2712" 
d="M287 2867h581v-1225h13l1036 1225h692l-1196 -1298l1270 -1569h-737l-1065 1425h-13v-1425h-581v2867z" />
    <glyph glyph-name="afii10029" unicode="&#xcb;" horiz-adv-x="2781" 
d="M610 2867h1884v-2867h-581v2359h-758v-573q0 -497 -21 -801t-100.5 -535.5t-250.5 -357t-464 -125.5q-101 0 -278 33l25 455q105 -21 155 -21q238 0 315.5 271.5t77.5 744.5q0 87 -2 250t-2 233v934z" />
    <glyph glyph-name="afii10029" unicode="&#x41b;" horiz-adv-x="2781" 
d="M610 2867h1884v-2867h-581v2359h-758v-573q0 -497 -21 -801t-100.5 -535.5t-250.5 -357t-464 -125.5q-101 0 -278 33l25 455q105 -21 155 -21q238 0 315.5 271.5t77.5 744.5q0 87 -2 250t-2 233v934z" />
    <glyph glyph-name="afii10030" unicode="&#xcc;" horiz-adv-x="3953" 
d="M2253 0h-553l-696 2048l-132 410h-12l8 -443v-2015h-581v2867h983l573 -1667l127 -508h12l127 508l574 1667h983v-2867h-582v2015l8 443h-12l-131 -410z" />
    <glyph glyph-name="afii10030" unicode="&#x41c;" horiz-adv-x="3953" 
d="M2253 0h-553l-696 2048l-132 410h-12l8 -443v-2015h-581v2867h983l573 -1667l127 -508h12l127 508l574 1667h983v-2867h-582v2015l8 443h-12l-131 -410z" />
    <glyph glyph-name="afii10031" unicode="&#xcd;" horiz-adv-x="2900" 
d="M287 2867h581v-1155h1164v1155h581v-2867h-581v1241h-1164v-1241h-581v2867z" />
    <glyph glyph-name="afii10031" unicode="&#x41d;" horiz-adv-x="2900" 
d="M287 2867h581v-1155h1164v1155h581v-2867h-581v1241h-1164v-1241h-581v2867z" />
    <glyph glyph-name="afii10032" unicode="&#xce;" horiz-adv-x="3178" 
d="M1589 2900q404 0 723 -170t500.5 -502t181.5 -794t-181.5 -794.5t-500.5 -502.5t-723 -170q-405 0 -723.5 170t-500 502t-181.5 795t181.5 794.5t500 501.5t723.5 170zM1589 2490q-185 0 -362 -85t-302.5 -320.5t-125.5 -650.5q0 -416 125.5 -651.5t302.5 -320.5t362 -85
q131 0 264.5 43.5t254 157.5t196.5 326t76 530q0 416 -125.5 651t-303.5 320t-362 85z" />
    <glyph glyph-name="afii10032" unicode="&#x41e;" horiz-adv-x="3178" 
d="M1589 2900q404 0 723 -170t500.5 -502t181.5 -794t-181.5 -794.5t-500.5 -502.5t-723 -170q-405 0 -723.5 170t-500 502t-181.5 795t181.5 794.5t500 501.5t723.5 170zM1589 2490q-185 0 -362 -85t-302.5 -320.5t-125.5 -650.5q0 -416 125.5 -651.5t302.5 -320.5t362 -85
q131 0 264.5 43.5t254 157.5t196.5 326t76 530q0 416 -125.5 651t-303.5 320t-362 85z" />
    <glyph glyph-name="afii10033" unicode="&#xcf;" horiz-adv-x="2871" 
d="M287 2867h2298v-2867h-582v2396h-1135v-2396h-581v2867z" />
    <glyph glyph-name="afii10033" unicode="&#x41f;" horiz-adv-x="2871" 
d="M287 2867h2298v-2867h-582v2396h-1135v-2396h-581v2867z" />
    <glyph glyph-name="afii10034" unicode="&#xd0;" horiz-adv-x="2400" 
d="M287 2867h848q632 0 866.5 -287.5t234.5 -609.5q0 -228 -110.5 -433t-336.5 -332.5t-548 -127.5h-373v-1077h-581v2867zM868 1528h267q231 0 359 132t128 327q0 183 -117.5 306.5t-369.5 123.5h-267v-889z" />
    <glyph glyph-name="afii10034" unicode="&#x420;" horiz-adv-x="2400" 
d="M287 2867h848q632 0 866.5 -287.5t234.5 -609.5q0 -228 -110.5 -433t-336.5 -332.5t-548 -127.5h-373v-1077h-581v2867zM868 1528h267q231 0 359 132t128 327q0 183 -117.5 306.5t-369.5 123.5h-267v-889z" />
    <glyph glyph-name="afii10035" unicode="&#xd1;" horiz-adv-x="2580" 
d="M2380 578l37 -488q-369 -123 -742 -123q-303 0 -575 92.5t-478.5 277t-322 458t-115.5 622.5q0 336 110 611t318.5 470.5t505.5 298.5t664 103q326 0 635 -98l-25 -492q-266 107 -569 107q-294 0 -527 -116t-365 -340t-132 -536q0 -345 143 -564t366 -314.5t474 -95.5
q320 0 598 127z" />
    <glyph glyph-name="afii10035" unicode="&#x421;" horiz-adv-x="2580" 
d="M2380 578l37 -488q-369 -123 -742 -123q-303 0 -575 92.5t-478.5 277t-322 458t-115.5 622.5q0 336 110 611t318.5 470.5t505.5 298.5t664 103q326 0 635 -98l-25 -492q-266 107 -569 107q-294 0 -527 -116t-365 -340t-132 -536q0 -345 143 -564t366 -314.5t474 -95.5
q320 0 598 127z" />
    <glyph glyph-name="afii10036" unicode="&#xd2;" horiz-adv-x="2359" 
d="M61 2867h2237v-508h-828v-2359h-581v2359h-828v508z" />
    <glyph glyph-name="afii10036" unicode="&#x422;" horiz-adv-x="2359" 
d="M61 2867h2237v-508h-828v-2359h-581v2359h-828v508z" />
    <glyph glyph-name="afii10037" unicode="&#xd3;" horiz-adv-x="2679" 
d="M41 2867h651l570 -1220l122 -304h13l123 308l544 1216h574l-1147 -2441q-81 -171 -185.5 -273.5t-225.5 -144t-269 -41.5q-215 0 -434 90l65 435q116 -62 246 -62q117 0 193.5 36t130.5 157l82 192z" />
    <glyph glyph-name="afii10037" unicode="&#x423;" horiz-adv-x="2679" 
d="M41 2867h651l570 -1220l122 -304h13l123 308l544 1216h574l-1147 -2441q-81 -171 -185.5 -273.5t-225.5 -144t-269 -41.5q-215 0 -434 90l65 435q116 -62 246 -62q117 0 193.5 36t130.5 157l82 192z" />
    <glyph glyph-name="afii10038" unicode="&#xd4;" horiz-adv-x="3924" 
d="M2253 3031v-369h172q363 0 654.5 -155t455.5 -435t164 -638t-164 -638.5t-455.5 -435.5t-654.5 -155h-172v-369h-582v369h-172q-363 0 -654.5 155t-455.5 435.5t-164 638.5t164 638t455.5 435t654.5 155h172v369h582zM2376 2212h-123v-1557h123q162 0 292.5 51.5
t223.5 152t142.5 247t49.5 328.5q0 242 -86 418t-246 268t-376 92zM1548 655h123v1557h-123q-216 0 -376 -92t-246 -268t-86 -418t86 -418.5t246 -268.5t376 -92z" />
    <glyph glyph-name="afii10038" unicode="&#x424;" horiz-adv-x="3924" 
d="M2253 3031v-369h172q363 0 654.5 -155t455.5 -435t164 -638t-164 -638.5t-455.5 -435.5t-654.5 -155h-172v-369h-582v369h-172q-363 0 -654.5 155t-455.5 435.5t-164 638.5t164 638t455.5 435t654.5 155h172v369h582zM2376 2212h-123v-1557h123q162 0 292.5 51.5
t223.5 152t142.5 247t49.5 328.5q0 242 -86 418t-246 268t-376 92zM1548 655h123v1557h-123q-216 0 -376 -92t-246 -268t-86 -418t86 -418.5t246 -268.5t376 -92z" />
    <glyph glyph-name="afii10039" unicode="&#xd5;" horiz-adv-x="2863" 
d="M168 2867h688l459 -799l131 -241h12l131 241l471 799h635l-872 -1368l958 -1499h-688l-549 909l-123 221h-12l-123 -221l-569 -909h-635l958 1499z" />
    <glyph glyph-name="afii10039" unicode="&#x425;" horiz-adv-x="2863" 
d="M168 2867h688l459 -799l131 -241h12l131 241l471 799h635l-872 -1368l958 -1499h-688l-549 909l-123 221h-12l-123 -221l-569 -909h-635l958 1499z" />
    <glyph glyph-name="afii10040" unicode="&#xd6;" horiz-adv-x="3027" 
d="M287 2867h581v-2359h1164v2359h581v-2359h332v-1098h-528v590h-2130v2867z" />
    <glyph glyph-name="afii10040" unicode="&#x426;" horiz-adv-x="3027" 
d="M287 2867h581v-2359h1164v2359h581v-2359h332v-1098h-528v590h-2130v2867z" />
    <glyph glyph-name="afii10041" unicode="&#xd7;" horiz-adv-x="2748" 
d="M205 2867h581v-979q0 -212 100.5 -333t456.5 -121q249 0 537 69v1364h582v-2867h-582v1020q-290 -57 -537 -57q-365 0 -597.5 75.5t-348.5 199.5t-154 265t-38 307v1057z" />
    <glyph glyph-name="afii10041" unicode="&#x427;" horiz-adv-x="2748" 
d="M205 2867h581v-979q0 -212 100.5 -333t456.5 -121q249 0 537 69v1364h582v-2867h-582v1020q-290 -57 -537 -57q-365 0 -597.5 75.5t-348.5 199.5t-154 265t-38 307v1057z" />
    <glyph glyph-name="afii10042" unicode="&#xd8;" horiz-adv-x="4252" 
d="M287 2867h581v-2359h967v2359h582v-2359h966v2359h582v-2867h-3678v2867z" />
    <glyph glyph-name="afii10042" unicode="&#x428;" horiz-adv-x="4252" 
d="M287 2867h581v-2359h967v2359h582v-2359h966v2359h582v-2867h-3678v2867z" />
    <glyph glyph-name="afii10043" unicode="&#xd9;" horiz-adv-x="4370" 
d="M287 2867h581v-2359h967v2359h582v-2359h966v2359h582v-2359h324v-1122h-545v614h-3457v2867z" />
    <glyph glyph-name="afii10043" unicode="&#x429;" horiz-adv-x="4370" 
d="M287 2867h581v-2359h967v2359h582v-2359h966v2359h582v-2359h324v-1122h-545v614h-3457v2867z" />
    <glyph glyph-name="afii10044" unicode="&#xda;" horiz-adv-x="2925" 
d="M1282 2867v-1073h401q379 0 616.5 -127.5t339 -324t101.5 -416.5q0 -197 -62.5 -363t-191.5 -292t-336.5 -198.5t-482.5 -72.5h-967v2359h-618v508h1200zM1282 1343v-892h385q222 0 350.5 125.5t128.5 320.5q0 169 -111.5 307.5t-412.5 138.5h-340z" />
    <glyph glyph-name="afii10044" unicode="&#x42a;" horiz-adv-x="2925" 
d="M1282 2867v-1073h401q379 0 616.5 -127.5t339 -324t101.5 -416.5q0 -197 -62.5 -363t-191.5 -292t-336.5 -198.5t-482.5 -72.5h-967v2359h-618v508h1200zM1282 1343v-892h385q222 0 350.5 125.5t128.5 320.5q0 169 -111.5 307.5t-412.5 138.5h-340z" />
    <glyph glyph-name="afii10045" unicode="&#xdb;" horiz-adv-x="3604" 
d="M868 2867v-1073h402q379 0 616.5 -127.5t339 -324t101.5 -416.5q0 -197 -62.5 -363t-191.5 -292t-337.5 -198.5t-482.5 -72.5h-966v2867h581zM868 1343v-892h385q223 0 351.5 125.5t128.5 320.5q0 169 -112 307.5t-413 138.5h-340zM2736 2867h582v-2867h-582v2867z" />
    <glyph glyph-name="afii10045" unicode="&#x42b;" horiz-adv-x="3604" 
d="M868 2867v-1073h402q379 0 616.5 -127.5t339 -324t101.5 -416.5q0 -197 -62.5 -363t-191.5 -292t-337.5 -198.5t-482.5 -72.5h-966v2867h581zM868 1343v-892h385q223 0 351.5 125.5t128.5 320.5q0 169 -112 307.5t-413 138.5h-340zM2736 2867h582v-2867h-582v2867z" />
    <glyph glyph-name="afii10046" unicode="&#xdc;" horiz-adv-x="2511" 
d="M868 2867v-1073h402q379 0 616.5 -127.5t339 -324t101.5 -416.5q0 -197 -62.5 -363t-191.5 -292t-337.5 -198.5t-482.5 -72.5h-966v2867h581zM868 1343v-892h385q223 0 351.5 125.5t128.5 320.5q0 169 -112 307.5t-413 138.5h-340z" />
    <glyph glyph-name="afii10046" unicode="&#x42c;" horiz-adv-x="2511" 
d="M868 2867v-1073h402q379 0 616.5 -127.5t339 -324t101.5 -416.5q0 -197 -62.5 -363t-191.5 -292t-337.5 -198.5t-482.5 -72.5h-966v2867h581zM868 1343v-892h385q223 0 351.5 125.5t128.5 320.5q0 169 -112 307.5t-413 138.5h-340z" />
    <glyph glyph-name="afii10047" unicode="&#xdd;" horiz-adv-x="2621" 
d="M618 1241v471h1205q-41 266 -250.5 491.5t-704.5 225.5q-331 0 -618 -111l-45 459q369 123 790 123q477 0 776.5 -178t441 -427t183 -463t41.5 -353q0 -487 -193.5 -828t-539 -512.5t-795.5 -171.5q-380 0 -766 135l70 484q340 -148 717 -148q297 0 498 113.5t295.5 295
t99.5 394.5h-1205z" />
    <glyph glyph-name="afii10047" unicode="&#x42d;" horiz-adv-x="2621" 
d="M618 1241v471h1205q-41 266 -250.5 491.5t-704.5 225.5q-331 0 -618 -111l-45 459q369 123 790 123q477 0 776.5 -178t441 -427t183 -463t41.5 -353q0 -487 -193.5 -828t-539 -512.5t-795.5 -171.5q-380 0 -766 135l70 484q340 -148 717 -148q297 0 498 113.5t295.5 295
t99.5 394.5h-1205z" />
    <glyph glyph-name="afii10048" unicode="&#xde;" horiz-adv-x="4280" 
d="M868 1696h426q22 251 129.5 471t290.5 385t431.5 256.5t545.5 91.5q404 0 723 -170t500.5 -502t181.5 -794t-181.5 -794.5t-500.5 -502.5t-723 -170q-278 0 -523.5 86.5t-436 252t-304.5 399.5t-133 520h-426v-1225h-581v2867h581v-1171zM2691 2490q-185 0 -362 -85
t-302.5 -320.5t-125.5 -650.5q0 -416 125.5 -651.5t302.5 -320.5t362 -85q131 0 264.5 43.5t254 157.5t196.5 326t76 530q0 416 -125.5 651t-303.5 320t-362 85z" />
    <glyph glyph-name="afii10048" unicode="&#x42e;" horiz-adv-x="4280" 
d="M868 1696h426q22 251 129.5 471t290.5 385t431.5 256.5t545.5 91.5q404 0 723 -170t500.5 -502t181.5 -794t-181.5 -794.5t-500.5 -502.5t-723 -170q-278 0 -523.5 86.5t-436 252t-304.5 399.5t-133 520h-426v-1225h-581v2867h581v-1171zM2691 2490q-185 0 -362 -85
t-302.5 -320.5t-125.5 -650.5q0 -416 125.5 -651.5t302.5 -320.5t362 -85q131 0 264.5 43.5t254 157.5t196.5 326t76 530q0 416 -125.5 651t-303.5 320t-362 85z" />
    <glyph glyph-name="afii10049" unicode="&#xdf;" horiz-adv-x="2613" 
d="M2327 2867v-2867h-582v1065h-348l-557 -1065h-697l684 1180q-211 65 -388 250.5t-177 551.5q0 381 198 577.5t445.5 252t491.5 55.5h930zM1745 1516v901h-332q-185 0 -360.5 -85t-175.5 -366q0 -192 128 -321t412 -129h328z" />
    <glyph glyph-name="afii10049" unicode="&#x42f;" horiz-adv-x="2613" 
d="M2327 2867v-2867h-582v1065h-348l-557 -1065h-697l684 1180q-211 65 -388 250.5t-177 551.5q0 381 198 577.5t445.5 252t491.5 55.5h930zM1745 1516v901h-332q-185 0 -360.5 -85t-175.5 -366q0 -192 128 -321t412 -129h328z" />
    <glyph glyph-name="afii10065" unicode="&#xe0;" horiz-adv-x="2380" 
d="M397 1577v438q352 139 779 139q411 0 618.5 -135.5t263.5 -309.5t56 -370v-1339h-545v311h-8q-104 -204 -294.5 -274t-369.5 -70q-266 0 -436 95t-244 242.5t-74 309.5q0 303 238 502t815 199h160q53 -4 151 -4h49l-4 90q-9 183 -141.5 273.5t-333.5 90.5
q-170 0 -330.5 -40.5t-349.5 -147.5zM1556 963h-94q-340 0 -546.5 -63t-206.5 -282q0 -117 80 -195.5t260 -78.5q141 0 255.5 56t183 183t68.5 326v54z" />
    <glyph glyph-name="afii10065" unicode="&#x430;" horiz-adv-x="2380" 
d="M397 1577v438q352 139 779 139q411 0 618.5 -135.5t263.5 -309.5t56 -370v-1339h-545v311h-8q-104 -204 -294.5 -274t-369.5 -70q-266 0 -436 95t-244 242.5t-74 309.5q0 303 238 502t815 199h160q53 -4 151 -4h49l-4 90q-9 183 -141.5 273.5t-333.5 90.5
q-170 0 -330.5 -40.5t-349.5 -147.5zM1556 963h-94q-340 0 -546.5 -63t-206.5 -282q0 -117 80 -195.5t260 -78.5q141 0 255.5 56t183 183t68.5 326v54z" />
    <glyph glyph-name="afii10066" unicode="&#xe1;" horiz-adv-x="2535" 
d="M2220 3191v-496q-255 -55 -598 -65q-219 -8 -380.5 -32.5t-312 -103.5t-245 -248.5t-94.5 -447.5v-184h16q49 136 144.5 249.5t257.5 186t393 72.5q313 0 537.5 -136.5t339 -378t114.5 -546.5q0 -384 -153 -630t-399 -355t-529 -109q-442 0 -700.5 202.5t-363 558.5
t-104.5 857q0 526 140.5 839t364.5 453.5t444.5 178.5t582.5 61q320 19 545 74zM795 1044q0 -299 131 -487t377 -188q244 0 375.5 188t131.5 487t-131.5 487.5t-375.5 188.5q-246 0 -377 -188t-131 -488z" />
    <glyph glyph-name="afii10066" unicode="&#x431;" horiz-adv-x="2535" 
d="M2220 3191v-496q-255 -55 -598 -65q-219 -8 -380.5 -32.5t-312 -103.5t-245 -248.5t-94.5 -447.5v-184h16q49 136 144.5 249.5t257.5 186t393 72.5q313 0 537.5 -136.5t339 -378t114.5 -546.5q0 -384 -153 -630t-399 -355t-529 -109q-442 0 -700.5 202.5t-363 558.5
t-104.5 857q0 526 140.5 839t364.5 453.5t444.5 178.5t582.5 61q320 19 545 74zM795 1044q0 -299 131 -487t377 -188q244 0 375.5 188t131.5 487t-131.5 487.5t-375.5 188.5q-246 0 -377 -188t-131 -488z" />
    <glyph glyph-name="afii10067" unicode="&#xe2;" horiz-adv-x="2314" 
d="M266 2122h1041q273 0 501 -102.5t228 -417.5q0 -199 -113.5 -320t-280.5 -156v-12q141 -11 250.5 -73t173.5 -176t64 -271q0 -175 -90 -309.5t-268.5 -209.5t-432.5 -75h-1073v2122zM823 1753v-459h344q316 0 316 230q0 229 -316 229h-344zM823 926v-557h357
q152 0 260 52.5t108 225.5q0 279 -372 279h-353z" />
    <glyph glyph-name="afii10067" unicode="&#x432;" horiz-adv-x="2314" 
d="M266 2122h1041q273 0 501 -102.5t228 -417.5q0 -199 -113.5 -320t-280.5 -156v-12q141 -11 250.5 -73t173.5 -176t64 -271q0 -175 -90 -309.5t-268.5 -209.5t-432.5 -75h-1073v2122zM823 1753v-459h344q316 0 316 230q0 229 -316 229h-344zM823 926v-557h357
q152 0 260 52.5t108 225.5q0 279 -372 279h-353z" />
    <glyph glyph-name="afii10068" unicode="&#xe3;" horiz-adv-x="1786" 
d="M266 2122h1479v-430h-922v-1692h-557v2122z" />
    <glyph glyph-name="afii10068" unicode="&#x433;" horiz-adv-x="1786" 
d="M266 2122h1479v-430h-922v-1692h-557v2122z" />
    <glyph glyph-name="afii10069" unicode="&#xe4;" horiz-adv-x="2621" 
d="M561 2122h1663v-1712h348v-963h-512v553h-1499v-553h-512v963h238q178 206 226 439.5t48 584.5v688zM827 410h840v1302h-614v-315v-107q0 -270 -42 -480t-184 -400z" />
    <glyph glyph-name="afii10069" unicode="&#x434;" horiz-adv-x="2621" 
d="M561 2122h1663v-1712h348v-963h-512v553h-1499v-553h-512v963h238q178 206 226 439.5t48 584.5v688zM827 410h840v1302h-614v-315v-107q0 -270 -42 -480t-184 -400z" />
    <glyph glyph-name="afii10070" unicode="&#xe5;" horiz-adv-x="2314" 
d="M2171 893h-1446q15 -235 181.5 -379.5t449.5 -144.5q331 0 663 147v-418q-351 -131 -733 -131q-224 0 -425.5 60.5t-365 191.5t-258 342.5t-94.5 499.5q0 308 131 558.5t370.5 392.5t547.5 142q260 0 481.5 -110t359.5 -365t138 -659v-127zM725 1274h872
q0 236 -125.5 365.5t-312.5 129.5q-129 0 -227.5 -70t-151.5 -185t-55 -240z" />
    <glyph glyph-name="afii10070" unicode="&#x435;" horiz-adv-x="2314" 
d="M2171 893h-1446q15 -235 181.5 -379.5t449.5 -144.5q331 0 663 147v-418q-351 -131 -733 -131q-224 0 -425.5 60.5t-365 191.5t-258 342.5t-94.5 499.5q0 308 131 558.5t370.5 392.5t547.5 142q260 0 481.5 -110t359.5 -365t138 -659v-127zM725 1274h872
q0 236 -125.5 365.5t-312.5 129.5q-129 0 -227.5 -70t-151.5 -185t-55 -240z" />
    <glyph glyph-name="afii10072" unicode="&#xe6;" horiz-adv-x="3318" 
d="M1380 2122h557v-946h21l635 946h635l-750 -971l819 -1151h-704l-635 1028h-21v-1028h-557v1028h-20l-635 -1028h-705l820 1151l-750 971h635l635 -946h20v946z" />
    <glyph glyph-name="afii10072" unicode="&#x436;" horiz-adv-x="3318" 
d="M1380 2122h557v-946h21l635 946h635l-750 -971l819 -1151h-704l-635 1028h-21v-1028h-557v1028h-20l-635 -1028h-705l820 1151l-750 971h635l635 -946h20v946z" />
    <glyph glyph-name="afii10073" unicode="&#xe7;" horiz-adv-x="2023" 
d="M590 913v390h287q311 0 311 217q0 97 -85 165t-276 68q-129 0 -294 -33t-316 -106l-8 405q195 71 357.5 103t355.5 32q465 0 648 -169t183 -388q0 -215 -110.5 -325.5t-253.5 -149.5v-8q172 -27 321.5 -138t149.5 -353q0 -173 -105 -323t-322 -241.5t-532 -91.5
q-412 0 -799 172l50 402q191 -89 384 -130.5t345 -41.5q165 0 281 73.5t116 212.5q0 113 -92.5 185.5t-304.5 72.5h-291z" />
    <glyph glyph-name="afii10073" unicode="&#x437;" horiz-adv-x="2023" 
d="M590 913v390h287q311 0 311 217q0 97 -85 165t-276 68q-129 0 -294 -33t-316 -106l-8 405q195 71 357.5 103t355.5 32q465 0 648 -169t183 -388q0 -215 -110.5 -325.5t-253.5 -149.5v-8q172 -27 321.5 -138t149.5 -353q0 -173 -105 -323t-322 -241.5t-532 -91.5
q-412 0 -799 172l50 402q191 -89 384 -130.5t345 -41.5q165 0 281 73.5t116 212.5q0 113 -92.5 185.5t-304.5 72.5h-291z" />
    <glyph glyph-name="afii10074" unicode="&#xe8;" horiz-adv-x="2617" 
d="M266 2122h557v-1114l-16 -381h8l914 1495h622v-2122h-557v1098l16 397h-12l-938 -1495h-594v2122z" />
    <glyph glyph-name="afii10074" unicode="&#x438;" horiz-adv-x="2617" 
d="M266 2122h557v-1114l-16 -381h8l914 1495h622v-2122h-557v1098l16 397h-12l-938 -1495h-594v2122z" />
    <glyph glyph-name="afii10075" unicode="&#xe9;" horiz-adv-x="2617" 
d="M266 2122h557v-1114l-16 -381h8l914 1495h622v-2122h-557v1098l16 397h-12l-938 -1495h-594v2122zM1798 3121l205 -225q-214 -402 -676 -402q-458 0 -676 402l205 188q168 -192 471 -192q323 0 471 229z" />
    <glyph glyph-name="afii10075" unicode="&#x439;" horiz-adv-x="2617" 
d="M266 2122h557v-1114l-16 -381h8l914 1495h622v-2122h-557v1098l16 397h-12l-938 -1495h-594v2122zM1798 3121l205 -225q-214 -402 -676 -402q-458 0 -676 402l205 188q168 -192 471 -192q323 0 471 229z" />
    <glyph glyph-name="afii10076" unicode="&#xea;" horiz-adv-x="2277" 
d="M266 2122h557v-963h21l680 963h622l-786 -1004l897 -1118h-701l-712 1016h-21v-1016h-557v2122z" />
    <glyph glyph-name="afii10076" unicode="&#x43a;" horiz-adv-x="2277" 
d="M266 2122h557v-963h21l680 963h622l-786 -1004l897 -1118h-701l-712 1016h-21v-1016h-557v2122z" />
    <glyph glyph-name="afii10077" unicode="&#xeb;" horiz-adv-x="2396" 
d="M422 2122h1708v-2122h-557v1712h-655v-471q0 -404 -22 -638t-87 -373t-195 -201t-356 -62q-140 0 -238 33l25 426q77 -25 131 -25q157 0 201.5 161t44.5 495v184v881z" />
    <glyph glyph-name="afii10077" unicode="&#x43b;" horiz-adv-x="2396" 
d="M422 2122h1708v-2122h-557v1712h-655v-471q0 -404 -22 -638t-87 -373t-195 -201t-356 -62q-140 0 -238 33l25 426q77 -25 131 -25q157 0 201.5 161t44.5 495v184v881z" />
    <glyph glyph-name="afii10078" unicode="&#xec;" horiz-adv-x="3240" 
d="M1884 0h-528l-418 1245l-107 344h-20l12 -381v-1208h-557v2122h778l439 -1213l119 -377h36l119 377l438 1213h779v-2122h-557v1208l12 381h-21l-106 -344z" />
    <glyph glyph-name="afii10078" unicode="&#x43c;" horiz-adv-x="3240" 
d="M1884 0h-528l-418 1245l-107 344h-20l12 -381v-1208h-557v2122h778l439 -1213l119 -377h36l119 377l438 1213h779v-2122h-557v1208l12 381h-21l-106 -344z" />
    <glyph glyph-name="afii10079" unicode="&#xed;" horiz-adv-x="2540" 
d="M266 2122h557v-803h893v803h557v-2122h-557v909h-893v-909h-557v2122z" />
    <glyph glyph-name="afii10079" unicode="&#x43d;" horiz-adv-x="2540" 
d="M266 2122h557v-803h893v803h557v-2122h-557v909h-893v-909h-557v2122z" />
    <glyph glyph-name="afii10080" unicode="&#xee;" horiz-adv-x="2478" 
d="M143 1061q0 493 292 793t806 300q258 0 461.5 -77.5t344 -222t214.5 -347t74 -446.5q0 -325 -130 -573t-377.5 -384.5t-586.5 -136.5q-342 0 -590 137.5t-378 384.5t-130 572zM725 1061q0 -217 67.5 -374t185.5 -237.5t263 -80.5q221 0 366.5 182.5t145.5 509.5
q0 329 -145.5 510.5t-366.5 181.5q-145 0 -263 -81t-185.5 -237t-67.5 -374z" />
    <glyph glyph-name="afii10080" unicode="&#x43e;" horiz-adv-x="2478" 
d="M143 1061q0 493 292 793t806 300q258 0 461.5 -77.5t344 -222t214.5 -347t74 -446.5q0 -325 -130 -573t-377.5 -384.5t-586.5 -136.5q-342 0 -590 137.5t-378 384.5t-130 572zM725 1061q0 -217 67.5 -374t185.5 -237.5t263 -80.5q221 0 366.5 182.5t145.5 509.5
q0 329 -145.5 510.5t-366.5 181.5q-145 0 -263 -81t-185.5 -237t-67.5 -374z" />
    <glyph glyph-name="afii10081" unicode="&#xef;" horiz-adv-x="2507" 
d="M266 2122h1975v-2122h-558v1712h-860v-1712h-557v2122z" />
    <glyph glyph-name="afii10081" unicode="&#x43f;" horiz-adv-x="2507" 
d="M266 2122h1975v-2122h-558v1712h-860v-1712h-557v2122z" />
    <glyph glyph-name="afii10082" unicode="&#xf0;" 
d="M823 -877h-557v2999h488v-369h8q107 184 284.5 292.5t407.5 108.5q270 0 472.5 -123.5t311.5 -370t109 -599.5q0 -298 -81 -511t-216.5 -341.5t-294 -185t-325.5 -56.5q-400 0 -611 320h-8l12 -348v-816zM823 1061q0 -201 62.5 -348.5t170.5 -225t238 -77.5
q199 0 335 175.5t136 475.5q0 198 -63.5 346.5t-171 226.5t-236.5 78q-130 0 -238 -77.5t-170.5 -225t-62.5 -348.5z" />
    <glyph glyph-name="afii10082" unicode="&#x440;" 
d="M823 -877h-557v2999h488v-369h8q107 184 284.5 292.5t407.5 108.5q270 0 472.5 -123.5t311.5 -370t109 -599.5q0 -298 -81 -511t-216.5 -341.5t-294 -185t-325.5 -56.5q-400 0 -611 320h-8l12 -348v-816zM823 1061q0 -201 62.5 -348.5t170.5 -225t238 -77.5
q199 0 335 175.5t136 475.5q0 198 -63.5 346.5t-171 226.5t-236.5 78q-130 0 -238 -77.5t-170.5 -225t-62.5 -348.5z" />
    <glyph glyph-name="afii10083" unicode="&#xf1;" horiz-adv-x="1896" 
d="M1761 2097l-32 -401q-141 57 -345 57q-197 0 -347.5 -93t-231 -254.5t-80.5 -352.5q0 -205 81 -360.5t223.5 -239.5t318.5 -84q239 0 426 86l20 -406q-254 -82 -545 -82q-381 0 -630 166.5t-362.5 423.5t-113.5 524q0 271 123.5 516t383 401t640.5 156q245 0 471 -57z
" />
    <glyph glyph-name="afii10083" unicode="&#x441;" horiz-adv-x="1896" 
d="M1761 2097l-32 -401q-141 57 -345 57q-197 0 -347.5 -93t-231 -254.5t-80.5 -352.5q0 -205 81 -360.5t223.5 -239.5t318.5 -84q239 0 426 86l20 -406q-254 -82 -545 -82q-381 0 -630 166.5t-362.5 423.5t-113.5 524q0 271 123.5 516t383 401t640.5 156q245 0 471 -57z
" />
    <glyph glyph-name="afii10084" unicode="&#xf2;" horiz-adv-x="1966" 
d="M41 2122h1884v-410h-663v-1712h-557v1712h-664v410z" />
    <glyph glyph-name="afii10084" unicode="&#x442;" horiz-adv-x="1966" 
d="M41 2122h1884v-410h-663v-1712h-557v1712h-664v410z" />
    <glyph glyph-name="afii10085" unicode="&#xf3;" horiz-adv-x="2257" 
d="M12 2122h615l397 -1172l119 -405h20l131 422l385 1155h566l-897 -2380q-79 -205 -158 -333.5t-250.5 -221t-460.5 -92.5q-154 0 -323 57l41 414q107 -45 217 -45q155 0 244 54.5t141 182.5l49 123z" />
    <glyph glyph-name="afii10085" unicode="&#x443;" horiz-adv-x="2257" 
d="M12 2122h615l397 -1172l119 -405h20l131 422l385 1155h566l-897 -2380q-79 -205 -158 -333.5t-250.5 -221t-460.5 -92.5q-154 0 -323 57l41 414q107 -45 217 -45q155 0 244 54.5t141 182.5l49 123z" />
    <glyph glyph-name="afii10086" unicode="&#xf4;" horiz-adv-x="3391" 
d="M1417 2867h557v-807q183 94 398 94q217 0 418 -110.5t329.5 -356t128.5 -626.5q0 -383 -128.5 -629t-329.5 -355.5t-418 -109.5q-228 0 -398 90v-934h-557v934q-168 -90 -397 -90q-218 0 -419 109.5t-329.5 355.5t-128.5 629q0 381 128.5 626.5t329.5 356t419 110.5
q215 0 397 -94v807zM1974 1659v-1196q111 -70 267 -70q187 0 306 173t119 495t-118.5 495t-306.5 173q-156 0 -267 -70zM1417 463v1196q-111 70 -266 70q-187 0 -306.5 -173t-119.5 -495t119.5 -495t306.5 -173q155 0 266 70z" />
    <glyph glyph-name="afii10086" unicode="&#x444;" horiz-adv-x="3391" 
d="M1417 2867h557v-807q183 94 398 94q217 0 418 -110.5t329.5 -356t128.5 -626.5q0 -383 -128.5 -629t-329.5 -355.5t-418 -109.5q-228 0 -398 90v-934h-557v934q-168 -90 -397 -90q-218 0 -419 109.5t-329.5 355.5t-128.5 629q0 381 128.5 626.5t329.5 356t419 110.5
q215 0 397 -94v807zM1974 1659v-1196q111 -70 267 -70q187 0 306 173t119 495t-118.5 495t-306.5 173q-156 0 -267 -70zM1417 463v1196q-111 70 -266 70q-187 0 -306.5 -173t-119.5 -495t119.5 -495t306.5 -173q155 0 266 70z" />
    <glyph glyph-name="afii10087" unicode="&#xf5;" horiz-adv-x="2322" 
d="M102 2122h664l295 -496l123 -242h12l127 250l279 488h618l-651 -1028l712 -1094h-663l-352 565l-127 238h-13l-131 -246l-336 -557h-618l713 1094z" />
    <glyph glyph-name="afii10087" unicode="&#x445;" horiz-adv-x="2322" 
d="M102 2122h664l295 -496l123 -242h12l127 250l279 488h618l-651 -1028l712 -1094h-663l-352 565l-127 238h-13l-131 -246l-336 -557h-618l713 1094z" />
    <glyph glyph-name="afii10088" unicode="&#xf6;" horiz-adv-x="2679" 
d="M266 2122h557v-1712h889v1712h557v-1712h348v-963h-512v553h-1839v2122z" />
    <glyph glyph-name="afii10088" unicode="&#x446;" horiz-adv-x="2679" 
d="M266 2122h557v-1712h889v1712h557v-1712h348v-963h-512v553h-1839v2122z" />
    <glyph glyph-name="afii10089" unicode="&#xf7;" horiz-adv-x="2335" 
d="M184 2122h557v-676q0 -136 65.5 -221.5t274.5 -85.5q244 0 430 53v930h557v-2122h-557v782q-285 -53 -528 -53q-262 0 -426 59t-244 154.5t-104.5 201.5t-24.5 232v746z" />
    <glyph glyph-name="afii10089" unicode="&#x447;" horiz-adv-x="2335" 
d="M184 2122h557v-676q0 -136 65.5 -221.5t274.5 -85.5q244 0 430 53v930h557v-2122h-557v782q-285 -53 -528 -53q-262 0 -426 59t-244 154.5t-104.5 201.5t-24.5 232v746z" />
    <glyph glyph-name="afii10090" unicode="&#xf8;" horiz-adv-x="3572" 
d="M266 2122h557v-1712h684v1712h557v-1712h684v1712h557v-2122h-3039v2122z" />
    <glyph glyph-name="afii10090" unicode="&#x448;" horiz-adv-x="3572" 
d="M266 2122h557v-1712h684v1712h557v-1712h684v1712h557v-2122h-3039v2122z" />
    <glyph glyph-name="afii10091" unicode="&#xf9;" horiz-adv-x="3723" 
d="M266 2122h557v-1712h684v1712h557v-1712h684v1712h557v-1712h357v-963h-512v553h-2884v2122z" />
    <glyph glyph-name="afii10091" unicode="&#x449;" horiz-adv-x="3723" 
d="M266 2122h557v-1712h684v1712h557v-1712h684v1712h557v-1712h357v-963h-512v553h-2884v2122z" />
    <glyph glyph-name="afii10092" unicode="&#xfa;" horiz-adv-x="2527" 
d="M20 2122h1102v-754h430q350 0 549.5 -107t271.5 -260t72 -317q0 -283 -208 -483.5t-644 -200.5h-1028v1712h-545v410zM1122 999v-630h348q191 0 292.5 88t101.5 227q0 141 -98.5 228t-295.5 87h-348z" />
    <glyph glyph-name="afii10092" unicode="&#x44a;" horiz-adv-x="2527" 
d="M20 2122h1102v-754h430q350 0 549.5 -107t271.5 -260t72 -317q0 -283 -208 -483.5t-644 -200.5h-1028v1712h-545v410zM1122 999v-630h348q191 0 292.5 88t101.5 227q0 141 -98.5 228t-295.5 87h-348z" />
    <glyph glyph-name="afii10093" unicode="&#xfb;" horiz-adv-x="3297" 
d="M2474 2122h557v-2122h-557v2122zM266 2122h557v-754h430q161 0 355 -39t366 -192t172 -453q0 -283 -208 -483.5t-644 -200.5h-1028v2122zM823 999v-630h348q196 0 295 95t99 220t-98 220t-296 95h-348z" />
    <glyph glyph-name="afii10093" unicode="&#x44b;" horiz-adv-x="3297" 
d="M2474 2122h557v-2122h-557v2122zM266 2122h557v-754h430q161 0 355 -39t366 -192t172 -453q0 -283 -208 -483.5t-644 -200.5h-1028v2122zM823 999v-630h348q196 0 295 95t99 220t-98 220t-296 95h-348z" />
    <glyph glyph-name="afii10094" unicode="&#xfc;" horiz-adv-x="2208" 
d="M246 2122h557v-754h430q350 0 549.5 -107t271.5 -260t72 -317q0 -283 -208 -483.5t-644 -200.5h-1028v2122zM803 999v-630h348q196 0 294.5 94.5t98.5 220.5q0 127 -97 221t-296 94h-348z" />
    <glyph glyph-name="afii10094" unicode="&#x44c;" horiz-adv-x="2208" 
d="M246 2122h557v-754h430q350 0 549.5 -107t271.5 -260t72 -317q0 -283 -208 -483.5t-644 -200.5h-1028v2122zM803 999v-630h348q196 0 294.5 94.5t98.5 220.5q0 127 -97 221t-296 94h-348z" />
    <glyph glyph-name="afii10095" unicode="&#xfd;" horiz-adv-x="1999" 
d="M455 909v385h819q-35 172 -145 272.5t-254 139.5t-302 39q-180 0 -389 -90l-32 401q286 98 475 98q378 0 657 -137t425 -381t146 -555q0 -313 -133 -567t-396 -400.5t-630 -146.5q-309 0 -594 119l41 410q252 -119 463 -119q205 0 351 68.5t225.5 189t91.5 274.5h-819z
" />
    <glyph glyph-name="afii10095" unicode="&#x44d;" horiz-adv-x="1999" 
d="M455 909v385h819q-35 172 -145 272.5t-254 139.5t-302 39q-180 0 -389 -90l-32 401q286 98 475 98q378 0 657 -137t425 -381t146 -555q0 -313 -133 -567t-396 -400.5t-630 -146.5q-309 0 -594 119l41 410q252 -119 463 -119q205 0 351 68.5t225.5 189t91.5 274.5h-819z
" />
    <glyph glyph-name="afii10096" unicode="&#xfe;" horiz-adv-x="3473" 
d="M823 1270h328q27 261 170 461.5t380.5 311.5t534.5 111q511 0 802.5 -301.5t291.5 -791.5q0 -320 -129.5 -568.5t-377.5 -387t-587 -138.5q-279 0 -519 106.5t-392 315.5t-174 496h-328v-885h-557v2122h557v-852zM1720 1061q0 -219 68 -375.5t185.5 -236.5t262.5 -80
q221 0 366.5 182.5t145.5 509.5q0 329 -145.5 510.5t-366.5 181.5q-145 0 -262.5 -80.5t-185.5 -236.5t-68 -375z" />
    <glyph glyph-name="afii10096" unicode="&#x44e;" horiz-adv-x="3473" 
d="M823 1270h328q27 261 170 461.5t380.5 311.5t534.5 111q511 0 802.5 -301.5t291.5 -791.5q0 -320 -129.5 -568.5t-377.5 -387t-587 -138.5q-279 0 -519 106.5t-392 315.5t-174 496h-328v-885h-557v2122h557v-852zM1720 1061q0 -219 68 -375.5t185.5 -236.5t262.5 -80
q221 0 366.5 182.5t145.5 509.5q0 329 -145.5 510.5t-366.5 181.5q-145 0 -262.5 -80.5t-185.5 -236.5t-68 -375z" />
    <glyph glyph-name="afii10097" unicode="&#xff;" horiz-adv-x="2298" 
d="M2032 2122v-2122h-557v799h-250l-418 -799h-664l533 864q-178 43 -288.5 145t-155 225t-44.5 249q0 161 88.5 309t259 239t398.5 91h1098zM1475 1753h-369q-149 0 -242.5 -83t-93.5 -216q0 -125 97 -212t239 -87h369v598z" />
    <glyph glyph-name="afii10097" unicode="&#x44f;" horiz-adv-x="2298" 
d="M2032 2122v-2122h-557v799h-250l-418 -799h-664l533 864q-178 43 -288.5 145t-155 225t-44.5 249q0 161 88.5 309t259 239t398.5 91h1098zM1475 1753h-369q-149 0 -242.5 -83t-93.5 -216q0 -125 97 -212t239 -87h369v598z" />
    <glyph glyph-name="nonbreakingspace" unicode="&#xa0;" horiz-adv-x="1405" 
 />
  </font>
</defs>
</svg>
