<svg data-name="Слой 1" xmlns="http://www.w3.org/2000/svg" viewBox="0 0 198.43 102.05"><defs><clipPath id="a"><path fill="none" d="M0 0h198.43v102.05H0z"/></clipPath></defs><title>FUCHS_Logo-Claim_COLOR_RGB</title><path fill="#fff" d="M0 0h198.43v102.05H0z"/><g clip-path="url(#a)"><path d="M139.77 59.25a16.28 16.28 0 0 1-5 .57c-4.65 0-8.79-3.36-7.31-9.79 1.36-5.92 5.66-7.8 11.21-7.8a12.25 12.25 0 0 1 4.8.83l-.94 3.72a7.2 7.2 0 0 0-4-1.13c-3.3 0-5.63 1.39-6.36 4.56-.77 3.34.78 6.13 4.18 6.13a12.06 12.06 0 0 0 4.38-.68zm21.61 0a17.74 17.74 0 0 0 4.63.61c3.87 0 7.95-1.19 9-5.6 1.41-6.14-7.27-4.29-6.63-7 .34-1.49 2.31-1.58 3.49-1.58a8.47 8.47 0 0 1 3.55.71l.83-3.58a14.61 14.61 0 0 0-3.93-.49c-3.5 0-7.86 1.12-8.8 5.22-1.42 6.19 7.29 4.19 6.56 7.36-.31 1.37-1.78 1.66-3.26 1.66a9 9 0 0 1-4.51-1.1zm-18.54.31h4.65l1.67-7.28h5.5L153 59.53h4.65l3.91-17h-4.66L155.41 49h-5.5l1.49-6.51h-4.65zm-16.76-17h-4.65l-2.25 9.8c-.52 2.24-1.58 4.14-4 4.14s-2.56-1.9-2-4.14l2.25-9.8h-4.65l-2.43 10.55c-1.07 4.65 1.55 6.75 6.1 6.75s8.13-2.09 9.2-6.75zM92 59.53h4.65l1.58-6.85H105l.74-3.22H99l.86-3.73h7l.74-3.22H95.92z" fill="#004e9e" fill-rule="evenodd"/></g><g clip-path="url(#a)"><path d="M47.5 60.79a2.18 2.18 0 0 0 2.5-2.11c0-1.45-1.48-1.51-2.56-1.51h-1L45.19 63h1.17l.47-2.21zm.27-2.7c.5 0 1 .13 1 .72s-.66 1.06-1.3 1.06H47l.38-1.78zM50.39 63l1.23-5.83h3.43l-.18.92h-2.28l-.3 1.44h2l-.18.92h-2l-.34 1.64h2.31l-.2.92zm8.53-5.93a3.06 3.06 0 0 0-2.4 1.09 3.89 3.89 0 0 0-.92 2.52 2.24 2.24 0 0 0 2.3 2.42 3.22 3.22 0 0 0 2.47-1 3.89 3.89 0 0 0 1-2.58 2.22 2.22 0 0 0-2.43-2.47m0 .92a1.26 1.26 0 0 1 1.25 1.43c0 1.16-.74 2.76-2.08 2.76-.84 0-1.23-.67-1.23-1.44 0-1.18.7-2.76 2.06-2.76m5.52 2.8a2.18 2.18 0 0 0 2.47-2.11c0-1.45-1.48-1.51-2.56-1.51h-1L62.09 63h1.17l.47-2.21zm.27-2.7c.5 0 1 .13 1 .72s-.66 1.06-1.3 1.06h-.42l.38-1.78zM67.2 63l1.24-5.83h1.17l-1 4.91h2.29l-.2.92zm4.64 0l1.23-5.83h3.43l-.18.92H74l-.3 1.44h2l-.18.92h-2l-.34 1.64h2.31l-.2.92zM77 63l.24-1.17h1.17L78.13 63zM22.45 49l.2-.92h4.5L27 49h-1.69l-1.06 4.91H23L24.09 49zm8.1 4.91l.2-.92h-2.31l.34-1.64h2l.18-.92H29l.3-1.44h2.28l.18-.92H28.3l-1.23 5.83zm6.81-5.65a4.64 4.64 0 0 0-1.71-.26 3.13 3.13 0 0 0-3.34 3.27 2.48 2.48 0 0 0 2.6 2.73 5.09 5.09 0 0 0 1.32-.16l.18-1.12a2.34 2.34 0 0 1-1.23.36 1.72 1.72 0 0 1-1.66-1.85 2.19 2.19 0 0 1 2.21-2.35 2.37 2.37 0 0 1 1.34.34zm1.35 5.65l.53-2.56h2.36l-.53 2.56h1.17l1.22-5.83h-1.17l-.49 2.36h-2.36l.49-2.36h-1.16l-1.22 5.83zm6.39 0l.9-4.45 1.22 4.47h1.5L50 48.1h-1.1l-1 4.43-1.18-4.43h-1.48L44 53.93zm11.43-3.46a3.89 3.89 0 0 1-1 2.58 3.23 3.23 0 0 1-2.47 1 2.23 2.23 0 0 1-2.3-2.42 3.88 3.88 0 0 1 .92-2.52A3.06 3.06 0 0 1 54.11 48a2.22 2.22 0 0 1 2.43 2.47M52 51.68c0 .76.38 1.44 1.23 1.44 1.34 0 2.08-1.6 2.08-2.77a1.26 1.26 0 0 0-1.24-1.43c-1.36 0-2.06 1.58-2.06 2.76m8.74 2.26L61 53h-2.33l1-4.91h-1.13l-1.24 5.84zm6.79-3.46a3.89 3.89 0 0 1-1 2.58 3.23 3.23 0 0 1-2.47 1 2.23 2.23 0 0 1-2.3-2.42 3.89 3.89 0 0 1 .92-2.52A3.06 3.06 0 0 1 65.12 48a2.22 2.22 0 0 1 2.43 2.47M63 51.68c0 .76.38 1.44 1.23 1.44 1.34 0 2.08-1.6 2.08-2.77a1.26 1.26 0 0 0-1.24-1.43c-1.36 0-2.06 1.58-2.06 2.76m11-3.35a5.49 5.49 0 0 0-1.92-.33 3.24 3.24 0 0 0-3.5 3.44c0 1.8 1.14 2.59 2.86 2.59a4.71 4.71 0 0 0 1.55-.25l.67-3.18h-2.36l-.19.92h1.24L72 53.06a1.55 1.55 0 0 1-.58.06 1.62 1.62 0 0 1-1.65-1.7 2.32 2.32 0 0 1 2.31-2.49 3 3 0 0 1 1.62.42zm2.86 5.6l.51-2.41 2.82-3.42h-1.33L77 50.55l-.9-2.45h-1.23l1.37 3.42-.51 2.41zm3.74 0l.24-1.17h-1.14l-.24 1.17zm-52-9.06L29.82 39H31l-1 4.91h2.29l-.2.92zm4.87-2.66c-.34 1.66.13 2.76 2 2.76 1.62 0 2.32-.91 2.66-2.4l.78-3.57h-1.15l-.63 3c-.21 1-.44 2.06-1.64 2.06s-1-1.43-.79-2.25L35.3 39h-1.17zm5.9 2.66l1.2-5.87h1.73c.91 0 1.76.33 1.76 1.39a1.45 1.45 0 0 1-1.24 1.39 1.11 1.11 0 0 1 .94 1.23c0 1.67-1.87 1.8-2.74 1.8zm1.62-2.6L40.67 44h.4c.72 0 1.52-.08 1.52-1 0-.61-.57-.7-1.19-.7zm.51-2.27l-.31 1.4h.46c.59 0 1.24-.17 1.24-.85s-.53-.58-1-.58zm3.3 4.91L46 39h1.38c1.08 0 2.32 0 2.32 1.38A1.55 1.55 0 0 1 48 42a.62.62 0 0 1 .59.53l.56 2.35H48l-.28-1.37c-.13-.62-.1-1.05-.74-1.05h-.44L46 44.87zm1.89-3.34h.43c.63 0 1.39-.19 1.39-1 0-.61-.53-.61-1-.61H47zm4.94 3.34L52.86 39h-1.21l-1.23 5.83zm7-5.65a4.66 4.66 0 0 0-1.64-.32 3.13 3.13 0 0 0-3.34 3.27A2.48 2.48 0 0 0 56.23 45a5 5 0 0 0 1.32-.16l.18-1.12a2.34 2.34 0 0 1-1.23.36 1.72 1.72 0 0 1-1.66-1.85 2.19 2.19 0 0 1 2.21-2.35 2.35 2.35 0 0 1 1.34.34zm3.62.85l-1.4 2.54h1.81l-.37-2.54zm-4 4.79l3.62-5.9h1.3l1.06 5.83h-1.18l-.2-1.34h-2.48l-.74 1.34zm8 0l.93-4.47 1.22 4.47H70l1.26-5.9h-1.1l-1 4.43L67.94 39h-1.48l-1.25 5.83zm7.58-4.9l-1.06 4.91H74L75.06 40h1.64l.19-.92h-4.5l-.2.92zm7.34-.76a4.06 4.06 0 0 0-1.51-.26c-1.12 0-2.17.53-2.17 1.76 0 1.55 2 1.39 2 2.44 0 .63-.55.91-1.11.91a3.45 3.45 0 0 1-1.43-.4l-.3 1a4.94 4.94 0 0 0 1.64.31c1.28 0 2.4-.52 2.4-1.95 0-1.62-2-1.56-2-2.5 0-.5.56-.67 1-.67a2.76 2.76 0 0 1 1.21.3zm1.93 5.67l.24-1.17h-1.17l-.24 1.17z" fill="#004e9e"/></g><g clip-path="url(#a)" fill-rule="evenodd"><path d="M142.47 17a20.84 20.84 0 0 1 6.6.82l-1.77 7.1a24.58 24.58 0 0 0-6.6-.88c-11.21 0-22.06 5.88-28.88 14.54C116.51 26.33 129.33 17 142.47 17m14.33 46.46C150 72.13 139.14 78 127.93 78a24.55 24.55 0 0 1-6.6-.88l-1.77 7.1a20.86 20.86 0 0 0 6.6.82c13.14 0 26-9.32 30.64-21.58" fill="#004e9e"/><path d="M161.94 40.4c-3.75-5.22-11.21-8-19-8a29.06 29.06 0 0 0-12.24 2.56l1.74-7.48a25.16 25.16 0 0 1 7.56-1.2c10.74 0 19 5.88 22 14.13m-33.3 35.37a25.18 25.18 0 0 0 7.56-1.19L138 67.1a29.05 29.05 0 0 1-12.24 2.56c-7.82 0-15.27-2.8-19-8 2.93 8.25 11.22 14.13 22 14.13" fill="#e3000f"/></g></svg>