<svg xmlns="http://www.w3.org/2000/svg" viewBox="0 0 60 60" width="512" height="512"><g fill="#FFF"><path style="transform:translateY(4px)" d="M46.414 26l7.293-7.293a.999.999 0 1 0-1.414-1.414L45 24.586l-7.293-7.293a.999.999 0 1 0-1.414 1.414L43.586 26l-7.293 7.293a.999.999 0 1 0 1.414 1.414L45 27.414l7.293 7.293a.997.997 0 0 0 1.414 0 .999.999 0 0 0 0-1.414L46.414 26z"/><path d="M28.404 7.758a3.029 3.029 0 0 0-3.09.044.929.929 0 0 0-.13.093l-13.55 11.463H1a1 1 0 0 0-1 1v19a1.002 1.002 0 0 0 1 1l10.61-.005 13.543 12.44c.05.046.104.086.161.12a3.055 3.055 0 0 0 1.582.446 3.07 3.07 0 0 0 1.508-.402A3.122 3.122 0 0 0 30 50.201V10.514a3.125 3.125 0 0 0-1.596-2.756zM28 50.201c0 .431-.217.81-.579 1.015a1.049 1.049 0 0 1-1 .026L13 38.913v-4.556a1 1 0 1 0-2 0v3.996l-9 .004v-17h9v4a1 1 0 1 0 2 0v-4.536l13.405-11.34c.461-.242.861-.07 1.016.018.362.205.579.584.579 1.015v39.687z"/></g></svg>