<?xml version="1.0" encoding="utf-8"?>
<!-- Generator: Adobe Illustrator 15.0.0, SVG Export Plug-In . SVG Version: 6.00 Build 0)  -->
<!DOCTYPE svg PUBLIC "-//W3C//DTD SVG 1.1//EN" "http://www.w3.org/Graphics/SVG/1.1/DTD/svg11.dtd">
<svg version="1.1" id="Слой_1" xmlns="http://www.w3.org/2000/svg" xmlns:xlink="http://www.w3.org/1999/xlink" x="0px" y="0px"
	 width="612px" height="272px" viewBox="0 259.5 612 272" enable-background="new 0 259.5 612 272" xml:space="preserve">
<title>FUCHS_Logo-Claim_COLOR_RGB</title>
<g>
	<g>
		<defs>
			<rect id="SVGID_1_" y="238.628" width="612" height="314.744"/>
		</defs>
		<clipPath id="SVGID_2_">
			<use xlink:href="#SVGID_1_"  overflow="visible"/>
		</clipPath>
		<g clip-path="url(#SVGID_2_)">
			<path fill="#004E9E" d="M431.08,421.367c-5.019,1.382-10.221,1.976-15.421,1.759c-14.342,0-27.11-10.362-22.546-30.195
				c4.194-18.258,17.457-24.057,34.574-24.057c5.057-0.146,10.091,0.724,14.805,2.56l-2.899,11.474
				c-3.681-2.35-7.972-3.562-12.337-3.485c-10.178,0-17.364,4.287-19.615,14.064c-2.375,10.301,2.405,18.906,12.893,18.906
				c4.594,0.143,9.174-0.568,13.509-2.098L431.08,421.367z M497.73,421.367c4.655,1.254,9.457,1.887,14.278,1.882
				c11.937,0,24.521-3.671,27.758-17.271c4.35-18.938-22.422-13.231-20.447-21.59c1.049-4.595,7.125-4.873,10.764-4.873
				c3.766-0.067,7.5,0.68,10.949,2.19l2.56-11.042c-3.952-1.051-8.03-1.56-12.12-1.511c-10.795,0-24.241,3.455-27.142,16.1
				c-4.379,19.092,22.484,12.922,20.232,22.7c-0.956,4.226-5.489,5.12-10.056,5.12c-4.854,0.104-9.648-1.065-13.909-3.393
				L497.73,421.367z M440.549,422.323h14.342l5.15-22.452h16.963l-5.119,22.36h14.341l12.061-52.433h-14.372l-4.596,19.955h-16.963
				l4.595-20.078h-14.341L440.549,422.323z M388.857,369.892h-14.343l-6.938,30.225c-1.604,6.908-4.873,12.77-12.337,12.77
				s-7.896-5.861-6.168-12.77l6.938-30.225h-14.342l-7.495,32.54c-3.3,14.34,4.781,20.817,18.814,20.817
				c14.032,0,25.073-6.446,28.374-20.817L388.857,369.892z M283.748,422.231h14.341l4.873-21.128h20.88l2.282-9.931h-20.787
				l2.652-11.504h21.59l2.282-9.931h-36.024L283.748,422.231z"/>
		</g>
	</g>
</g>
<g>
	<g>
		<defs>
			<rect id="SVGID_3_" y="238.628" width="612" height="314.744"/>
		</defs>
		<clipPath id="SVGID_4_">
			<use xlink:href="#SVGID_3_"  overflow="visible"/>
		</clipPath>
		<g clip-path="url(#SVGID_4_)">
			<path fill="#004E9E" d="M146.5,426.117c3.673,0.546,7.093-1.989,7.639-5.662c0.042-0.279,0.065-0.563,0.071-0.846
				c0-4.473-4.564-4.656-7.896-4.656h-3.084l-3.855,17.979h3.608l1.45-6.815H146.5z M147.333,417.79
				c1.542,0,3.084,0.401,3.084,2.222c0,1.819-2.036,3.27-4.009,3.27h-1.45l1.172-5.49L147.333,417.79L147.333,417.79z
				 M155.414,432.934l3.793-17.979h10.579l-0.555,2.837h-7.032l-0.925,4.441h6.168l-0.555,2.837h-6.168l-1.049,5.059h7.125
				l-0.617,2.837L155.414,432.934z M181.722,414.645c-2.848-0.055-5.568,1.183-7.402,3.361c-1.838,2.172-2.843,4.927-2.838,7.772
				c-0.308,3.803,2.525,7.136,6.328,7.443c0.254,0.021,0.51,0.026,0.766,0.021c2.866,0.12,5.643-1.005,7.618-3.085
				c1.969-2.186,3.066-5.017,3.084-7.957c0.446-3.755-2.237-7.16-5.993-7.605c-0.499-0.06-1.002-0.063-1.502-0.013 M181.783,417.42
				c2.146-0.003,3.888,1.734,3.891,3.881c0,0.179-0.012,0.354-0.036,0.529c0,3.578-2.282,8.513-6.415,8.513
				c-2.591,0-3.794-2.065-3.794-4.44c0-3.641,2.159-8.514,6.354-8.514 M198.808,426.024c3.68,0.494,7.065-2.088,7.56-5.768
				c0.033-0.246,0.052-0.493,0.058-0.739c0-4.474-4.564-4.658-7.896-4.658h-3.084l-3.948,18.073h3.609l1.449-6.815L198.808,426.024z
				 M199.641,417.697c1.542,0,3.084,0.4,3.084,2.221c0,1.819-2.036,3.271-4.009,3.271h-1.295l1.172-5.49L199.641,417.697
				L199.641,417.697z M207.259,432.934l3.825-17.979h3.608l-3.084,15.143h7.063l-0.617,2.838L207.259,432.934L207.259,432.934z
				 M221.57,432.934l3.793-17.979h10.579l-0.555,2.837h-7.156l-0.925,4.441h6.168l-0.555,2.837h-6.168l-1.048,5.059h7.125
				l-0.617,2.837L221.57,432.934z M237.484,432.934l0.74-3.607h3.608l-0.864,3.607H237.484z M69.241,389.754l0.617-2.837h13.879
				l-0.462,2.837h-5.212l-3.27,15.145h-3.855l3.362-15.145H69.241z M94.223,404.898l0.617-2.838h-7.125l1.049-5.06h6.168
				l0.555-2.837h-6.045l0.925-4.441h7.032l0.555-2.837H87.283l-3.793,17.981L94.223,404.898z M115.226,387.472
				c-1.692-0.596-3.481-0.868-5.274-0.802c-5.319-0.364-9.926,3.653-10.29,8.973c-0.025,0.37-0.029,0.742-0.012,1.113
				c-0.432,4.202,2.625,7.959,6.827,8.391c0.396,0.041,0.795,0.051,1.192,0.029c1.373,0.014,2.741-0.152,4.071-0.494l0.555-3.453
				c-1.136,0.715-2.45,1.101-3.793,1.109c-2.928-0.094-5.226-2.543-5.132-5.472c0.002-0.078,0.007-0.156,0.013-0.233
				c-0.273-3.721,2.522-6.958,6.242-7.231c0.191-0.014,0.382-0.02,0.574-0.018c1.451-0.069,2.89,0.296,4.133,1.049L115.226,387.472z
				 M119.39,404.898l1.635-7.896h7.279l-1.635,7.896h3.608l3.763-17.981h-3.609l-1.511,7.279h-7.279l1.511-7.279h-3.578
				l-3.763,17.981H119.39z M139.098,404.898l2.775-13.726l3.763,13.786h4.626l3.948-17.98h-3.393l-3.084,13.664l-3.64-13.664h-4.564
				l-3.825,17.98L139.098,404.898z M174.351,394.227c-0.018,2.941-1.116,5.772-3.084,7.957c-1.977,2.076-4.753,3.201-7.618,3.084
				c-3.796,0.135-6.982-2.836-7.115-6.631c-0.01-0.277-0.002-0.557,0.021-0.832c-0.008-2.846,0.998-5.602,2.837-7.771
				c1.854-2.206,4.614-3.444,7.495-3.362c3.762-0.384,7.123,2.354,7.507,6.116c0.051,0.5,0.047,1.003-0.012,1.501 M160.379,398.02
				c0,2.346,1.172,4.441,3.793,4.441c4.133,0,6.416-4.934,6.416-8.543c0.29-2.126-1.2-4.085-3.326-4.375
				c-0.166-0.022-0.332-0.034-0.499-0.035c-4.194,0-6.354,4.873-6.354,8.512 M187.366,404.99l0.771-2.898h-7.186l3.084-15.144
				h-3.485l-3.825,18.011L187.366,404.99z M208.308,394.319c-0.018,2.941-1.116,5.773-3.084,7.958
				c-1.978,2.076-4.753,3.199-7.618,3.084c-3.796,0.134-6.981-2.836-7.115-6.633c-0.01-0.276-0.003-0.555,0.021-0.832
				c-0.006-2.844,1-5.6,2.837-7.771c1.836-2.241,4.599-3.514,7.495-3.454c3.762-0.384,7.123,2.354,7.507,6.116
				c0.051,0.5,0.047,1.003-0.012,1.501 M194.305,398.02c0,2.346,1.172,4.441,3.794,4.441c4.133,0,6.415-4.934,6.415-8.543
				c0.29-2.126-1.2-4.085-3.326-4.375c-0.165-0.022-0.332-0.034-0.499-0.035c-4.194,0-6.354,4.873-6.354,8.512 M228.263,387.688
				c-1.897-0.689-3.903-1.034-5.922-1.018c-5.5-0.455-10.328,3.635-10.782,9.136c-0.041,0.49-0.044,0.983-0.013,1.473
				c0,5.553,3.516,7.988,8.821,7.988c1.625,0.012,3.242-0.248,4.781-0.771l2.066-9.808h-7.279l-0.586,2.837h3.824l-1.11,4.75
				c-0.579,0.175-1.186,0.236-1.789,0.185c-2.759,0.056-5.04-2.138-5.094-4.896c-0.002-0.115,0-0.23,0.005-0.347
				c-0.29-3.942,2.67-7.372,6.612-7.661c0.17-0.012,0.341-0.019,0.513-0.019c1.754-0.051,3.487,0.398,4.996,1.295L228.263,387.688z
				 M237.083,404.959l1.573-7.432l8.698-10.549h-4.102l-5.768,7.557l-2.776-7.557h-3.793l4.225,10.549l-1.573,7.432H237.083z
				 M248.618,404.959l0.74-3.607h-3.516l-0.74,3.607H248.618z M88.239,377.017l3.732-18.104h3.639l-3.084,15.144h7.063l-0.617,2.837
				L88.239,377.017z M103.259,368.813c-1.048,5.12,0.401,8.513,6.168,8.513c4.997,0,7.155-2.807,8.204-7.402l2.406-11.011h-3.547
				l-1.943,9.253c-0.648,3.084-1.357,6.354-5.058,6.354c-3.701,0-3.084-4.411-2.437-6.939l1.82-8.667h-3.608L103.259,368.813z
				 M121.456,377.017l3.701-18.104h5.336c2.807,0,5.428,1.018,5.428,4.287c-0.067,2.167-1.679,3.974-3.825,4.287
				c1.834,0.271,3.12,1.953,2.899,3.794c0,5.15-5.768,5.551-8.451,5.551L121.456,377.017z M126.453,368.998l-1.018,5.336h1.233
				c2.221,0,4.688-0.247,4.688-3.084c0-1.881-1.758-2.159-3.67-2.159L126.453,368.998z M128.025,361.997l-0.956,4.318h1.419
				c1.82,0,3.824-0.524,3.824-2.622s-1.634-1.789-3.084-1.789L128.025,361.997z M138.204,377.14l3.67-18.228h4.256
				c3.331,0,7.155,0,7.155,4.256c0.132,2.637-1.898,4.882-4.536,5.014c-0.236,0.012-0.472,0.006-0.708-0.017
				c0.921,0.035,1.687,0.722,1.82,1.635l1.727,7.248h-3.547l-0.863-4.225c-0.401-1.912-0.309-3.239-2.282-3.239h-1.357l-1.666,7.433
				L138.204,377.14z M144.033,366.839h1.326c1.943,0,4.287-0.586,4.287-3.084c0-1.881-1.635-1.881-3.084-1.881h-1.604
				L144.033,366.839z M159.269,377.14l3.763-18.228H159.3l-3.793,17.981L159.269,377.14z M180.858,359.714
				c-1.613-0.631-3.327-0.965-5.059-0.987c-5.319-0.363-9.926,3.654-10.289,8.973c-0.025,0.37-0.029,0.742-0.012,1.112
				c-0.532,4.191,2.434,8.02,6.624,8.552c0.432,0.055,0.867,0.073,1.302,0.053c1.373,0.018,2.742-0.148,4.071-0.493l0.555-3.455
				c-1.136,0.716-2.45,1.101-3.793,1.11c-2.928-0.094-5.226-2.543-5.132-5.472c0.002-0.078,0.007-0.156,0.013-0.234
				c-0.273-3.721,2.522-6.958,6.242-7.23c0.191-0.014,0.382-0.02,0.574-0.018c1.452-0.073,2.892,0.292,4.133,1.049L180.858,359.714z
				 M192.023,362.336l-4.318,7.834h5.583l-1.141-7.834H192.023z M179.686,377.109l11.165-18.197h4.009l3.27,17.981h-3.64
				l-0.617-4.133h-7.649l-2.282,4.133L179.686,377.109z M204.36,377.109l2.868-13.787l3.763,13.787h4.904l3.886-18.197h-3.393
				l-3.084,13.663l-3.763-13.663h-4.565l-3.855,17.981L204.36,377.109z M227.738,361.997l-3.27,15.144h3.763l3.27-15.144h5.058
				l0.586-2.837h-13.879l-0.617,2.837H227.738z M250.376,359.652c-1.488-0.56-3.068-0.833-4.657-0.802
				c-3.455,0-6.693,1.635-6.693,5.428c0,4.781,6.168,4.287,6.168,7.525c0,1.943-1.696,2.807-3.423,2.807
				c-1.542-0.086-3.047-0.507-4.411-1.233l-0.925,3.084c1.62,0.604,3.33,0.927,5.058,0.956c3.948,0,7.402-1.604,7.402-6.014
				c0-4.997-6.168-4.812-6.168-7.71c0-1.542,1.727-2.066,3.084-2.066c1.298,0.02,2.575,0.336,3.732,0.925L250.376,359.652z
				 M256.329,377.14l0.74-3.609h-3.608l-0.74,3.609H256.329z"/>
		</g>
	</g>
</g>
<g>
	<g>
		<defs>
			<rect id="SVGID_5_" y="238.628" width="612" height="314.744"/>
		</defs>
		<clipPath id="SVGID_6_">
			<use xlink:href="#SVGID_5_"  overflow="visible"/>
		</clipPath>
		<g clip-path="url(#SVGID_6_)">
			<path fill="#004E9E" d="M439.407,291.06c6.877-0.252,13.75,0.602,20.355,2.529l-5.459,21.898
				c-6.631-1.824-13.479-2.737-20.355-2.714c-34.574,0-68.037,18.135-89.071,44.845C359.342,319.835,398.881,291.06,439.407,291.06
				 M483.604,434.353c-20.973,26.739-54.468,44.845-89.041,44.845c-6.877,0.023-13.726-0.89-20.355-2.714l-5.459,21.896
				c6.605,1.927,13.479,2.78,20.355,2.529C429.631,500.909,469.294,472.165,483.604,434.353"/>
			<path fill="#E3000F" d="M499.457,363.23c-11.565-16.1-34.574-24.674-58.6-24.674c-13.009-0.139-25.891,2.555-37.751,7.896
				l5.365-23.07c7.538-2.416,15.401-3.664,23.316-3.701c33.125,0,58.601,18.135,67.854,43.58 M396.938,472.35
				c7.914-0.027,15.777-1.266,23.317-3.67l5.366-23.101c-11.861,5.341-24.743,8.035-37.751,7.896
				c-24.118,0-47.096-8.636-58.601-24.674c9.036,25.444,34.604,43.58,67.854,43.58"/>
		</g>
	</g>
</g>
</svg>
