<?xml version="1.0" standalone="no"?>
<!DOCTYPE svg PUBLIC "-//W3C//DTD SVG 1.1//EN" "http://www.w3.org/Graphics/SVG/1.1/DTD/svg11.dtd" >
<svg>
<metadata>
Created by FontForge 20090622 at Sun Nov 20 15:49:46 2016
 By deploy user
Copyright (C) 1990-1992 ParaGraph JV.
</metadata>
<defs>
<font id="FreeSetCyrillic" horiz-adv-x="2327" >
  <font-face 
    font-family="FreeSet"
    font-weight="400"
    font-stretch="normal"
    units-per-em="4096"
    panose-1="2 11 114 0 0 0 0 0 0 0"
    ascent="3276"
    descent="-820"
    x-height="2101"
    cap-height="2867"
    bbox="8 -1147 5313 3547"
    underline-thickness="56"
    underline-position="-252"
    unicode-range="U+0020-U+2122"
  />
<missing-glyph horiz-adv-x="3072" 
d="M512 0v2560h2048v-2560h-2048zM2496 64v2432h-1920v-2432h1920z" />
    <glyph glyph-name=".notdef" horiz-adv-x="3072" 
d="M512 0v2560h2048v-2560h-2048zM2496 64v2432h-1920v-2432h1920z" />
    <glyph glyph-name=".null" horiz-adv-x="0" 
 />
    <glyph glyph-name="nonmarkingreturn" horiz-adv-x="0" 
 />
    <glyph glyph-name="space" unicode=" " horiz-adv-x="1438" 
 />
    <glyph glyph-name="exclam" unicode="!" horiz-adv-x="1155" 
d="M410 2867h335l-49 -2150h-237zM410 352h335v-352h-335v352z" />
    <glyph glyph-name="quotedbl" unicode="&#x22;" horiz-adv-x="1343" 
d="M205 2867h385l-90 -708h-209zM754 2867h385l-90 -708h-209z" />
    <glyph glyph-name="numbersign" unicode="#" horiz-adv-x="2675" 
d="M1630 172h-188l114 647h-671l-111 -647h-192l114 647h-467l50 238h466l136 811h-463l49 237h463l114 648h189l-111 -648h668l111 648h192l-115 -648h467l-49 -237h-467l-135 -811h463l-49 -238h-463zM1606 1057l135 811h-668l-139 -811h672z" />
    <glyph glyph-name="dollar" unicode="$" horiz-adv-x="2109" 
d="M1126 -352h-180v327q-396 0 -721 127l29 267q322 -156 692 -156v1167q-234 102 -394 209.5t-253.5 255t-93.5 342.5q0 174 65.5 304t173.5 213t237.5 126.5t264.5 53.5v335h180v-327q313 0 627 -103l-37 -254q-276 123 -590 123v-1065q279 -140 438.5 -250.5t250 -267
t90.5 -387.5q0 -254 -136 -405.5t-309.5 -214.5t-333.5 -80v-340zM1126 1282v-1053q242 57 365 178.5t123 288.5q0 218 -123 345t-365 241zM946 1696v950q-450 -68 -450 -459q0 -163 115.5 -277t334.5 -214z" />
    <glyph glyph-name="percent" unicode="%" horiz-adv-x="4035" 
d="M410 2126q0 209 80.5 384.5t235 278.5t364.5 103q208 0 363 -103t235.5 -278.5t80.5 -384.5t-80.5 -384.5t-235.5 -278.5t-363 -103q-210 0 -364.5 103t-235 278.5t-80.5 384.5zM668 2126q0 -306 120 -433.5t302 -127.5q181 0 301 127.5t120 433.5q0 305 -120 433
t-301 128q-182 0 -302 -128t-120 -433zM926 111l2007 2781l176 -115l-2019 -2802zM2265 741q0 209 80.5 384t236 278.5t363.5 103.5t363.5 -103.5t236 -278.5t80.5 -384t-81 -384t-236 -278.5t-363 -103.5t-363 103.5t-236 278.5t-81 384zM2523 741q0 -305 120 -433
t302 -128t302 128t120 433q0 306 -120 434t-302 128t-302 -128t-120 -434z" />
    <glyph glyph-name="ampersand" unicode="&#x26;" horiz-adv-x="2982" 
d="M2408 0l-286 319q-183 -182 -383 -267t-453 -85q-282 0 -509.5 86t-358.5 250t-131 385q0 299 119.5 498.5t273 297.5t295.5 138q-138 134 -217.5 224t-127.5 197.5t-48 237.5q0 155 71 295t234.5 232t423.5 92q326 0 523.5 -167t197.5 -452q0 -178 -78.5 -305
t-224 -221.5t-373.5 -189.5l782 -811q221 304 234 839h270q-14 -295 -74.5 -511t-129.5 -344t-140 -222l479 -516h-369zM852 2281q0 -137 108.5 -286.5t251.5 -274.5q549 210 549 561q0 151 -108.5 268t-341.5 117q-276 0 -367.5 -120.5t-91.5 -264.5zM1978 541l-880 917
q-296 -97 -408 -297t-112 -461q0 -245 207.5 -372t500.5 -127q398 0 692 340z" />
    <glyph glyph-name="quotesingle" unicode="'" horiz-adv-x="795" 
d="M205 2867h385l-90 -708h-209z" />
    <glyph glyph-name="parenleft" unicode="(" horiz-adv-x="1729" 
d="M1085 3244l234 4q-289 -480 -454 -965.5t-165 -939.5q0 -164 49 -416.5t178 -599t347 -733.5l-201 -4q-251 382 -399 717.5t-206 590.5t-58 445q0 480 177 931t498 970z" />
    <glyph glyph-name="parenright" unicode=")" horiz-adv-x="1729" 
d="M643 3244q145 -231 266.5 -458.5t213.5 -461.5t144 -481.5t52 -499.5q0 -138 -31.5 -317.5t-104.5 -395.5t-207.5 -487.5t-320.5 -552.5l-200 4q218 387 346 732.5t177.5 599t49.5 417.5q0 313 -78 637t-215.5 641.5t-324.5 626.5z" />
    <glyph glyph-name="asterisk" unicode="*" horiz-adv-x="1819" 
d="M811 1937l-12 5l-480 -295l-114 204l495 263v12l-495 266l119 205l479 -299l8 8l-16 561h233l-16 -561l8 -8l479 295l115 -201l-496 -266v-12l496 -267l-115 -205l-479 300l-12 -5l16 -565h-233z" />
    <glyph glyph-name="plus" unicode="+" horiz-adv-x="3097" 
d="M1434 2724h229v-1147h1147v-229h-1147v-1147h-229v1147h-1147v229h1147v1147z" />
    <glyph glyph-name="comma" unicode="," horiz-adv-x="995" 
d="M430 365h361l-304 -893h-282z" />
    <glyph glyph-name="hyphen" unicode="-" horiz-adv-x="1556" 
d="M328 1200h901v-217h-901v217z" />
    <glyph glyph-name="period" unicode="." horiz-adv-x="745" 
d="M205 352h336v-352h-336v352z" />
    <glyph glyph-name="slash" unicode="/" horiz-adv-x="2241" 
d="M385 -1040l-180 73l1650 3908l181 -74z" />
    <glyph glyph-name="zero" unicode="0" horiz-adv-x="2417" 
d="M246 1434q0 225 24.5 447.5t118 461.5t294 398t525.5 159q326 0 526.5 -159t293.5 -395.5t118 -461.5t25 -450q0 -1467 -963 -1467q-962 0 -962 1467zM537 1434q0 -360 51 -629t199 -436.5t421 -167.5q396 0 534 332t138 901q0 571 -137.5 901.5t-534.5 330.5
q-274 0 -421.5 -167t-198.5 -435.5t-51 -629.5z" />
    <glyph glyph-name="one" unicode="1" horiz-adv-x="1470" 
d="M811 2867h250v-2867h-270v2552l-480 -393l-147 188z" />
    <glyph glyph-name="two" unicode="2" horiz-adv-x="2142" 
d="M328 2503l-49 233q326 164 700 164q338 0 529.5 -113t259 -271t67.5 -325q0 -269 -129 -527t-281.5 -442t-457.5 -522q-260 -292 -463 -462v-9l262 4h1171v-233h-1732v250q501 531 760 829t419 578.5t160 529.5q0 479 -565 479q-366 0 -651 -163z" />
    <glyph glyph-name="three" unicode="3" horiz-adv-x="2236" 
d="M553 1372v234h426q262 0 438 167t176 418q0 166 -145.5 320.5t-484.5 154.5q-375 0 -680 -143l-25 250q336 127 705 127q231 0 440.5 -75.5t339 -235t129.5 -398.5q0 -141 -45.5 -272.5t-166 -245.5t-329.5 -178v-4q226 -46 402 -214t176 -482q0 -259 -133.5 -447
t-360.5 -284.5t-493 -96.5q-448 0 -779 131l41 250q304 -147 738 -147q146 0 305.5 52.5t275 186.5t115.5 355q0 207 -98 336.5t-244.5 185t-300.5 55.5h-422z" />
    <glyph glyph-name="four" unicode="4" horiz-adv-x="2429" 
d="M1466 2867h361v-1949h438v-234h-438v-684h-271v684h-1392v246zM1556 918v1449l9 254h-13l-135 -233l-864 -1290l-127 -176l4 -9l217 5h909z" />
    <glyph glyph-name="five" unicode="5" horiz-adv-x="2286" 
d="M332 2867h1532v-233h-1262v-914q195 45 406 45q301 0 527 -111t345 -306t119 -439q0 -189 -64.5 -357t-192.5 -301t-317.5 -208.5t-429.5 -75.5q-364 0 -667 103v266q325 -135 667 -135q100 0 259 42.5t306.5 200.5t147.5 465q0 248 -123 386.5t-283.5 185.5t-306.5 47
q-399 0 -663 -74v1413z" />
    <glyph glyph-name="six" unicode="6" horiz-adv-x="2351" 
d="M1991 2839l-25 -242q-232 69 -647 69q-252 0 -415.5 -127t-247 -317t-113.5 -372.5t-39 -354.5l-4 -90h4q234 405 684 405q226 0 435.5 -92t345.5 -300t136 -533q0 -256 -103.5 -465.5t-307.5 -331t-490 -121.5q-387 0 -601 191t-285.5 441t-71.5 482q0 957 288 1388
t781 431q420 0 676 -61zM553 889q0 -215 82 -370.5t225.5 -236.5t323.5 -81q178 0 322.5 81t226.5 236.5t82 370.5t-82.5 370.5t-226 236.5t-322.5 81q-181 0 -324 -81t-225 -236.5t-82 -370.5z" />
    <glyph glyph-name="seven" unicode="7" horiz-adv-x="1925" 
d="M82 2867h1761v-246l-1106 -2621h-307l1126 2634h-1474v233z" />
    <glyph glyph-name="eight" unicode="8" horiz-adv-x="2511" 
d="M983 1475v4q-590 248 -590 733q0 189 107 347t298.5 249.5t430.5 91.5q251 0 452 -77.5t317 -233.5t116 -377q0 -483 -586 -737v-5q696 -197 696 -765q0 -324 -191.5 -488.5t-398.5 -207t-356 -42.5q-294 0 -520.5 100.5t-348.5 273.5t-122 384q0 307 214.5 492.5
t481.5 257.5zM1237 2666q-175 0 -301 -64.5t-189 -169.5t-63 -220q0 -163 77.5 -281.5t207 -200t313.5 -153.5q319 136 430 296t111 339q0 157 -79.5 259.5t-210.5 148.5t-296 46zM1204 1356q-256 -75 -441 -225.5t-185 -401.5q0 -167 96 -287.5t254.5 -180.5t345.5 -60
q309 0 484 144.5t175 350.5q0 167 -94 293.5t-253 212.5t-382 154z" />
    <glyph glyph-name="nine" unicode="9" horiz-adv-x="2372" 
d="M385 37l16 237q231 -73 664 -73q764 0 803 1118l4 147h-12q-253 -405 -680 -405q-228 0 -405 71t-294 196.5t-176 291t-59 350.5q0 263 108 475t315 333.5t486 121.5q309 0 508 -118t297.5 -294t132 -354.5t33.5 -343.5q0 -637 -120 -1042t-353 -593t-580 -188
q-451 0 -688 70zM1819 1991q0 161 -77 317.5t-229 257t-358 100.5q-154 0 -295 -70.5t-232 -227t-91 -398.5q0 -287 168.5 -481.5t474.5 -194.5q187 0 333.5 96.5t226 257.5t79.5 343z" />
    <glyph glyph-name="colon" unicode=":" horiz-adv-x="745" 
d="M205 352h336v-352h-336v352zM205 2101h336v-352h-336v352z" />
    <glyph glyph-name="semicolon" unicode=";" horiz-adv-x="995" 
d="M397 2101h336v-352h-336v352zM430 365h361l-304 -893h-282z" />
    <glyph glyph-name="less" unicode="&#x3c;" horiz-adv-x="2650" 
d="M229 1446l2089 1319v-234l-1704 -1085l1704 -1090v-229z" />
    <glyph glyph-name="equal" unicode="=" horiz-adv-x="3097" 
d="M287 975v229h2523v-229h-2523zM287 1720v230h2523v-230h-2523z" />
    <glyph glyph-name="greater" unicode="&#x3e;" horiz-adv-x="2650" 
d="M2421 1446l-2089 -1319v229l1704 1090l-1704 1085v234z" />
    <glyph glyph-name="question" unicode="?" horiz-adv-x="1823" 
d="M205 2560v254q253 86 528 86q156 0 346 -37t364.5 -189.5t174.5 -457.5q0 -184 -63 -332.5t-147.5 -253t-277.5 -315.5q-113 -125 -177 -231t-64 -244v-123h-234v123q0 194 85.5 339.5t242.5 319.5q169 190 256.5 348t87.5 369q0 149 -81.5 251.5t-217 150.5t-291.5 48
q-291 0 -532 -106zM602 352h336v-352h-336v352z" />
    <glyph glyph-name="at" unicode="@" horiz-adv-x="3289" 
d="M2400 242v-156q-368 -119 -774 -119q-407 0 -689 137.5t-441 353t-225 452.5t-66 450q0 284 95.5 556.5t285 496t471 355.5t639.5 132q375 0 691 -139t506.5 -425.5t190.5 -701.5q0 -270 -74.5 -472.5t-195 -332.5t-260.5 -193t-273 -63t-226 82t-93 213q0 20 8 70h-8
q-107 -165 -258.5 -265t-302.5 -100q-225 0 -401.5 141t-176.5 441q0 289 112 543.5t312.5 408.5t448.5 154q157 0 267 -83t159 -220l49 274h205l-213 -1228q-13 -53 -13 -103q0 -160 131 -160q164 0 312.5 106.5t242 311.5t93.5 479q0 364 -173 618.5t-454 379.5t-602 125
q-266 0 -508 -99t-430.5 -285.5t-295 -447t-106.5 -569.5q0 -339 149.5 -626.5t437.5 -457.5t679 -170q431 0 774 136zM2032 1409q16 86 16 262q0 212 -118.5 315t-262.5 103q-167 0 -311.5 -121t-230 -333t-85.5 -472q0 -225 122 -317t268 -92q188 0 363.5 171t238.5 484z
" />
    <glyph glyph-name="A" unicode="A" horiz-adv-x="2822" 
d="M1200 2867h352l1209 -2867h-291l-332 791h-1466l-320 -791h-291zM1380 2601h-12l-90 -270l-520 -1307h1282l-557 1307z" />
    <glyph glyph-name="B" unicode="B" horiz-adv-x="2363" 
d="M410 2867h766q441 0 640 -210t199 -511q0 -487 -495 -647v-12q159 -29 290.5 -120.5t209 -235t77.5 -324.5q0 -186 -72 -365.5t-283.5 -310.5t-590.5 -131h-741v2867zM680 2634v-1037h459q264 0 424.5 146.5t160.5 398.5q0 238 -155.5 365t-421.5 127h-467zM680 1364
v-1131h434q692 0 692 570q0 249 -140 374t-286 156t-237 31h-463z" />
    <glyph glyph-name="C" unicode="C" horiz-adv-x="2687" 
d="M2564 336v-258q-344 -111 -795 -111q-327 0 -583.5 114t-429.5 314.5t-259.5 458t-86.5 535.5q0 403 150.5 747.5t465.5 554t776 209.5q445 0 733 -111l-24 -245q-300 122 -684 122q-314 0 -571 -155.5t-406.5 -447.5t-149.5 -679q0 -260 85 -482t237 -378t354.5 -239.5
t433.5 -83.5t440.5 46t313.5 89z" />
    <glyph glyph-name="D" unicode="D" horiz-adv-x="2818" 
d="M410 2867h700q565 0 1024 -290t459 -1156q0 -214 -82 -525.5t-412 -603.5t-989 -292h-700v2867zM680 2634v-2401h401q285 0 511 79t385 234t242 378.5t83 509.5q0 731 -370.5 965.5t-850.5 234.5h-401z" />
    <glyph glyph-name="E" unicode="E" horiz-adv-x="2085" 
d="M410 2867h1392v-233h-1122v-1037h1069v-233h-1069v-1131h1200v-233h-1470v2867z" />
    <glyph glyph-name="F" unicode="F" horiz-adv-x="1946" 
d="M410 2867h1372v-233h-1102v-1037h1040v-233h-1040v-1364h-270v2867z" />
    <glyph glyph-name="G" unicode="G" horiz-adv-x="2912" 
d="M2486 2744l-41 -254q-364 176 -700 176q-276 0 -505.5 -87.5t-391.5 -251t-247 -390.5t-85 -503q0 -281 93 -511.5t262.5 -393.5t391 -247.5t478.5 -84.5q287 0 573 102v967h-696v233h967v-1372q-434 -164 -861 -164q-307 0 -577 89t-478.5 270.5t-326 462t-117.5 649.5
q0 309 95.5 576t288.5 467.5t479 311.5t657 111q365 0 741 -156z" />
    <glyph glyph-name="H" unicode="H" horiz-adv-x="2441" 
d="M205 2867h270v-1265h1491v1265h270v-2867h-270v1368h-1491v-1368h-270v2867z" />
    <glyph glyph-name="I" unicode="I" horiz-adv-x="1090" 
d="M410 2867h270v-2867h-270v2867z" />
    <glyph glyph-name="J" unicode="J" horiz-adv-x="1458" 
d="M778 2867h271v-2179q0 -403 -189 -564t-463 -161q-139 0 -315 45l24 238q118 -49 263 -49q175 0 292 117.5t117 402.5v2150z" />
    <glyph glyph-name="K" unicode="K" horiz-adv-x="2589" 
d="M410 2867h270v-1159v-164h4l98 103l1225 1220h344l-1393 -1356l1549 -1511h-381l-1372 1372l-70 78l-4 -4v-135v-1311h-270v2867z" />
    <glyph glyph-name="L" unicode="L" horiz-adv-x="1933" 
d="M410 2867h270v-2634h1171v-233h-1441v2867z" />
    <glyph glyph-name="M" unicode="M" horiz-adv-x="3834" 
d="M1909 258h16l119 381l954 2228h426v-2867h-270v2220l8 389h-16l-140 -377l-950 -2232h-278l-951 2232l-139 377h-16l8 -389v-2220h-270v2867h426l954 -2228z" />
    <glyph glyph-name="N" unicode="N" horiz-adv-x="2961" 
d="M410 2867h348l1396 -2318l127 -262h9l-9 331v2249h271v-2867h-348l-1377 2273l-151 307h-12l16 -331v-2249h-270v2867z" />
    <glyph glyph-name="O" unicode="O" horiz-adv-x="3047" 
d="M225 1430q0 429 158.5 763.5t453.5 520.5t687 186q295 0 536 -106t411.5 -302.5t260.5 -467t90 -594.5q0 -273 -74 -531t-231 -469.5t-407.5 -337t-585.5 -125.5t-584.5 125t-407 336.5t-232.5 472.5t-75 529zM516 1430q0 -431 152 -707t381.5 -399t474.5 -123
q176 0 353.5 67t325 212t238 383t90.5 567q0 430 -152 708.5t-383.5 403t-471.5 124.5q-241 0 -472 -124t-383.5 -403t-152.5 -709z" />
    <glyph glyph-name="P" unicode="P" horiz-adv-x="2179" 
d="M410 2867h745q244 0 439.5 -96t308 -284t112.5 -447q0 -260 -111.5 -448t-307 -284t-441.5 -96h-475v-1212h-270v2867zM680 2634v-1188h422q209 0 415.5 109.5t206.5 484.5q0 279 -164 436.5t-458 157.5h-422z" />
    <glyph glyph-name="Q" unicode="Q" horiz-adv-x="3047" 
d="M2695 -537h-377l-577 521q-102 -17 -234 -17q-364 0 -656.5 176t-459 508t-166.5 779q0 429 158.5 763.5t453.5 520.5t687 186q440 0 733.5 -215t429 -552.5t135.5 -702.5q0 -269 -74 -540t-252 -497t-464 -327zM516 1430q0 -431 152 -707t381.5 -399t474.5 -123
q176 0 353.5 67t325 212t238 383t90.5 567q0 430 -152 708.5t-383.5 403t-471.5 124.5q-241 0 -472 -124t-383.5 -403t-152.5 -709z" />
    <glyph glyph-name="R" unicode="R" horiz-adv-x="2458" 
d="M410 2867h737q393 0 587.5 -150t241.5 -315.5t47 -304.5q0 -185 -86 -331.5t-226.5 -232.5t-305.5 -103v-9q133 -18 193.5 -96t117.5 -211l496 -1114h-299l-471 1061q-67 148 -137 205t-265 57h-360v-1323h-270v2867zM680 2634v-1078h397q274 0 465 150.5t191 386.5
q0 121 -45.5 243t-171.5 210t-349 88h-487z" />
    <glyph glyph-name="S" unicode="S" horiz-adv-x="2028" 
d="M205 94l28 266q338 -159 639 -159q158 0 310 53t251 166t99 280q0 175 -77 293t-200 198t-370 210q-211 110 -334 190.5t-224.5 229.5t-101.5 366q0 198 88 359t285.5 257.5t511.5 96.5q320 0 623 -102l-37 -254q-275 122 -586 122q-333 0 -463.5 -140.5t-130.5 -338.5
q0 -137 67.5 -231.5t173 -161.5t357.5 -205q260 -143 402 -250.5t224.5 -263.5t82.5 -387q0 -190 -100 -354t-315 -265.5t-536 -101.5q-340 0 -667 127z" />
    <glyph glyph-name="T" unicode="T" horiz-adv-x="2109" 
d="M61 2867h1987v-233h-856v-2634h-270v2634h-861v233z" />
    <glyph glyph-name="U" unicode="U" horiz-adv-x="2916" 
d="M680 2867v-1904q0 -260 110 -432t287.5 -251t380.5 -79t380.5 79t287.5 251t110 432v1904h271v-1913q0 -318 -139 -541t-377.5 -334.5t-532.5 -111.5t-532 111.5t-377 334.5t-139 541v1913h270z" />
    <glyph glyph-name="V" unicode="V" horiz-adv-x="2666" 
d="M82 2867h299l897 -2277l86 -332h8l103 332l839 2277h271l-1065 -2867h-303z" />
    <glyph glyph-name="W" unicode="W" horiz-adv-x="3961" 
d="M3621 2867h258l-803 -2867h-340l-672 2179l-86 320h-12l-82 -324l-577 -2175h-340l-885 2867h295l684 -2318l74 -316h8l65 320l643 2314h295l684 -2318l74 -316h8l66 320z" />
    <glyph glyph-name="X" unicode="X" horiz-adv-x="2634" 
d="M143 2867h336l738 -1036l90 -135h4l94 135l733 1036h311l-970 -1347l1073 -1520h-336l-741 1053l-168 274h-9l-172 -287l-720 -1040h-324l1057 1520z" />
    <glyph glyph-name="Y" unicode="Y" horiz-adv-x="2486" 
d="M8 2867h316l798 -1270l99 -167l127 196l798 1241h332l-1126 -1671v-1196h-271v1196z" />
    <glyph glyph-name="Z" unicode="Z" horiz-adv-x="2302" 
d="M238 2867h1798v-274l-1340 -2081l-184 -274l4 -9l275 4h1306v-233h-1892v254l1368 2105l180 275l-4 4l-324 -4h-1187v233z" />
    <glyph glyph-name="bracketleft" unicode="[" horiz-adv-x="1352" 
d="M410 -897v3764h737v-233h-451v-3298h451v-233h-737z" />
    <glyph glyph-name="backslash" unicode="\" horiz-adv-x="2486" 
d="M1978 -1040l-1650 3907l180 74l1651 -3908z" />
    <glyph glyph-name="bracketright" unicode="]" horiz-adv-x="1352" 
d="M942 -897h-737v233h450v3298h-450v233h737v-3764z" />
    <glyph glyph-name="asciicircum" unicode="^" horiz-adv-x="2163" 
d="M1081 2617l-626 -843h-226l852 1151l852 -1151h-221z" />
    <glyph glyph-name="underscore" unicode="_" horiz-adv-x="2888" 
d="M328 -897v197h2375v-197h-2375z" />
    <glyph glyph-name="grave" unicode="`" horiz-adv-x="1405" 
d="M713 3097l364 -545h-209l-540 545h385z" />
    <glyph glyph-name="a" unicode="a" horiz-adv-x="2122" 
d="M414 1757v246q298 131 626 131q324 0 488.5 -133.5t209 -301t44.5 -347.5v-893l12 -459h-229v356h-9q-211 -389 -684 -389q-230 0 -385.5 85.5t-229 220.5t-73.5 288q0 433 340.5 577t864.5 144h135v74q0 561 -484 561q-340 0 -626 -160zM1524 1065h-234
q-382 0 -608.5 -106.5t-226.5 -380.5q0 -119 57.5 -208.5t152 -137.5t203.5 -48q214 0 361.5 93.5t221 259t73.5 376.5v152z" />
    <glyph glyph-name="b" unicode="b" 
d="M344 3121h258v-1397q228 410 635 410q264 0 469.5 -124.5t320.5 -370t115 -590.5q0 -346 -114.5 -591.5t-319 -368t-471.5 -122.5q-207 0 -379 125t-272 342h-13l-4 -434h-241l16 406v2715zM602 1049q0 -287 93 -482t238.5 -289t303.5 -94t303.5 94t238.5 289t93 482
q0 289 -92.5 485.5t-237.5 289.5t-305 93t-305 -93t-237.5 -289.5t-92.5 -485.5z" />
    <glyph glyph-name="c" unicode="c" horiz-adv-x="1872" 
d="M1733 2052l-13 -229q-229 94 -561 94q-224 0 -383.5 -116t-240 -313.5t-80.5 -438.5q0 -365 151 -558t321 -250t281 -57q307 0 516 86l25 -221q-237 -82 -545 -82q-291 0 -525 133t-364.5 379t-130.5 570q0 336 128.5 582.5t346 374.5t476.5 128q318 0 598 -82z" />
    <glyph glyph-name="d" unicode="d" 
d="M1724 3121h258v-2715l17 -406h-242l-4 434h-12q-92 -208 -260 -337.5t-391 -129.5q-231 0 -436.5 102.5t-337.5 345.5t-132 634q0 387 133 630.5t338 349t435 105.5q238 0 391.5 -124.5t242.5 -285.5v1397zM1724 1049q0 289 -92 485.5t-237 289.5t-305 93t-305 -93
t-237.5 -289.5t-92.5 -485.5q0 -287 93 -482t238.5 -289t303.5 -94q157 0 302.5 94t238.5 289t93 482z" />
    <glyph glyph-name="e" unicode="e" horiz-adv-x="2081" 
d="M1917 975h-1483q0 -212 88.5 -398t260.5 -299.5t405 -113.5q258 0 569 155v-237q-290 -123 -586 -123q-202 0 -383 64t-322 200t-221.5 352t-80.5 510q0 301 108.5 540.5t315 374t489.5 134.5q371 0 557.5 -189t234.5 -418.5t48 -469.5v-82zM434 1192h1213
q0 273 -118 499t-452 226q-213 0 -358.5 -111t-214 -278.5t-70.5 -335.5z" />
    <glyph glyph-name="f" unicode="f" horiz-adv-x="1802" 
d="M725 0v1884h-438v217h438v430q0 234 88 368t201 182t207 48q174 0 295 -37v-213q-98 33 -263 33q-270 0 -270 -360v-451h496v-217h-496v-1884h-258z" />
    <glyph glyph-name="g" unicode="g" 
d="M1724 29v348q-227 -410 -634 -410q-265 0 -470.5 124.5t-320.5 370t-115 591.5t114 591t318.5 367.5t473.5 122.5q137 0 262 -56.5t225 -162.5t164 -248h12l4 434h242l-17 -405v-1692q0 -922 -1036 -922q-291 0 -565 115v254q316 -151 614 -151q351 0 540 198.5
t189 530.5zM1724 1053q0 286 -93 481t-238.5 289t-302.5 94q-158 0 -303.5 -94t-238.5 -289t-93 -481q0 -290 92.5 -486.5t237.5 -289.5t305 -93t305 93t237 289.5t92 486.5z" />
    <glyph glyph-name="h" unicode="h" horiz-adv-x="2306" 
d="M328 3121h258v-995l-21 -459h8q61 144 161.5 249t231.5 161.5t279 56.5q733 0 733 -827v-1307h-258v1294q0 284 -93.5 453.5t-422.5 169.5q-177 0 -318.5 -97.5t-220.5 -259t-79 -335.5v-1225h-258v3121z" />
    <glyph glyph-name="i" unicode="i" horiz-adv-x="651" 
d="M197 2101h258v-2101h-258v2101zM184 3031h283v-328h-283v328z" />
    <glyph glyph-name="j" unicode="j" horiz-adv-x="1364" 
d="M1036 2101v-2404q0 -594 -471 -594q-122 0 -237 37v209q115 -33 184 -33q266 0 266 356v2429h258zM778 3039h258v-327h-258v327z" />
    <glyph glyph-name="k" unicode="k" horiz-adv-x="2085" 
d="M328 3121h258v-1945h20l955 925h335l-1036 -971l1143 -1130h-365l-1032 1032h-20v-1032h-258v3121z" />
    <glyph glyph-name="l" unicode="l" horiz-adv-x="913" 
d="M328 3121h258v-3121h-258v3121z" />
    <glyph glyph-name="m" unicode="m" horiz-adv-x="3506" 
d="M340 0v1704l-12 397h254v-409h8q76 189 232.5 315.5t365.5 126.5q251 0 418.5 -114.5t216.5 -327.5h4q93 203 265 322.5t390 119.5q696 0 696 -733v-1401h-258v1389q0 528 -438 528q-175 0 -311 -89.5t-209.5 -248.5t-73.5 -354v-1225h-258v1389q0 528 -442 528
q-178 0 -313 -100.5t-206 -260t-71 -331.5v-1225h-258z" />
    <glyph glyph-name="n" unicode="n" horiz-adv-x="2318" 
d="M598 0h-258v1618l-12 483h229v-434h8q84 194 253 330.5t435 136.5q738 0 738 -827v-1307h-258v1294q0 188 -30 316.5t-143.5 217.5t-342.5 89q-188 0 -329 -99.5t-215.5 -261t-74.5 -331.5v-1225z" />
    <glyph glyph-name="o" unicode="o" horiz-adv-x="2310" 
d="M184 1049q0 225 62 421.5t186.5 347t307.5 233.5t415 83q307 0 527.5 -144.5t332 -392t111.5 -548.5q0 -300 -112.5 -546.5t-332 -391t-526.5 -144.5t-526.5 144.5t-332 391t-112.5 546.5zM455 1049q0 -143 38.5 -294t121.5 -280.5t218 -210t322 -80.5t322.5 80t219 211
t121 281t37.5 293q0 201 -70 399t-227.5 333.5t-402.5 135.5t-402.5 -135.5t-227.5 -333.5t-70 -399z" />
    <glyph glyph-name="p" unicode="p" 
d="M602 -897h-258v2593l-16 405h245v-434h13q174 467 651 467q304 0 507 -141.5t300.5 -386t97.5 -553.5q0 -294 -79.5 -505.5t-209.5 -338t-291 -184.5t-325 -58q-145 0 -267 55.5t-213 148.5t-151 206h-12l8 -201v-1073zM602 1053q0 -290 92.5 -486.5t237.5 -289.5
t305 -93t305 93t237.5 289.5t92.5 486.5q0 286 -93 481t-238.5 289t-303.5 94t-303.5 -94t-238.5 -289t-93 -481z" />
    <glyph glyph-name="q" unicode="q" 
d="M1724 -897v1274q-51 -93 -132.5 -185.5t-208.5 -158.5t-293 -66q-230 0 -435 105.5t-338 349t-133 631.5q0 297 78.5 509t210.5 337.5t290 180t327 54.5q223 0 391 -129.5t260 -337.5h12l4 434h242l-17 -405v-2593h-258zM1724 1053q0 286 -93 481t-238.5 289t-302.5 94
q-158 0 -303.5 -94t-238.5 -289t-93 -481q0 -290 92.5 -486.5t237.5 -289.5t305 -93t305 93t237 289.5t92 486.5z" />
    <glyph glyph-name="r" unicode="r" horiz-adv-x="1442" 
d="M602 0h-258v1716l-16 385h245v-450h5q45 204 176 347.5t336 143.5q102 0 229 -45v-246q-95 45 -205 45q-144 0 -261.5 -88t-184 -245.5t-66.5 -354.5v-1208z" />
    <glyph glyph-name="s" unicode="s" horiz-adv-x="1716" 
d="M1438 2023l-17 -204q-239 98 -495 98q-265 0 -352 -99.5t-87 -195.5q0 -149 89.5 -226.5t336.5 -178.5q167 -68 288 -135.5t215.5 -195t94.5 -321.5q0 -259 -196 -428.5t-557 -169.5q-293 0 -553 94l16 246q258 -123 545 -123q291 0 383 131.5t92 249.5
q0 177 -92.5 255.5t-255.5 150.5q-191 81 -285.5 128t-183.5 118t-140 170.5t-51 234.5q0 224 190 368t515 144q253 0 500 -111z" />
    <glyph glyph-name="t" unicode="t" horiz-adv-x="1466" 
d="M512 2626l258 94v-619h500v-217h-500v-1290q0 -180 27.5 -269t79.5 -115t143 -26q149 0 262 45v-217q-129 -45 -291 -45q-218 0 -324 102.5t-130.5 229t-24.5 279.5v1306h-430v217h430v525z" />
    <glyph glyph-name="u" unicode="u" horiz-adv-x="2286" 
d="M328 2101h258v-1380q0 -537 458 -537q186 0 332.5 97t226.5 258.5t80 345.5v1216h259v-1622l16 -479h-242v418h-4q-83 -215 -264.5 -333t-403.5 -118q-271 0 -493.5 156t-222.5 618v1360z" />
    <glyph glyph-name="v" unicode="v" horiz-adv-x="1905" 
d="M82 2101h270l566 -1716l40 -164h13l41 168l561 1712h250l-709 -2101h-303z" />
    <glyph glyph-name="w" unicode="w" horiz-adv-x="3293" 
d="M82 2101h274l500 -1601l66 -283h12l70 279l483 1605h328l524 -1601l74 -283h12l69 283l455 1601h262l-631 -2101h-323l-565 1692l-45 196h-13l-45 -200l-508 -1688h-319z" />
    <glyph glyph-name="x" unicode="x" horiz-adv-x="2040" 
d="M172 2101h328l397 -610l115 -197h4l114 201l369 606h303l-643 -979l758 -1122h-336l-467 758l-102 188h-4l-107 -188l-479 -758h-299l729 1122z" />
    <glyph glyph-name="y" unicode="y" horiz-adv-x="2007" 
d="M250 -864l24 229q96 -29 213 -29q122 0 186 78.5t118 241.5l90 274l-758 2171h274l553 -1601l66 -209h4l65 205l533 1605h266l-897 -2576q-74 -213 -181.5 -317.5t-281.5 -104.5q-170 0 -274 33z" />
    <glyph glyph-name="z" unicode="z" horiz-adv-x="1942" 
d="M205 2101h1499v-246l-1073 -1437l-164 -201h1290v-217h-1573v213l1082 1458l168 213h-1229v217z" />
    <glyph glyph-name="braceleft" unicode="{" horiz-adv-x="1409" 
d="M205 1024v172q162 22 247 102.5t113.5 201t28.5 294.5q0 96 -6 264t-6 281q0 165 34.5 320t172 293.5t415.5 168.5v-184q-219 -19 -285.5 -137.5t-66.5 -288.5q0 -94 6 -291t6 -430q0 -211 -63.5 -386t-288.5 -253l-106 -37v-12l106 -33q352 -108 352 -639
q0 -230 -6 -429t-6 -292q0 -169 66 -286t286 -140v-184q-278 30 -415.5 168.5t-172 293t-34.5 320.5q0 114 6 282t6 263q0 267 -78 417.5t-311 180.5z" />
    <glyph glyph-name="bar" unicode="|" horiz-adv-x="688" 
d="M229 -1147v4313h230v-4313h-230z" />
    <glyph glyph-name="braceright" unicode="}" horiz-adv-x="1409" 
d="M1204 1196v-172q-233 -30 -311 -180.5t-78 -417.5q0 -95 6 -263t6 -282q0 -716 -622 -782v184q219 22 285.5 139.5t66.5 286.5q0 93 -6 292t-6 429q0 531 352 639l107 33v12l-107 37q-225 78 -288.5 253t-63.5 386q0 233 6 430t6 291q0 170 -66.5 289t-285.5 137v184
q278 -30 415.5 -168.5t172 -293t34.5 -320.5q0 -113 -6 -281t-6 -264q0 -174 28.5 -294.5t113.5 -201t247 -102.5z" />
    <glyph glyph-name="asciitilde" unicode="~" horiz-adv-x="2200" 
d="M1724 1298l148 -98q-81 -159 -178.5 -239t-247.5 -80q-97 0 -177.5 20t-185.5 61l-129 50q-107 41 -225 41q-165 0 -262 -181l-139 95q145 327 417 327q62 0 129 -12t124.5 -30t117.5 -40l129 -49q113 -41 205 -41q179 0 274 176z" />
    <glyph glyph-name="afii10051" horiz-adv-x="3158" 
d="M61 2867h2036v-233h-934v-971q180 110 401.5 174t422.5 64q358 0 545 -155t242.5 -349t55.5 -377q0 -364 -109.5 -602t-294.5 -346.5t-415 -108.5q-180 0 -364 62l16 233q155 -65 315 -65q244 0 403 194t159 633q0 647 -619 647q-188 0 -388 -66t-370 -171v-1430h-270
v2634h-832v233z" />
    <glyph glyph-name="afii10052" horiz-adv-x="1921" 
d="M410 2867h1470v-233h-1200v-2634h-270v2867z" />
    <glyph glyph-name="quotesinglbase" unicode="&#x201a;" horiz-adv-x="995" 
d="M430 365h361l-304 -893h-282z" />
    <glyph glyph-name="afii10100" unicode="&#x192;" horiz-adv-x="1618" 
d="M328 2101h1286v-217h-1028v-1884h-258v2101z" />
    <glyph glyph-name="quotedblbase" unicode="&#x201e;" horiz-adv-x="1704" 
d="M430 365h361l-304 -893h-282zM1139 365h360l-303 -893h-283z" />
    <glyph glyph-name="ellipsis" unicode="&#x2026;" horiz-adv-x="2236" 
d="M205 352h336v-352h-336v352zM950 352h336v-352h-336v352zM1696 352h336v-352h-336v352z" />
    <glyph glyph-name="dagger" unicode="&#x2020;" horiz-adv-x="2662" 
d="M1196 2867h270v-1114h992v-270h-992v-2380h-270v2380h-991v270h991v1114z" />
    <glyph glyph-name="perthousand" unicode="&#x2030;" horiz-adv-x="5722" 
d="M410 2126q0 209 80.5 384.5t235 278.5t364.5 103q208 0 363 -103t235.5 -278.5t80.5 -384.5t-80.5 -384.5t-235.5 -278.5t-363 -103q-210 0 -364.5 103t-235 278.5t-80.5 384.5zM668 2126q0 -306 120 -433.5t302 -127.5q181 0 301 127.5t120 433.5q0 305 -120 433
t-301 128q-182 0 -302 -128t-120 -433zM926 111l2007 2781l176 -115l-2019 -2802zM2265 741q0 209 80.5 384t236 278.5t363.5 103.5t363.5 -103.5t236 -278.5t80.5 -384t-81 -384t-236 -278.5t-363 -103.5t-363 103.5t-236 278.5t-81 384zM2523 741q0 -305 120 -433
t302 -128t302 128t120 433q0 306 -120 434t-302 128t-302 -128t-120 -434zM3953 741q0 209 80.5 384.5t235 278.5t364.5 103q208 0 363.5 -103.5t236 -278.5t80.5 -384t-81 -384t-236 -278.5t-363 -103.5q-210 0 -364 103t-235 278.5t-81 384.5zM4211 741q0 -305 120 -433
t302 -128q181 0 301 128t120 433q0 306 -120 434t-301 128q-182 0 -302 -128t-120 -434z" />
    <glyph glyph-name="afii10058" unicode="&#x160;" horiz-adv-x="4379" 
d="M2384 2634h-1102v-758v-250q0 -376 -17.5 -646.5t-82 -503.5t-203 -371t-369.5 -138q-113 0 -200 29l16 225q75 -20 164 -20q183 0 276 196t119.5 481t26.5 674v336v979h1642v-1175h459q219 0 443 -55t400.5 -242t176.5 -543q0 -240 -115 -435.5t-317.5 -306
t-448.5 -110.5h-868v2634zM2654 233h516q233 0 386 90.5t221.5 229t68.5 291.5q0 270 -132.5 406.5t-291.5 172t-313 35.5h-455v-1225z" />
    <glyph glyph-name="quilsinglleft" unicode="&#x2039;" horiz-adv-x="1626" 
d="M983 2101h234l-537 -848l537 -847h-234l-573 851z" />
    <glyph glyph-name="afii10059" unicode="&#x152;" horiz-adv-x="4174" 
d="M410 2867h270v-1175h1495v1175h270v-1175h459q408 0 636.5 -133.5t308 -322t79.5 -384.5q0 -241 -118 -436t-321.5 -305.5t-445.5 -110.5h-868v1458h-1495v-1458h-270v2867zM2445 1458v-1225h516q233 0 386 90.5t221.5 229t68.5 291.5q0 270 -132.5 406.5t-291.5 172
t-313 35.5h-455z" />
    <glyph glyph-name="afii10061" horiz-adv-x="2589" 
d="M410 2867h270v-1311h12l1315 1311h344l-1393 -1356l1549 -1511h-381l-1434 1446h-12v-1446h-270v2867z" />
    <glyph glyph-name="afii10060" horiz-adv-x="3109" 
d="M61 2867h1991v-233h-901v-971q170 102 387 170t387 68q366 0 555.5 -138t245 -313.5t55.5 -347.5v-1102h-270v1040q0 267 -102 455t-484 188q-328 0 -774 -253v-1430h-270v2634h-820v233z" />
    <glyph glyph-name="afii10145" horiz-adv-x="2884" 
d="M410 0v2867h270v-2634h1524v2634h270v-2867h-897v-623h-270v623h-897z" />
    <glyph glyph-name="afii10099" horiz-adv-x="2421" 
d="M426 0v2511h-344v184h344v426h258v-426h868v-184h-868v-410l-12 -430h4q73 192 244.5 327.5t390.5 135.5q485 0 633.5 -351t148.5 -820q0 -414 -55 -712t-220 -543t-479 -417l-94 209q270 144 401 358t164 461.5t33 634.5q0 455 -119.5 709t-461.5 254
q-168 0 -300.5 -108t-205 -270.5t-72.5 -313.5v-1225h-258z" />
    <glyph glyph-name="quoteleft" unicode="&#x2018;" horiz-adv-x="1241" 
d="M631 3121h282l-225 -893h-360z" />
    <glyph glyph-name="quoteright" unicode="&#x2019;" horiz-adv-x="995" 
d="M430 2867h361l-304 -893h-282z" />
    <glyph glyph-name="quotedblleft" unicode="&#x201c;" horiz-adv-x="1950" 
d="M1339 3121h283l-225 -893h-361zM631 3121h282l-225 -893h-360z" />
    <glyph glyph-name="quotedblright" unicode="&#x201d;" horiz-adv-x="1704" 
d="M430 2867h361l-304 -893h-282zM1139 2867h360l-303 -893h-283z" />
    <glyph glyph-name="bullet" unicode="&#x2022;" horiz-adv-x="1556" 
d="M287 1462q0 123 61.5 236.5t174.5 184.5t255 71t255 -70.5t175 -184t62 -237.5q0 -123 -62 -236.5t-175 -184t-255 -70.5t-255 71t-174.5 184.5t-61.5 235.5z" />
    <glyph glyph-name="emdash" unicode="&#x2013;" horiz-adv-x="3097" 
d="M287 1348v229h2523v-229h-2523z" />
    <glyph glyph-name="endash" unicode="&#x2014;" horiz-adv-x="1675" 
d="M205 2007h1265v-188h-1265v188z" />
    <glyph glyph-name="trademark" unicode="&#x2122;" horiz-adv-x="3711" 
d="M205 2318h1192v-180h-496v-1540h-196v1540h-500v180zM1642 2318h320l573 -1372l50 -205h4l49 205l573 1372h295v-1720h-196v1331l20 234h-8l-86 -230l-574 -1335h-176l-569 1348l-78 217h-8l8 -234v-1331h-197v1720z" />
    <glyph glyph-name="afii10106" unicode="&#x161;" horiz-adv-x="3351" 
d="M492 2101h1392v-827h623q189 0 345 -74.5t245.5 -218t89.5 -342.5t-86 -343t-241.5 -220t-352.5 -76h-881v1884h-876v-389q0 -69 2 -210t2 -208q0 -358 -34.5 -594t-149.5 -380t-341 -144q-93 0 -200 25v217q72 -25 135 -25q138 0 206.5 106t89.5 261t23 370
q0 227 4.5 367t4.5 244v577zM1884 1057v-840h545q190 0 338.5 100t148.5 322q0 156 -104.5 287t-382.5 131h-545z" />
    <glyph glyph-name="quilsinglright" unicode="&#x203a;" horiz-adv-x="1626" 
d="M410 2101h233l574 -844l-574 -851h-233l536 847z" />
    <glyph glyph-name="afii10107" unicode="&#x153;" horiz-adv-x="3449" 
d="M328 2101h258v-827h1138v827h258v-827h623q189 0 345 -74.5t245.5 -218t89.5 -342.5t-86 -343t-241.5 -220t-352.5 -76h-881v1057h-1138v-1057h-258v2101zM1982 1057v-840h545q191 0 339.5 100t148.5 322q0 156 -105 287t-383 131h-545z" />
    <glyph glyph-name="afii10109" horiz-adv-x="2023" 
d="M328 2101h258v-925h12l963 925h331l-1032 -979l1143 -1122h-365l-1040 1040h-12v-1040h-258v2101z" />
    <glyph glyph-name="afii10108" horiz-adv-x="2408" 
d="M430 0v2531h-348v185h348v405h258v-405h926v-185h-926v-430l-16 -430h4q83 206 258 334.5t409 128.5q738 0 738 -848v-1286h-258v1294q0 623 -500 623q-175 0 -319 -90.5t-227 -249.5t-89 -352v-1225h-258z" />
    <glyph glyph-name="afii10193" unicode="&#x178;" horiz-adv-x="2273" 
d="M1946 0h-680v-606h-258v606h-680v2101h258v-1884h1102v1884h258v-2101z" />
    <glyph glyph-name="afii10062" unicode="&#xa1;" horiz-adv-x="2384" 
d="M61 2867h304l737 -1524l147 -360h13l127 344l639 1540h294l-1015 -2412q-98 -227 -216.5 -363.5t-336.5 -136.5q-122 0 -287 61l12 230q116 -58 209 -58q133 0 211.5 95t136.5 241l70 172zM737 3547q195 -233 475 -233q281 0 476 233l122 -156q-104 -144 -260 -231.5
t-338 -87.5q-180 0 -334.5 87t-263.5 232z" />
    <glyph glyph-name="afii10062" unicode="&#x40e;" horiz-adv-x="2384" 
d="M61 2867h304l737 -1524l147 -360h13l127 344l639 1540h294l-1015 -2412q-98 -227 -216.5 -363.5t-336.5 -136.5q-122 0 -287 61l12 230q116 -58 209 -58q133 0 211.5 95t136.5 241l70 172zM737 3547q195 -233 475 -233q281 0 476 233l122 -156q-104 -144 -260 -231.5
t-338 -87.5q-180 0 -334.5 87t-263.5 232z" />
    <glyph glyph-name="afii10110" unicode="&#xa2;" horiz-adv-x="2007" 
d="M250 -864l24 229q55 -18 111 -24q33 -5 102 -5q122 0 186 78.5t118 241.5l90 274l-758 2171h274l553 -1601l66 -209h4l65 205l533 1605h266l-897 -2576q-74 -213 -181.5 -317.5t-281.5 -104.5q-170 0 -274 33zM971 2585q-359 0 -598 319l123 143q194 -233 475 -233
q280 0 475 233l123 -143q-104 -144 -260 -231.5t-338 -87.5z" />
    <glyph glyph-name="afii10110" unicode="&#x45e;" horiz-adv-x="2007" 
d="M250 -864l24 229q55 -18 111 -24q33 -5 102 -5q122 0 186 78.5t118 241.5l90 274l-758 2171h274l553 -1601l66 -209h4l65 205l533 1605h266l-897 -2576q-74 -213 -181.5 -317.5t-281.5 -104.5q-170 0 -274 33zM971 2585q-359 0 -598 319l123 143q194 -233 475 -233
q280 0 475 233l123 -143q-104 -144 -260 -231.5t-338 -87.5z" />
    <glyph glyph-name="afii10057" unicode="&#xa3;" horiz-adv-x="1458" 
d="M778 2867h271v-2179q0 -403 -189 -564t-463 -161q-139 0 -315 45l24 238q118 -49 263 -49q175 0 292 117.5t117 402.5v2150z" />
    <glyph glyph-name="afii10057" unicode="&#x408;" horiz-adv-x="1458" 
d="M778 2867h271v-2179q0 -403 -189 -564t-463 -161q-139 0 -315 45l24 238q118 -49 263 -49q175 0 292 117.5t117 402.5v2150z" />
    <glyph glyph-name="currency" unicode="&#xa4;" horiz-adv-x="3281" 
d="M2707 2675l164 -164l-389 -385q242 -294 242 -680t-242 -680l389 -385l-164 -164l-389 389q-284 -246 -680 -246q-395 0 -675 246l-390 -389l-163 164l389 385q-242 300 -242 680q0 394 242 680l-389 385l163 164l390 -389q280 245 675 245q391 0 680 -245zM774 1446
q0 -257 125 -462t326 -318t413 -113q252 0 451.5 128.5t308.5 335t109 429.5t-109 429.5t-308.5 335t-451.5 128.5q-214 0 -414 -112t-325 -317t-125 -464z" />
    <glyph glyph-name="afii10050" unicode="&#xa5;" horiz-adv-x="1921" 
d="M410 2867h1200v615h270v-848h-1200v-2634h-270v2867z" />
    <glyph glyph-name="afii10050" unicode="&#x490;" horiz-adv-x="1921" 
d="M410 2867h1200v615h270v-848h-1200v-2634h-270v2867z" />
    <glyph glyph-name="brokenbar" unicode="&#xa6;" horiz-adv-x="745" 
d="M205 352h336v-352h-336v352zM205 2101h336v-352h-336v352z" />
    <glyph glyph-name="section" unicode="&#xa7;" horiz-adv-x="2388" 
d="M442 -762l33 254q331 -135 565 -135q277 0 407 116t130 273q0 221 -114.5 322t-340.5 190q-290 113 -455 203.5t-272.5 246.5t-107.5 406q0 494 520 709q-119 73 -188.5 201.5t-69.5 285.5q0 273 205.5 452t588.5 179q263 0 582 -123l-41 -246q-268 135 -536 135
q-236 0 -372 -107.5t-136 -289.5q0 -131 69.5 -213t150.5 -121t271 -112q257 -99 417.5 -199t256.5 -261t96 -400q0 -308 -170 -465.5t-350 -231.5v-4q181 -119 234 -260.5t53 -292.5q0 -149 -87.5 -294t-271.5 -239t-460 -94q-153 0 -271.5 23.5t-335.5 91.5zM1372 451
q239 103 338.5 241t99.5 340q0 166 -65.5 274t-225 195.5t-462.5 186.5q-199 -35 -347.5 -169.5t-148.5 -371.5q0 -177 74 -286.5t193.5 -175t351.5 -157.5z" />
    <glyph glyph-name="afii10023" unicode="&#xa8;" horiz-adv-x="2085" 
d="M410 2867h1392v-233h-1122v-1037h1069v-233h-1069v-1131h1200v-233h-1470v2867zM434 3457h283v-328h-283v328zM1372 3457h283v-328h-283v328z" />
    <glyph glyph-name="afii10023" unicode="&#x401;" horiz-adv-x="2085" 
d="M410 2867h1392v-233h-1122v-1037h1069v-233h-1069v-1131h1200v-233h-1470v2867zM434 3457h283v-328h-283v328zM1372 3457h283v-328h-283v328z" />
    <glyph glyph-name="copyright" unicode="&#xa9;" horiz-adv-x="3391" 
d="M205 1434q0 328 126 604.5t341.5 476t482 305t541.5 105.5q328 0 604 -126.5t475 -341.5t305.5 -481.5t106.5 -541.5q0 -277 -105.5 -544t-304 -482t-474.5 -340t-607 -125q-273 0 -540.5 106t-483 305.5t-341.5 477t-126 602.5zM2195 2236l-8 -184q-174 70 -458 70
q-321 0 -445.5 -218.5t-124.5 -473.5q0 -210 78.5 -365.5t218 -237.5t313.5 -82q214 0 410 78l21 -184q-182 -74 -435 -74q-199 0 -354.5 66.5t-262.5 187.5t-160.5 278t-53.5 333q0 238 90.5 438t266.5 317t421 117q301 0 483 -66zM369 1434q0 -294 110 -539t301.5 -422.5
t429.5 -272t486 -94.5q332 0 639 166t497.5 470t190.5 692q0 293 -111 540.5t-303 424t-428.5 269.5t-484.5 93t-485.5 -93.5t-428.5 -270t-302 -423.5t-111 -540z" />
    <glyph glyph-name="afii10053" unicode="&#xaa;" horiz-adv-x="2470" 
d="M2380 344l8 -258q-336 -119 -803 -119q-370 0 -635 133.5t-423 347t-230 460.5t-72 481q0 242 56.5 493.5t206 484.5t429.5 383t701 150q154 0 264 -8t228 -33.5t241 -77.5l-29 -254q-287 139 -680 139q-343 0 -587.5 -152.5t-373.5 -395.5t-153 -516h1414l-5 -234h-1421
q2 -246 83 -458t230.5 -372.5t353.5 -248.5t443 -88q416 0 754 143z" />
    <glyph glyph-name="afii10053" unicode="&#x404;" horiz-adv-x="2470" 
d="M2380 344l8 -258q-336 -119 -803 -119q-370 0 -635 133.5t-423 347t-230 460.5t-72 481q0 242 56.5 493.5t206 484.5t429.5 383t701 150q154 0 264 -8t228 -33.5t241 -77.5l-29 -254q-287 139 -680 139q-343 0 -587.5 -152.5t-373.5 -395.5t-153 -516h1414l-5 -234h-1421
q2 -246 83 -458t230.5 -372.5t353.5 -248.5t443 -88q416 0 754 143z" />
    <glyph glyph-name="guillemotleft" unicode="&#xab;" horiz-adv-x="2351" 
d="M983 2101h234l-537 -848l537 -847h-234l-573 851zM1708 2101h234l-537 -848l537 -847h-234l-573 851z" />
    <glyph glyph-name="logicalnot" unicode="&#xac;" horiz-adv-x="3097" 
d="M287 1655v229h2523v-1106h-242v877h-2281z" />
    <glyph glyph-name="registered" unicode="&#xae;" horiz-adv-x="3391" 
d="M1171 2302h492q274 0 407.5 -123.5t133.5 -343.5q0 -157 -107.5 -266.5t-273.5 -130.5v-8q128 -17 200 -189l295 -680h-209l-290 647q-39 85 -76.5 122.5t-157.5 37.5h-221v-807h-193v1741zM1364 2138v-606h238q156 0 276.5 78.5t120.5 224.5q0 303 -344 303h-291z
M205 1442q0 275 106 542.5t305 483t475.5 340.5t604.5 125q330 0 605.5 -125t475 -340t305 -482t105.5 -544q0 -328 -125 -604.5t-340.5 -475.5t-483 -305t-542.5 -106t-541 105.5t-482.5 305t-342 477.5t-125.5 603zM369 1442q0 -294 110 -539t302 -423t429.5 -271.5
t485.5 -93.5q332 0 639.5 166t497.5 469.5t190 691.5q0 293 -111 540.5t-303 424t-428.5 269.5t-484.5 93t-485.5 -93.5t-428.5 -270t-302 -423.5t-111 -540z" />
    <glyph glyph-name="afii10056" unicode="&#xaf;" horiz-adv-x="1073" 
d="M401 2867h271v-2867h-271v2867zM61 3457h287v-328h-287v328zM725 3457h287v-328h-287v328z" />
    <glyph glyph-name="afii10056" unicode="&#x407;" horiz-adv-x="1073" 
d="M401 2867h271v-2867h-271v2867zM61 3457h287v-328h-287v328zM725 3457h287v-328h-287v328z" />
    <glyph glyph-name="degree" unicode="&#xb0;" horiz-adv-x="1376" 
d="M229 2466q0 132 66 237.5t173 163.5t220 58t220 -58t173 -163.5t66 -237.5t-66 -238t-173 -163.5t-220 -57.5q-132 0 -237.5 66t-163.5 173t-58 220zM401 2466q0 -113 80.5 -200t206.5 -87t206.5 88.5t80.5 198.5t-80.5 198.5t-206.5 88.5q-127 0 -207 -87.5t-80 -199.5z
" />
    <glyph glyph-name="plusminus" unicode="&#xb1;" horiz-adv-x="3097" 
d="M287 172v229h2523v-229h-2523zM1663 631h-229v860h-1147v229h1147v975h229v-975h1147v-229h-1147v-860z" />
    <glyph glyph-name="afii10055" unicode="&#xb2;" horiz-adv-x="1090" 
d="M410 2867h270v-2867h-270v2867z" />
    <glyph glyph-name="afii10055" unicode="&#x406;" horiz-adv-x="1090" 
d="M410 2867h270v-2867h-270v2867z" />
    <glyph glyph-name="afii10103" unicode="&#xb3;" horiz-adv-x="651" 
d="M197 2101h258v-2101h-258v2101zM184 3031h283v-328h-283v328z" />
    <glyph glyph-name="afii10103" unicode="&#x456;" horiz-adv-x="651" 
d="M197 2101h258v-2101h-258v2101zM184 3031h283v-328h-283v328z" />
    <glyph glyph-name="afii10098" unicode="&#xb4;" horiz-adv-x="1602" 
d="M328 2101h999v410h234v-627h-975v-1884h-258v2101z" />
    <glyph glyph-name="afii10098" unicode="&#x491;" horiz-adv-x="1602" 
d="M328 2101h999v410h234v-627h-975v-1884h-258v2101z" />
    <glyph glyph-name="mu" unicode="&#xb5;" horiz-adv-x="2269" 
d="M1683 2101h259v-2101h-226v418q-54 -184 -193 -317.5t-372 -133.5q-201 0 -322 47t-243 187v-1098h-258v2998h258v-1216q0 -308 104 -504.5t461 -196.5q159 0 280 91.5t186.5 251.5t65.5 358v1216z" />
    <glyph glyph-name="paragraph" unicode="&#xb6;" horiz-adv-x="2212" 
d="M1286 -897h-229v2535q-352 0 -540.5 183.5t-188.5 431.5q0 151 79 294t219.5 231.5t315.5 88.5h344v-3764zM1573 2867h229v-3764h-229v3764z" />
    <glyph glyph-name="periodcentered" unicode="&#xb7;" horiz-adv-x="1507" 
d="M410 1462q0 134 98.5 239t245.5 105q153 0 248.5 -104t95.5 -240t-95 -240t-249 -104q-148 0 -246 104.5t-98 239.5z" />
    <glyph glyph-name="afii10071" unicode="&#xb8;" horiz-adv-x="2081" 
d="M1917 975h-1483q0 -212 88.5 -398t260.5 -299.5t405 -113.5q258 0 569 155v-237q-290 -123 -586 -123q-202 0 -383 64t-322 200t-221.5 352t-80.5 510q0 301 108.5 540.5t315 374t489.5 134.5q371 0 557.5 -189t234.5 -418.5t48 -469.5v-82zM434 1192h1213
q0 273 -118 499t-452 226q-213 0 -358.5 -111t-214 -278.5t-70.5 -335.5zM451 3031h282v-328h-282v328zM1348 3031h282v-328h-282v328z" />
    <glyph glyph-name="afii10071" unicode="&#x451;" horiz-adv-x="2081" 
d="M1917 975h-1483q0 -212 88.5 -398t260.5 -299.5t405 -113.5q258 0 569 155v-237q-290 -123 -586 -123q-202 0 -383 64t-322 200t-221.5 352t-80.5 510q0 301 108.5 540.5t315 374t489.5 134.5q371 0 557.5 -189t234.5 -418.5t48 -469.5v-82zM434 1192h1213
q0 273 -118 499t-452 226q-213 0 -358.5 -111t-214 -278.5t-70.5 -335.5zM451 3031h282v-328h-282v328zM1348 3031h282v-328h-282v328z" />
    <glyph glyph-name="afii61352" unicode="&#xb9;" horiz-adv-x="4604" 
d="M410 2867h348l1396 -2318l127 -262h9l-9 331v2249h271v-2867h-348l-1377 2273l-151 307h-12l16 -331v-2249h-270v2867zM3072 1749q0 198 67.5 342.5t194.5 222.5t299 78t299 -78t194.5 -222.5t67.5 -342.5t-67.5 -342.5t-194.5 -222.5t-299 -78t-299 78t-194.5 222.5
t-67.5 342.5zM3285 1749q0 -483 348 -483t348 483t-348 483t-348 -483zM3097 438h1073l-4 -233h-1069v233z" />
    <glyph glyph-name="afii61352" unicode="&#x2116;" horiz-adv-x="4604" 
d="M410 2867h348l1396 -2318l127 -262h9l-9 331v2249h271v-2867h-348l-1377 2273l-151 307h-12l16 -331v-2249h-270v2867zM3072 1749q0 198 67.5 342.5t194.5 222.5t299 78t299 -78t194.5 -222.5t67.5 -342.5t-67.5 -342.5t-194.5 -222.5t-299 -78t-299 78t-194.5 222.5
t-67.5 342.5zM3285 1749q0 -483 348 -483t348 483t-348 483t-348 -483zM3097 438h1073l-4 -233h-1069v233z" />
    <glyph glyph-name="afii10101" unicode="&#xba;" horiz-adv-x="1810" 
d="M1712 2052l-12 -229q-229 94 -561 94q-222 0 -373.5 -108t-229 -272t-94.5 -337h914v-217h-918q2 -193 77.5 -376t244 -303t428.5 -120q307 0 516 86l25 -229q-234 -74 -545 -74q-293 0 -526 132.5t-363.5 378t-130.5 571.5q0 336 128.5 582.5t345.5 374.5t476 128
q320 0 598 -82z" />
    <glyph glyph-name="afii10101" unicode="&#x454;" horiz-adv-x="1810" 
d="M1712 2052l-12 -229q-229 94 -561 94q-222 0 -373.5 -108t-229 -272t-94.5 -337h914v-217h-918q2 -193 77.5 -376t244 -303t428.5 -120q307 0 516 86l25 -229q-234 -74 -545 -74q-293 0 -526 132.5t-363.5 378t-130.5 571.5q0 336 128.5 582.5t345.5 374.5t476 128
q320 0 598 -82z" />
    <glyph glyph-name="guillemotright" unicode="&#xbb;" horiz-adv-x="2351" 
d="M410 2101h233l574 -844l-574 -851h-233l536 847zM1135 2101h233l574 -844l-574 -851h-233l536 847z" />
    <glyph glyph-name="afii10105" unicode="&#xbc;" horiz-adv-x="1364" 
d="M1036 2101v-2404q0 -594 -471 -594q-122 0 -237 37v209q115 -33 184 -33q266 0 266 356v2429h258zM778 3039h258v-327h-258v327z" />
    <glyph glyph-name="afii10105" unicode="&#x458;" horiz-adv-x="1364" 
d="M1036 2101v-2404q0 -594 -471 -594q-122 0 -237 37v209q115 -33 184 -33q266 0 266 356v2429h258zM778 3039h258v-327h-258v327z" />
    <glyph glyph-name="afii10054" unicode="&#xbd;" horiz-adv-x="2028" 
d="M205 94l28 266q338 -159 639 -159q158 0 310 53t251 166t99 280q0 175 -77 293t-200 198t-370 210q-211 110 -334 190.5t-224.5 229.5t-101.5 366q0 198 88 359t285.5 257.5t511.5 96.5q320 0 623 -102l-37 -254q-275 122 -586 122q-333 0 -463.5 -140.5t-130.5 -338.5
q0 -137 67.5 -231.5t173 -161.5t357.5 -205q260 -143 402 -250.5t224.5 -263.5t82.5 -387q0 -190 -100 -354t-315 -265.5t-536 -101.5q-340 0 -667 127z" />
    <glyph glyph-name="afii10054" unicode="&#x405;" horiz-adv-x="2028" 
d="M205 94l28 266q338 -159 639 -159q158 0 310 53t251 166t99 280q0 175 -77 293t-200 198t-370 210q-211 110 -334 190.5t-224.5 229.5t-101.5 366q0 198 88 359t285.5 257.5t511.5 96.5q320 0 623 -102l-37 -254q-275 122 -586 122q-333 0 -463.5 -140.5t-130.5 -338.5
q0 -137 67.5 -231.5t173 -161.5t357.5 -205q260 -143 402 -250.5t224.5 -263.5t82.5 -387q0 -190 -100 -354t-315 -265.5t-536 -101.5q-340 0 -667 127z" />
    <glyph glyph-name="afii10102" unicode="&#xbe;" horiz-adv-x="1716" 
d="M1438 2023l-17 -204q-239 98 -495 98q-265 0 -352 -99.5t-87 -195.5q0 -149 89.5 -226.5t336.5 -178.5q167 -68 288 -135.5t215.5 -195t94.5 -321.5q0 -259 -196 -428.5t-557 -169.5q-293 0 -553 94l16 246q258 -123 545 -123q291 0 383 131.5t92 249.5
q0 177 -92.5 255.5t-255.5 150.5q-191 81 -285.5 128t-183.5 118t-140 170.5t-51 234.5q0 224 190 368t515 144q253 0 500 -111z" />
    <glyph glyph-name="afii10102" unicode="&#x455;" horiz-adv-x="1716" 
d="M1438 2023l-17 -204q-239 98 -495 98q-265 0 -352 -99.5t-87 -195.5q0 -149 89.5 -226.5t336.5 -178.5q167 -68 288 -135.5t215.5 -195t94.5 -321.5q0 -259 -196 -428.5t-557 -169.5q-293 0 -553 94l16 246q258 -123 545 -123q291 0 383 131.5t92 249.5
q0 177 -92.5 255.5t-255.5 150.5q-191 81 -285.5 128t-183.5 118t-140 170.5t-51 234.5q0 224 190 368t515 144q253 0 500 -111z" />
    <glyph glyph-name="afii10104" unicode="&#xbf;" horiz-adv-x="1323" 
d="M184 3031h271v-328h-271v328zM868 3031h271v-328h-271v328zM532 2101h259v-2101h-259v2101z" />
    <glyph glyph-name="afii10104" unicode="&#x457;" horiz-adv-x="1323" 
d="M184 3031h271v-328h-271v328zM868 3031h271v-328h-271v328zM532 2101h259v-2101h-259v2101z" />
    <glyph glyph-name="afii10017" unicode="&#xc0;" horiz-adv-x="2822" 
d="M1200 2867h352l1209 -2867h-291l-332 791h-1466l-320 -791h-291zM1380 2601h-12l-90 -270l-520 -1307h1282l-557 1307z" />
    <glyph glyph-name="afii10017" unicode="&#x410;" horiz-adv-x="2822" 
d="M1200 2867h352l1209 -2867h-291l-332 791h-1466l-320 -791h-291zM1380 2601h-12l-90 -270l-520 -1307h1282l-557 1307z" />
    <glyph glyph-name="afii10018" unicode="&#xc1;" horiz-adv-x="2351" 
d="M410 2867h1532v-233h-1262v-1020h491q360 0 568.5 -126.5t287 -308.5t78.5 -368q0 -241 -108.5 -424.5t-325 -285t-520.5 -101.5h-741v2867zM680 1380v-1147h418q289 0 448.5 91.5t214 220t54.5 266.5q0 247 -129 374t-283.5 161t-300.5 34h-422z" />
    <glyph glyph-name="afii10018" unicode="&#x411;" horiz-adv-x="2351" 
d="M410 2867h1532v-233h-1262v-1020h491q360 0 568.5 -126.5t287 -308.5t78.5 -368q0 -241 -108.5 -424.5t-325 -285t-520.5 -101.5h-741v2867zM680 1380v-1147h418q289 0 448.5 91.5t214 220t54.5 266.5q0 247 -129 374t-283.5 161t-300.5 34h-422z" />
    <glyph glyph-name="afii10019" unicode="&#xc2;" horiz-adv-x="2363" 
d="M410 2867h766q441 0 640 -210t199 -511q0 -487 -495 -647v-12q159 -29 290.5 -120.5t209 -235t77.5 -324.5q0 -186 -72 -365.5t-283.5 -310.5t-590.5 -131h-741v2867zM680 2634v-1037h459q264 0 424.5 146.5t160.5 398.5q0 238 -155.5 365t-421.5 127h-467zM680 1364
v-1131h434q692 0 692 570q0 249 -140 374t-286 156t-237 31h-463z" />
    <glyph glyph-name="afii10019" unicode="&#x412;" horiz-adv-x="2363" 
d="M410 2867h766q441 0 640 -210t199 -511q0 -487 -495 -647v-12q159 -29 290.5 -120.5t209 -235t77.5 -324.5q0 -186 -72 -365.5t-283.5 -310.5t-590.5 -131h-741v2867zM680 2634v-1037h459q264 0 424.5 146.5t160.5 398.5q0 238 -155.5 365t-421.5 127h-467zM680 1364
v-1131h434q692 0 692 570q0 249 -140 374t-286 156t-237 31h-463z" />
    <glyph glyph-name="afii10020" unicode="&#xc3;" horiz-adv-x="1921" 
d="M410 2867h1470v-233h-1200v-2634h-270v2867z" />
    <glyph glyph-name="afii10020" unicode="&#x413;" horiz-adv-x="1921" 
d="M410 2867h1470v-233h-1200v-2634h-270v2867z" />
    <glyph glyph-name="afii10021" unicode="&#xc4;" horiz-adv-x="2859" 
d="M725 2867h1638v-2634h332v-856h-270v623h-2073v-623h-270v856h242q178 269 266 534t111.5 511.5t23.5 597.5v205v786zM2093 2634h-1098v-586q0 -444 -17.5 -705t-95.5 -537t-251 -573h1462v2401z" />
    <glyph glyph-name="afii10021" unicode="&#x414;" horiz-adv-x="2859" 
d="M725 2867h1638v-2634h332v-856h-270v623h-2073v-623h-270v856h242q178 269 266 534t111.5 511.5t23.5 597.5v205v786zM2093 2634h-1098v-586q0 -444 -17.5 -705t-95.5 -537t-251 -573h1462v2401z" />
    <glyph glyph-name="afii10022" unicode="&#xc5;" horiz-adv-x="2085" 
d="M410 2867h1392v-233h-1122v-1037h1069v-233h-1069v-1131h1200v-233h-1470v2867z" />
    <glyph glyph-name="afii10022" unicode="&#x415;" horiz-adv-x="2085" 
d="M410 2867h1392v-233h-1122v-1037h1069v-233h-1069v-1131h1200v-233h-1470v2867z" />
    <glyph glyph-name="afii10024" unicode="&#xc6;" horiz-adv-x="3547" 
d="M1638 2867h271v-1306h12l1155 1306h328l-1209 -1343l1344 -1524h-389l-1229 1450h-12v-1450h-271v1450h-12l-1229 -1450h-389l1344 1524l-1209 1343h328l1155 -1306h12v1306z" />
    <glyph glyph-name="afii10024" unicode="&#x416;" horiz-adv-x="3547" 
d="M1638 2867h271v-1306h12l1155 1306h328l-1209 -1343l1344 -1524h-389l-1229 1450h-12v-1450h-271v1450h-12l-1229 -1450h-389l1344 1524l-1209 1343h328l1155 -1306h12v1306z" />
    <glyph glyph-name="afii10025" unicode="&#xc7;" horiz-adv-x="2081" 
d="M520 1380v234h336q676 0 676 586q0 230 -190.5 348t-481.5 118q-122 0 -306.5 -37t-381.5 -122l-20 258q358 135 708 135q287 0 504.5 -84t338 -245.5t120.5 -383.5q0 -251 -117 -432.5t-350 -243.5v-8q258 -49 409.5 -246.5t151.5 -506.5q0 -187 -83.5 -334t-232 -247
t-341 -151t-404.5 -51q-406 0 -774 180l37 254q221 -118 418 -159t319 -41q225 0 400 70t272.5 196.5t97.5 282.5q0 282 -178.5 456t-579.5 174h-348z" />
    <glyph glyph-name="afii10025" unicode="&#x417;" horiz-adv-x="2081" 
d="M520 1380v234h336q676 0 676 586q0 230 -190.5 348t-481.5 118q-122 0 -306.5 -37t-381.5 -122l-20 258q358 135 708 135q287 0 504.5 -84t338 -245.5t120.5 -383.5q0 -251 -117 -432.5t-350 -243.5v-8q258 -49 409.5 -246.5t151.5 -506.5q0 -187 -83.5 -334t-232 -247
t-341 -151t-404.5 -51q-406 0 -774 180l37 254q221 -118 418 -159t319 -41q225 0 400 70t272.5 196.5t97.5 282.5q0 282 -178.5 456t-579.5 174h-348z" />
    <glyph glyph-name="afii10026" unicode="&#xc8;" horiz-adv-x="2937" 
d="M410 2867h270v-2154l-16 -348h12l160 290l1384 2212h307v-2867h-270v2154l16 349h-12l-143 -271l-1401 -2232h-307v2867z" />
    <glyph glyph-name="afii10026" unicode="&#x418;" horiz-adv-x="2937" 
d="M410 2867h270v-2154l-16 -348h12l160 290l1384 2212h307v-2867h-270v2154l16 349h-12l-143 -271l-1401 -2232h-307v2867z" />
    <glyph glyph-name="afii10027" unicode="&#xc9;" horiz-adv-x="2937" 
d="M410 2867h270v-2154l-16 -348h12l155 290l1389 2212h307v-2867h-270v2154l16 349h-12l-143 -271l-1401 -2232h-307v2867zM991 3547q195 -233 475 -233q281 0 476 233l122 -156q-239 -319 -598 -319q-182 0 -337.5 87.5t-260.5 231.5z" />
    <glyph glyph-name="afii10027" unicode="&#x419;" horiz-adv-x="2937" 
d="M410 2867h270v-2154l-16 -348h12l155 290l1389 2212h307v-2867h-270v2154l16 349h-12l-143 -271l-1401 -2232h-307v2867zM991 3547q195 -233 475 -233q281 0 476 233l122 -156q-239 -319 -598 -319q-182 0 -337.5 87.5t-260.5 231.5z" />
    <glyph glyph-name="afii10028" unicode="&#xca;" horiz-adv-x="2589" 
d="M410 2867h270v-1311h12l1315 1311h344l-1393 -1356l1549 -1511h-381l-1434 1446h-12v-1446h-270v2867z" />
    <glyph glyph-name="afii10028" unicode="&#x41a;" horiz-adv-x="2589" 
d="M410 2867h270v-1311h12l1315 1311h344l-1393 -1356l1549 -1511h-381l-1434 1446h-12v-1446h-270v2867z" />
    <glyph glyph-name="afii10029" unicode="&#xcb;" horiz-adv-x="2736" 
d="M684 2867h1643v-2867h-271v2634h-1102v-758v-250q0 -374 -18 -649t-82.5 -505t-202.5 -367.5t-368 -137.5q-112 0 -201 29l16 225q75 -20 164 -20q183 0 276 196t119.5 481t26.5 674v336v979z" />
    <glyph glyph-name="afii10029" unicode="&#x41b;" horiz-adv-x="2736" 
d="M684 2867h1643v-2867h-271v2634h-1102v-758v-250q0 -374 -18 -649t-82.5 -505t-202.5 -367.5t-368 -137.5q-112 0 -201 29l16 225q75 -20 164 -20q183 0 276 196t119.5 481t26.5 674v336v979z" />
    <glyph glyph-name="afii10030" unicode="&#xcc;" horiz-adv-x="3834" 
d="M1909 258h16l119 381l954 2228h426v-2867h-270v2220l8 389h-16l-140 -377l-950 -2232h-278l-951 2232l-139 377h-16l8 -389v-2220h-270v2867h426l954 -2228z" />
    <glyph glyph-name="afii10030" unicode="&#x41c;" horiz-adv-x="3834" 
d="M1909 258h16l119 381l954 2228h426v-2867h-270v2220l8 389h-16l-140 -377l-950 -2232h-278l-951 2232l-139 377h-16l8 -389v-2220h-270v2867h426l954 -2228z" />
    <glyph glyph-name="afii10031" unicode="&#xcd;" horiz-adv-x="2441" 
d="M205 2867h270v-1265h1491v1265h270v-2867h-270v1368h-1491v-1368h-270v2867z" />
    <glyph glyph-name="afii10031" unicode="&#x41d;" horiz-adv-x="2441" 
d="M205 2867h270v-1265h1491v1265h270v-2867h-270v1368h-1491v-1368h-270v2867z" />
    <glyph glyph-name="afii10032" unicode="&#xce;" horiz-adv-x="3047" 
d="M225 1430q0 429 158.5 763.5t453.5 520.5t687 186q295 0 536 -106t411.5 -302.5t260.5 -467t90 -594.5q0 -273 -74 -531t-231 -469.5t-407.5 -337t-585.5 -125.5t-584.5 125t-407 336.5t-232.5 472.5t-75 529zM516 1430q0 -431 152 -707t381.5 -399t474.5 -123
q176 0 353.5 67t325 212t238 383t90.5 567q0 430 -152 708.5t-383.5 403t-471.5 124.5q-241 0 -472 -124t-383.5 -403t-152.5 -709z" />
    <glyph glyph-name="afii10032" unicode="&#x41e;" horiz-adv-x="3047" 
d="M225 1430q0 429 158.5 763.5t453.5 520.5t687 186q295 0 536 -106t411.5 -302.5t260.5 -467t90 -594.5q0 -273 -74 -531t-231 -469.5t-407.5 -337t-585.5 -125.5t-584.5 125t-407 336.5t-232.5 472.5t-75 529zM516 1430q0 -431 152 -707t381.5 -399t474.5 -123
q176 0 353.5 67t325 212t238 383t90.5 567q0 430 -152 708.5t-383.5 403t-471.5 124.5q-241 0 -472 -124t-383.5 -403t-152.5 -709z" />
    <glyph glyph-name="afii10033" unicode="&#xcf;" horiz-adv-x="2855" 
d="M410 2867h2035v-2867h-270v2634h-1495v-2634h-270v2867z" />
    <glyph glyph-name="afii10033" unicode="&#x41f;" horiz-adv-x="2855" 
d="M410 2867h2035v-2867h-270v2634h-1495v-2634h-270v2867z" />
    <glyph glyph-name="afii10034" unicode="&#xd0;" horiz-adv-x="2179" 
d="M410 2867h745q244 0 439.5 -96t308 -284t112.5 -447q0 -260 -111.5 -448t-307 -284t-441.5 -96h-475v-1212h-270v2867zM680 2634v-1188h422q209 0 415.5 109.5t206.5 484.5q0 279 -164 436.5t-458 157.5h-422z" />
    <glyph glyph-name="afii10034" unicode="&#x420;" horiz-adv-x="2179" 
d="M410 2867h745q244 0 439.5 -96t308 -284t112.5 -447q0 -260 -111.5 -448t-307 -284t-441.5 -96h-475v-1212h-270v2867zM680 2634v-1188h422q209 0 415.5 109.5t206.5 484.5q0 279 -164 436.5t-458 157.5h-422z" />
    <glyph glyph-name="afii10035" unicode="&#xd1;" horiz-adv-x="2687" 
d="M2564 336v-258q-344 -111 -795 -111q-327 0 -583.5 114t-429.5 314.5t-259.5 458t-86.5 535.5q0 403 150.5 747.5t465.5 554t776 209.5q445 0 733 -111l-24 -245q-300 122 -684 122q-314 0 -571 -155.5t-406.5 -447.5t-149.5 -679q0 -260 85 -482t237 -378t354.5 -239.5
t433.5 -83.5t440.5 46t313.5 89z" />
    <glyph glyph-name="afii10035" unicode="&#x421;" horiz-adv-x="2687" 
d="M2564 336v-258q-344 -111 -795 -111q-327 0 -583.5 114t-429.5 314.5t-259.5 458t-86.5 535.5q0 403 150.5 747.5t465.5 554t776 209.5q445 0 733 -111l-24 -245q-300 122 -684 122q-314 0 -571 -155.5t-406.5 -447.5t-149.5 -679q0 -260 85 -482t237 -378t354.5 -239.5
t433.5 -83.5t440.5 46t313.5 89z" />
    <glyph glyph-name="afii10036" unicode="&#xd2;" horiz-adv-x="2109" 
d="M61 2867h1987v-233h-856v-2634h-270v2634h-861v233z" />
    <glyph glyph-name="afii10036" unicode="&#x422;" horiz-adv-x="2109" 
d="M61 2867h1987v-233h-856v-2634h-270v2634h-861v233z" />
    <glyph glyph-name="afii10037" unicode="&#xd3;" horiz-adv-x="2507" 
d="M123 2867h303l737 -1524l148 -360h12l127 344l639 1540h295l-1016 -2412q-98 -227 -216 -363.5t-337 -136.5q-122 0 -287 61l13 230q116 -58 209 -58q134 0 210.5 94t137.5 242l69 172z" />
    <glyph glyph-name="afii10037" unicode="&#x423;" horiz-adv-x="2507" 
d="M123 2867h303l737 -1524l148 -360h12l127 344l639 1540h295l-1016 -2412q-98 -227 -216 -363.5t-337 -136.5q-122 0 -287 61l13 230q116 -58 209 -58q134 0 210.5 94t137.5 242l69 172z" />
    <glyph glyph-name="afii10038" unicode="&#xd4;" horiz-adv-x="3498" 
d="M1614 3039h270v-340h127q361 0 650 -162.5t450.5 -446.5t161.5 -632q0 -347 -162 -632t-450.5 -447t-649.5 -162h-127v-348h-270v348h-127q-361 0 -649.5 162t-450.5 447t-162 632q0 348 161.5 632t450.5 446.5t650 162.5h127v340zM1614 451v2015h-127
q-297 0 -518 -128.5t-337 -358t-116 -521.5t116 -521t335.5 -357.5t519.5 -128.5h127zM1884 2466v-2015h127q300 0 519.5 128.5t335.5 357.5t116 521t-116 521.5t-337 358t-518 128.5h-127z" />
    <glyph glyph-name="afii10038" unicode="&#x424;" horiz-adv-x="3498" 
d="M1614 3039h270v-340h127q361 0 650 -162.5t450.5 -446.5t161.5 -632q0 -347 -162 -632t-450.5 -447t-649.5 -162h-127v-348h-270v348h-127q-361 0 -649.5 162t-450.5 447t-162 632q0 348 161.5 632t450.5 446.5t650 162.5h127v340zM1614 451v2015h-127
q-297 0 -518 -128.5t-337 -358t-116 -521.5t116 -521t335.5 -357.5t519.5 -128.5h127zM1884 2466v-2015h127q300 0 519.5 128.5t335.5 357.5t116 521t-116 521.5t-337 358t-518 128.5h-127z" />
    <glyph glyph-name="afii10039" unicode="&#xd5;" horiz-adv-x="2634" 
d="M143 2867h336l738 -1036l90 -135h4l94 135l733 1036h311l-970 -1347l1073 -1520h-336l-741 1053l-168 274h-9l-172 -287l-720 -1040h-324l1057 1520z" />
    <glyph glyph-name="afii10039" unicode="&#x425;" horiz-adv-x="2634" 
d="M143 2867h336l738 -1036l90 -135h4l94 135l733 1036h311l-970 -1347l1073 -1520h-336l-741 1053l-168 274h-9l-172 -287l-720 -1040h-324l1057 1520z" />
    <glyph glyph-name="afii10040" unicode="&#xd6;" horiz-adv-x="2982" 
d="M410 2867h270v-2634h1524v2634h270v-2634h344l-4 -856h-270v623h-2134v2867z" />
    <glyph glyph-name="afii10040" unicode="&#x426;" horiz-adv-x="2982" 
d="M410 2867h270v-2634h1524v2634h270v-2634h344l-4 -856h-270v623h-2134v2867z" />
    <glyph glyph-name="afii10041" unicode="&#xd7;" horiz-adv-x="2597" 
d="M246 2867h270v-950q0 -247 162 -379.5t588 -132.5q239 0 487 33l164 20v1409h270v-2867h-270v1225l-164 -17q-263 -28 -504 -28q-556 0 -779.5 178t-223.5 555v954z" />
    <glyph glyph-name="afii10041" unicode="&#x427;" horiz-adv-x="2597" 
d="M246 2867h270v-950q0 -247 162 -379.5t588 -132.5q239 0 487 33l164 20v1409h270v-2867h-270v1225l-164 -17q-263 -28 -504 -28q-556 0 -779.5 178t-223.5 555v954z" />
    <glyph glyph-name="afii10042" unicode="&#xd8;" horiz-adv-x="4219" 
d="M1974 2867h271v-2634h1294v2634h270v-2867h-3399v2867h270v-2634h1294v2634z" />
    <glyph glyph-name="afii10042" unicode="&#x428;" horiz-adv-x="4219" 
d="M1974 2867h271v-2634h1294v2634h270v-2867h-3399v2867h270v-2634h1294v2634z" />
    <glyph glyph-name="afii10043" unicode="&#xd9;" horiz-adv-x="4284" 
d="M1974 2867h271v-2634h1294v2634h270v-2634h312l-5 -856h-270v623h-3436v2867h270v-2634h1294v2634z" />
    <glyph glyph-name="afii10043" unicode="&#x429;" horiz-adv-x="4284" 
d="M1974 2867h271v-2634h1294v2634h270v-2634h312l-5 -856h-270v623h-3436v2867h270v-2634h1294v2634z" />
    <glyph glyph-name="afii10044" unicode="&#xda;" horiz-adv-x="2753" 
d="M82 2867h942v-1175h459q408 0 636.5 -133.5t308 -322t79.5 -384.5q0 -241 -118 -436t-321.5 -305.5t-445.5 -110.5h-868v2634h-672v233zM1024 1458v-1225h516q233 0 386 90.5t221.5 229t68.5 291.5q0 270 -132.5 406.5t-291.5 172t-313 35.5h-455z" />
    <glyph glyph-name="afii10044" unicode="&#x42a;" horiz-adv-x="2753" 
d="M82 2867h942v-1175h459q408 0 636.5 -133.5t308 -322t79.5 -384.5q0 -241 -118 -436t-321.5 -305.5t-445.5 -110.5h-868v2634h-672v233zM1024 1458v-1225h516q233 0 386 90.5t221.5 229t68.5 291.5q0 270 -132.5 406.5t-291.5 172t-313 35.5h-455z" />
    <glyph glyph-name="afii10045" unicode="&#xdb;" horiz-adv-x="3301" 
d="M410 2867h270v-1175h459q410 0 638.5 -133.5t307 -320.5t78.5 -386q0 -241 -117.5 -435.5t-322 -305.5t-445.5 -111h-868v2867zM680 1458v-1225h516q233 0 386 90.5t221.5 229t68.5 291.5q0 270 -132.5 406.5t-291.5 172t-313 35.5h-455zM2621 2867h271v-2867h-271v2867z
" />
    <glyph glyph-name="afii10045" unicode="&#x42b;" horiz-adv-x="3301" 
d="M410 2867h270v-1175h459q410 0 638.5 -133.5t307 -320.5t78.5 -386q0 -241 -117.5 -435.5t-322 -305.5t-445.5 -111h-868v2867zM680 1458v-1225h516q233 0 386 90.5t221.5 229t68.5 291.5q0 270 -132.5 406.5t-291.5 172t-313 35.5h-455zM2621 2867h271v-2867h-271v2867z
" />
    <glyph glyph-name="afii10046" unicode="&#xdc;" horiz-adv-x="2408" 
d="M410 2867h270v-1175h459q410 0 638.5 -133.5t307 -320.5t78.5 -386q0 -241 -117.5 -435.5t-322 -305.5t-445.5 -111h-868v2867zM680 1458v-1225h516q233 0 386 90.5t221.5 229t68.5 291.5q0 270 -132.5 406.5t-291.5 172t-313 35.5h-455z" />
    <glyph glyph-name="afii10046" unicode="&#x42c;" horiz-adv-x="2408" 
d="M410 2867h270v-1175h459q410 0 638.5 -133.5t307 -320.5t78.5 -386q0 -241 -117.5 -435.5t-322 -305.5t-445.5 -111h-868v2867zM680 1458v-1225h516q233 0 386 90.5t221.5 229t68.5 291.5q0 270 -132.5 406.5t-291.5 172t-313 35.5h-455z" />
    <glyph glyph-name="afii10047" unicode="&#xdd;" horiz-adv-x="2593" 
d="M549 1372v234h1528q-18 261 -139 503t-369.5 399.5t-618.5 157.5q-438 0 -778 -196l-29 258q361 172 791 172q349 0 621 -110.5t452.5 -309.5t270 -458.5t89.5 -563.5q0 -309 -91.5 -579t-281 -476t-477 -321t-665.5 -115q-370 0 -672 115v270q303 -151 668 -151
q276 0 504 81.5t389.5 233.5t248.5 368.5t87 487.5h-1528z" />
    <glyph glyph-name="afii10047" unicode="&#x42d;" horiz-adv-x="2593" 
d="M549 1372v234h1528q-18 261 -139 503t-369.5 399.5t-618.5 157.5q-438 0 -778 -196l-29 258q361 172 791 172q349 0 621 -110.5t452.5 -309.5t270 -458.5t89.5 -563.5q0 -309 -91.5 -579t-281 -476t-477 -321t-665.5 -115q-370 0 -672 115v270q303 -151 668 -151
q276 0 504 81.5t389.5 233.5t248.5 368.5t87 487.5h-1528z" />
    <glyph glyph-name="afii10048" unicode="&#xde;" horiz-adv-x="3985" 
d="M680 1602h491q23 317 163.5 613.5t423.5 490.5t704 194q295 0 536 -106t411.5 -302.5t260.5 -467t90 -594.5q0 -273 -74 -531t-231 -469.5t-407.5 -337t-585.5 -125.5q-394 0 -686.5 184.5t-448 504t-160.5 712.5h-487v-1368h-270v2867h270v-1265zM1458 1430
q0 -431 151.5 -707t381 -399t471.5 -123q176 0 353.5 67t325 212t238 383t90.5 567q0 430 -152 708.5t-383.5 403t-471.5 124.5q-238 0 -468.5 -124t-383 -403t-152.5 -709z" />
    <glyph glyph-name="afii10048" unicode="&#x42e;" horiz-adv-x="3985" 
d="M680 1602h491q23 317 163.5 613.5t423.5 490.5t704 194q295 0 536 -106t411.5 -302.5t260.5 -467t90 -594.5q0 -273 -74 -531t-231 -469.5t-407.5 -337t-585.5 -125.5q-394 0 -686.5 184.5t-448 504t-160.5 712.5h-487v-1368h-270v2867h270v-1265zM1458 1430
q0 -431 151.5 -707t381 -399t471.5 -123q176 0 353.5 67t325 212t238 383t90.5 567q0 430 -152 708.5t-383.5 403t-471.5 124.5q-238 0 -468.5 -124t-383 -403t-152.5 -709z" />
    <glyph glyph-name="afii10049" unicode="&#xdf;" horiz-adv-x="2494" 
d="M2085 2867v-2867h-270v1225h-578l-639 -1225h-332l697 1278q-260 78 -417 281t-157 481q0 366 241 596.5t652 230.5h803zM1815 1458v1176h-558q-189 0 -319.5 -84t-194 -220.5t-63.5 -289.5q0 -198 86 -329.5t219 -192t272 -60.5h558z" />
    <glyph glyph-name="afii10049" unicode="&#x42f;" horiz-adv-x="2494" 
d="M2085 2867v-2867h-270v1225h-578l-639 -1225h-332l697 1278q-260 78 -417 281t-157 481q0 366 241 596.5t652 230.5h803zM1815 1458v1176h-558q-189 0 -319.5 -84t-194 -220.5t-63.5 -289.5q0 -198 86 -329.5t219 -192t272 -60.5h558z" />
    <glyph glyph-name="afii10065" unicode="&#xe0;" horiz-adv-x="2122" 
d="M414 1757v246q298 131 626 131q324 0 488.5 -133.5t209 -301t44.5 -347.5v-893l12 -459h-229v356h-9q-211 -389 -684 -389q-230 0 -385.5 85.5t-229 220.5t-73.5 288q0 433 340.5 577t864.5 144h135v74q0 561 -484 561q-340 0 -626 -160zM1524 1065h-234
q-382 0 -608.5 -106.5t-226.5 -380.5q0 -119 57.5 -208.5t152 -137.5t203.5 -48q214 0 361.5 93.5t221 259t73.5 376.5v152z" />
    <glyph glyph-name="afii10065" unicode="&#x430;" horiz-adv-x="2122" 
d="M414 1757v246q298 131 626 131q324 0 488.5 -133.5t209 -301t44.5 -347.5v-893l12 -459h-229v356h-9q-211 -389 -684 -389q-230 0 -385.5 85.5t-229 220.5t-73.5 288q0 433 340.5 577t864.5 144h135v74q0 561 -484 561q-340 0 -626 -160zM1524 1065h-234
q-382 0 -608.5 -106.5t-226.5 -380.5q0 -119 57.5 -208.5t152 -137.5t203.5 -48q214 0 361.5 93.5t221 259t73.5 376.5v152z" />
    <glyph glyph-name="afii10066" unicode="&#xe1;" horiz-adv-x="2413" 
d="M2048 3170v-241q-286 -45 -635 -70q-217 -17 -378 -63t-297.5 -167.5t-218 -359t-81.5 -610.5v-98h13q61 177 181.5 308t277.5 198t323 67q255 0 481.5 -112.5t370 -361t143.5 -628.5q0 -255 -78.5 -455t-217.5 -336t-320.5 -205t-382.5 -69q-324 0 -531.5 140
t-313.5 370.5t-142.5 496.5t-36.5 578q0 483 105.5 789.5t280.5 461.5t373 210.5t461 78.5l165 14t149 15t158 22.5t151 26.5zM516 1032q0 -288 104.5 -479t269.5 -280t347 -89t347 89t269.5 280t104.5 479q0 297 -106 498t-271.5 294t-343.5 93t-343.5 -93t-271.5 -294
t-106 -498z" />
    <glyph glyph-name="afii10066" unicode="&#x431;" horiz-adv-x="2413" 
d="M2048 3170v-241q-286 -45 -635 -70q-217 -17 -378 -63t-297.5 -167.5t-218 -359t-81.5 -610.5v-98h13q61 177 181.5 308t277.5 198t323 67q255 0 481.5 -112.5t370 -361t143.5 -628.5q0 -255 -78.5 -455t-217.5 -336t-320.5 -205t-382.5 -69q-324 0 -531.5 140
t-313.5 370.5t-142.5 496.5t-36.5 578q0 483 105.5 789.5t280.5 461.5t373 210.5t461 78.5l165 14t149 15t158 22.5t151 26.5zM516 1032q0 -288 104.5 -479t269.5 -280t347 -89t347 89t269.5 280t104.5 479q0 297 -106 498t-271.5 294t-343.5 93t-343.5 -93t-271.5 -294
t-106 -498z" />
    <glyph glyph-name="afii10067" unicode="&#xe2;" horiz-adv-x="2179" 
d="M328 2101h831q224 0 370.5 -78.5t213.5 -205t67 -273.5q0 -291 -290 -430v-8q185 -40 289 -189t104 -331q0 -246 -173.5 -416t-535.5 -170h-876v2101zM586 1884v-684h557q203 0 306 94t103 230q0 150 -97.5 255t-311.5 105h-557zM586 983v-766h598q219 0 338.5 103
t119.5 266q0 181 -127 289t-372 108h-557z" />
    <glyph glyph-name="afii10067" unicode="&#x432;" horiz-adv-x="2179" 
d="M328 2101h831q224 0 370.5 -78.5t213.5 -205t67 -273.5q0 -291 -290 -430v-8q185 -40 289 -189t104 -331q0 -246 -173.5 -416t-535.5 -170h-876v2101zM586 1884v-684h557q203 0 306 94t103 230q0 150 -97.5 255t-311.5 105h-557zM586 983v-766h598q219 0 338.5 103
t119.5 266q0 181 -127 289t-372 108h-557z" />
    <glyph glyph-name="afii10068" unicode="&#xe3;" horiz-adv-x="1618" 
d="M328 2101h1286v-217h-1028v-1884h-258v2101z" />
    <glyph glyph-name="afii10068" unicode="&#x433;" horiz-adv-x="1618" 
d="M328 2101h1286v-217h-1028v-1884h-258v2101z" />
    <glyph glyph-name="afii10069" unicode="&#xe4;" horiz-adv-x="2384" 
d="M553 2101h1401v-1884h307v-782h-258v565h-1724v-565h-259v782h230q183 267 243 508.5t60 572.5v803zM545 217h1151v1667h-885v-590q0 -249 -23.5 -421.5t-79 -322t-163.5 -333.5z" />
    <glyph glyph-name="afii10069" unicode="&#x434;" horiz-adv-x="2384" 
d="M553 2101h1401v-1884h307v-782h-258v565h-1724v-565h-259v782h230q183 267 243 508.5t60 572.5v803zM545 217h1151v1667h-885v-590q0 -249 -23.5 -421.5t-79 -322t-163.5 -333.5z" />
    <glyph glyph-name="afii10070" unicode="&#xe5;" horiz-adv-x="2081" 
d="M1917 975h-1483q0 -212 88.5 -398t260.5 -299.5t405 -113.5q258 0 569 155v-237q-290 -123 -586 -123q-202 0 -383 64t-322 200t-221.5 352t-80.5 510q0 301 108.5 540.5t315 374t489.5 134.5q371 0 557.5 -189t234.5 -418.5t48 -469.5v-82zM434 1192h1213
q0 273 -118 499t-452 226q-213 0 -358.5 -111t-214 -278.5t-70.5 -335.5z" />
    <glyph glyph-name="afii10070" unicode="&#x435;" horiz-adv-x="2081" 
d="M1917 975h-1483q0 -212 88.5 -398t260.5 -299.5t405 -113.5q258 0 569 155v-237q-290 -123 -586 -123q-202 0 -383 64t-322 200t-221.5 352t-80.5 510q0 301 108.5 540.5t315 374t489.5 134.5q371 0 557.5 -189t234.5 -418.5t48 -469.5v-82zM434 1192h1213
q0 273 -118 499t-452 226q-213 0 -358.5 -111t-214 -278.5t-70.5 -335.5z" />
    <glyph glyph-name="afii10072" unicode="&#xe6;" horiz-adv-x="3035" 
d="M1389 2101h258v-950h12l921 950h316l-963 -979l1082 -1122h-369l-987 1057h-12v-1057h-258v1057h-13l-987 -1057h-369l1082 1122l-963 979h316l921 -950h13v950z" />
    <glyph glyph-name="afii10072" unicode="&#x436;" horiz-adv-x="3035" 
d="M1389 2101h258v-950h12l921 950h316l-963 -979l1082 -1122h-369l-987 1057h-12v-1057h-258v1057h-13l-987 -1057h-369l1082 1122l-963 979h316l921 -950h13v950z" />
    <glyph glyph-name="afii10073" unicode="&#xe7;" horiz-adv-x="1835" 
d="M528 983v217h205q233 0 364.5 90.5t131.5 274.5q0 116 -97.5 234t-402.5 118q-262 0 -512 -119l-8 225q277 111 545 111q350 0 541.5 -153.5t191.5 -411.5q0 -166 -82 -283t-229 -168v-12q156 -30 284.5 -148t128.5 -372q0 -159 -83.5 -299t-271 -230t-480.5 -90
q-313 0 -631 139l29 238q278 -160 606 -160q238 0 399.5 104t161.5 298q0 152 -70.5 240.5t-199.5 122.5t-316 34h-205z" />
    <glyph glyph-name="afii10073" unicode="&#x437;" horiz-adv-x="1835" 
d="M528 983v217h205q233 0 364.5 90.5t131.5 274.5q0 116 -97.5 234t-402.5 118q-262 0 -512 -119l-8 225q277 111 545 111q350 0 541.5 -153.5t191.5 -411.5q0 -166 -82 -283t-229 -168v-12q156 -30 284.5 -148t128.5 -372q0 -159 -83.5 -299t-271 -230t-480.5 -90
q-313 0 -631 139l29 238q278 -160 606 -160q238 0 399.5 104t161.5 298q0 152 -70.5 240.5t-199.5 122.5t-316 34h-205z" />
    <glyph glyph-name="afii10074" unicode="&#xe8;" horiz-adv-x="2433" 
d="M328 2101h258v-1540l-4 -221h12l139 225l1086 1536h286v-2101h-258v1540l4 221h-12l-139 -221l-1086 -1540h-286v2101z" />
    <glyph glyph-name="afii10074" unicode="&#x438;" horiz-adv-x="2433" 
d="M328 2101h258v-1540l-4 -221h12l139 225l1086 1536h286v-2101h-258v1540l4 221h-12l-139 -221l-1086 -1540h-286v2101z" />
    <glyph glyph-name="afii10075" unicode="&#xe9;" horiz-adv-x="2433" 
d="M328 2101h258v-1540l-4 -221h12l139 225l1086 1536h286v-2101h-258v1540l4 221h-12l-139 -221l-1086 -1540h-286v2101zM618 2904l123 143q195 -233 476 -233q280 0 475 233l123 -143q-106 -144 -261.5 -231.5t-336.5 -87.5q-182 0 -337.5 87.5t-261.5 231.5z" />
    <glyph glyph-name="afii10075" unicode="&#x439;" horiz-adv-x="2433" 
d="M328 2101h258v-1540l-4 -221h12l139 225l1086 1536h286v-2101h-258v1540l4 221h-12l-139 -221l-1086 -1540h-286v2101zM618 2904l123 143q195 -233 476 -233q280 0 475 233l123 -143q-106 -144 -261.5 -231.5t-336.5 -87.5q-182 0 -337.5 87.5t-261.5 231.5z" />
    <glyph glyph-name="afii10076" unicode="&#xea;" horiz-adv-x="2023" 
d="M328 2101h258v-925h12l963 925h331l-1032 -979l1143 -1122h-365l-1040 1040h-12v-1040h-258v2101z" />
    <glyph glyph-name="afii10076" unicode="&#x43a;" horiz-adv-x="2023" 
d="M328 2101h258v-925h12l963 925h331l-1032 -979l1143 -1122h-365l-1040 1040h-12v-1040h-258v2101z" />
    <glyph glyph-name="afii10077" unicode="&#xeb;" horiz-adv-x="2212" 
d="M500 2101h1384v-2101h-258v1884h-868v-389q0 -73 2 -223t2 -223q0 -339 -34 -567.5t-144 -371.5t-322 -143q-156 0 -233 25v209q65 -21 135 -21q228 0 282 262q54 236 54 1082v577z" />
    <glyph glyph-name="afii10077" unicode="&#x43b;" horiz-adv-x="2212" 
d="M500 2101h1384v-2101h-258v1884h-868v-389q0 -73 2 -223t2 -223q0 -339 -34 -567.5t-144 -371.5t-322 -143q-156 0 -233 25v209q65 -21 135 -21q228 0 282 262q54 236 54 1082v577z" />
    <glyph glyph-name="afii10078" unicode="&#xec;" horiz-adv-x="2912" 
d="M692 2101l672 -1552l82 -283h16l119 283l680 1552h324v-2101h-258v1495l20 340h-12l-115 -340l-655 -1495h-222l-638 1495l-127 340h-13l21 -340v-1495h-258v2101h364z" />
    <glyph glyph-name="afii10078" unicode="&#x43c;" horiz-adv-x="2912" 
d="M692 2101l672 -1552l82 -283h16l119 283l680 1552h324v-2101h-258v1495l20 340h-12l-115 -340l-655 -1495h-222l-638 1495l-127 340h-13l21 -340v-1495h-258v2101h364z" />
    <glyph glyph-name="afii10079" unicode="&#xed;" horiz-adv-x="2310" 
d="M328 2101h258v-901h1138v901h258v-2101h-258v983h-1138v-983h-258v2101z" />
    <glyph glyph-name="afii10079" unicode="&#x43d;" horiz-adv-x="2310" 
d="M328 2101h258v-901h1138v901h258v-2101h-258v983h-1138v-983h-258v2101z" />
    <glyph glyph-name="afii10080" unicode="&#xee;" horiz-adv-x="2310" 
d="M184 1049q0 225 62 421.5t186.5 347t307.5 233.5t415 83q307 0 527.5 -144.5t332 -392t111.5 -548.5q0 -300 -112.5 -546.5t-332 -391t-526.5 -144.5t-526.5 144.5t-332 391t-112.5 546.5zM455 1049q0 -143 38.5 -294t121.5 -280.5t218 -210t322 -80.5t322.5 80t219 211
t121 281t37.5 293q0 201 -70 399t-227.5 333.5t-402.5 135.5t-402.5 -135.5t-227.5 -333.5t-70 -399z" />
    <glyph glyph-name="afii10080" unicode="&#x43e;" horiz-adv-x="2310" 
d="M184 1049q0 225 62 421.5t186.5 347t307.5 233.5t415 83q307 0 527.5 -144.5t332 -392t111.5 -548.5q0 -300 -112.5 -546.5t-332 -391t-526.5 -144.5t-526.5 144.5t-332 391t-112.5 546.5zM455 1049q0 -143 38.5 -294t121.5 -280.5t218 -210t322 -80.5t322.5 80t219 211
t121 281t37.5 293q0 201 -70 399t-227.5 333.5t-402.5 135.5t-402.5 -135.5t-227.5 -333.5t-70 -399z" />
    <glyph glyph-name="afii10081" unicode="&#xef;" horiz-adv-x="2269" 
d="M328 2101h1614v-2101h-259v1884h-1097v-1884h-258v2101z" />
    <glyph glyph-name="afii10081" unicode="&#x43f;" horiz-adv-x="2269" 
d="M328 2101h1614v-2101h-259v1884h-1097v-1884h-258v2101z" />
    <glyph glyph-name="afii10082" unicode="&#xf0;" 
d="M602 -897h-258v2593l-16 405h245v-434h13q174 467 651 467q304 0 507 -141.5t300.5 -386t97.5 -553.5q0 -294 -79.5 -505.5t-209.5 -338t-291 -184.5t-325 -58q-145 0 -267 55.5t-213 148.5t-151 206h-12l8 -201v-1073zM602 1053q0 -290 92.5 -486.5t237.5 -289.5
t305 -93t305 93t237.5 289.5t92.5 486.5q0 286 -93 481t-238.5 289t-303.5 94t-303.5 -94t-238.5 -289t-93 -481z" />
    <glyph glyph-name="afii10082" unicode="&#x440;" 
d="M602 -897h-258v2593l-16 405h245v-434h13q174 467 651 467q304 0 507 -141.5t300.5 -386t97.5 -553.5q0 -294 -79.5 -505.5t-209.5 -338t-291 -184.5t-325 -58q-145 0 -267 55.5t-213 148.5t-151 206h-12l8 -201v-1073zM602 1053q0 -290 92.5 -486.5t237.5 -289.5
t305 -93t305 93t237.5 289.5t92.5 486.5q0 286 -93 481t-238.5 289t-303.5 94t-303.5 -94t-238.5 -289t-93 -481z" />
    <glyph glyph-name="afii10083" unicode="&#xf1;" horiz-adv-x="1872" 
d="M1733 2052l-13 -229q-229 94 -561 94q-224 0 -383.5 -116t-240 -313.5t-80.5 -438.5q0 -365 151 -558t321 -250t281 -57q307 0 516 86l25 -221q-237 -82 -545 -82q-291 0 -525 133t-364.5 379t-130.5 570q0 336 128.5 582.5t346 374.5t476.5 128q318 0 598 -82z" />
    <glyph glyph-name="afii10083" unicode="&#x441;" horiz-adv-x="1872" 
d="M1733 2052l-13 -229q-229 94 -561 94q-224 0 -383.5 -116t-240 -313.5t-80.5 -438.5q0 -365 151 -558t321 -250t281 -57q307 0 516 86l25 -221q-237 -82 -545 -82q-291 0 -525 133t-364.5 379t-130.5 570q0 336 128.5 582.5t346 374.5t476.5 128q318 0 598 -82z" />
    <glyph glyph-name="afii10084" unicode="&#xf2;" horiz-adv-x="1651" 
d="M41 2101h1569v-217h-656v-1884h-258v1884h-655v217z" />
    <glyph glyph-name="afii10084" unicode="&#x442;" horiz-adv-x="1651" 
d="M41 2101h1569v-217h-656v-1884h-258v1884h-655v217z" />
    <glyph glyph-name="afii10085" unicode="&#xf3;" horiz-adv-x="2007" 
d="M250 -864l24 229q96 -29 213 -29q122 0 186 78.5t118 241.5l90 274l-758 2171h274l553 -1601l66 -209h4l65 205l533 1605h266l-897 -2576q-74 -213 -181.5 -317.5t-281.5 -104.5q-170 0 -274 33z" />
    <glyph glyph-name="afii10085" unicode="&#x443;" horiz-adv-x="2007" 
d="M250 -864l24 229q96 -29 213 -29q122 0 186 78.5t118 241.5l90 274l-758 2171h274l553 -1601l66 -209h4l65 205l533 1605h266l-897 -2576q-74 -213 -181.5 -317.5t-281.5 -104.5q-170 0 -274 33z" />
    <glyph glyph-name="afii10086" unicode="&#xf4;" horiz-adv-x="3125" 
d="M1692 2867l-4 -897l12 -4q238 184 475 184q211 0 387.5 -144t277.5 -396.5t101 -560.5q0 -310 -102 -561t-278.5 -394t-389.5 -143q-237 0 -471 180l-12 -4l4 -1024h-258l4 1024l-13 4q-233 -180 -471 -180q-213 0 -389.5 143t-278.5 394t-102 561q0 308 101 560.5
t277.5 396.5t387.5 144q239 0 475 -184l13 4l-4 897h258zM1692 1753v-1409q207 -172 409 -172q161 0 291.5 110.5t204.5 310t74 456.5q0 254 -73.5 456t-204 313t-292.5 111q-204 0 -409 -176zM1434 344v1409q-206 176 -410 176q-247 0 -408 -245t-161 -635
q0 -256 73.5 -456.5t203.5 -310.5t292 -110q202 0 410 172z" />
    <glyph glyph-name="afii10086" unicode="&#x444;" horiz-adv-x="3125" 
d="M1692 2867l-4 -897l12 -4q238 184 475 184q211 0 387.5 -144t277.5 -396.5t101 -560.5q0 -310 -102 -561t-278.5 -394t-389.5 -143q-237 0 -471 180l-12 -4l4 -1024h-258l4 1024l-13 4q-233 -180 -471 -180q-213 0 -389.5 143t-278.5 394t-102 561q0 308 101 560.5
t277.5 396.5t387.5 144q239 0 475 -184l13 4l-4 897h258zM1692 1753v-1409q207 -172 409 -172q161 0 291.5 110.5t204.5 310t74 456.5q0 254 -73.5 456t-204 313t-292.5 111q-204 0 -409 -176zM1434 344v1409q-206 176 -410 176q-247 0 -408 -245t-161 -635
q0 -256 73.5 -456.5t203.5 -310.5t292 -110q202 0 410 172z" />
    <glyph glyph-name="afii10087" unicode="&#xf5;" horiz-adv-x="2040" 
d="M172 2101h328l397 -610l115 -197h4l114 201l369 606h303l-643 -979l758 -1122h-336l-467 758l-102 188h-4l-107 -188l-479 -758h-299l729 1122z" />
    <glyph glyph-name="afii10087" unicode="&#x445;" horiz-adv-x="2040" 
d="M172 2101h328l397 -610l115 -197h4l114 201l369 606h303l-643 -979l758 -1122h-336l-467 758l-102 188h-4l-107 -188l-479 -758h-299l729 1122z" />
    <glyph glyph-name="afii10088" unicode="&#xf6;" horiz-adv-x="2359" 
d="M328 2101h258v-1884h1089v1884h258v-1884h324v-782h-258v565h-1671v2101z" />
    <glyph glyph-name="afii10088" unicode="&#x446;" horiz-adv-x="2359" 
d="M328 2101h258v-1884h1089v1884h258v-1884h324v-782h-258v565h-1671v2101z" />
    <glyph glyph-name="afii10089" unicode="&#xf7;" horiz-adv-x="2056" 
d="M422 2101v-631q0 -93 27.5 -174t144.5 -148t360 -67q194 0 516 62v958h259v-2101h-259v926q-313 -58 -561 -58q-745 0 -745 562v671h258z" />
    <glyph glyph-name="afii10089" unicode="&#x447;" horiz-adv-x="2056" 
d="M422 2101v-631q0 -93 27.5 -174t144.5 -148t360 -67q194 0 516 62v958h259v-2101h-259v926q-313 -58 -561 -58q-745 0 -745 562v671h258z" />
    <glyph glyph-name="afii10090" unicode="&#xf8;" horiz-adv-x="3248" 
d="M328 2101h258v-1884h909v1884h258v-1884h909v1884h258v-2101h-2592v2101z" />
    <glyph glyph-name="afii10090" unicode="&#x448;" horiz-adv-x="3248" 
d="M328 2101h258v-1884h909v1884h258v-1884h909v1884h258v-2101h-2592v2101z" />
    <glyph glyph-name="afii10091" unicode="&#xf9;" horiz-adv-x="3322" 
d="M2961 -586v586h-2633v2101h258v-1884h909v1884h258v-1884h909v1884h258v-1884h299v-803h-258z" />
    <glyph glyph-name="afii10091" unicode="&#x449;" horiz-adv-x="3322" 
d="M2961 -586v586h-2633v2101h258v-1884h909v1884h258v-1884h909v1884h258v-1884h299v-803h-258z" />
    <glyph glyph-name="afii10092" unicode="&#xfa;" horiz-adv-x="2404" 
d="M82 1884v217h836v-827h622q189 0 345 -74.5t245.5 -218t89.5 -342.5t-86 -343t-241.5 -220t-352.5 -76h-881v1884h-577zM918 1057v-840h544q191 0 339.5 100t148.5 322q0 156 -105 287t-383 131h-544z" />
    <glyph glyph-name="afii10092" unicode="&#x44a;" horiz-adv-x="2404" 
d="M82 1884v217h836v-827h622q189 0 345 -74.5t245.5 -218t89.5 -342.5t-86 -343t-241.5 -220t-352.5 -76h-881v1884h-577zM918 1057v-840h544q191 0 339.5 100t148.5 322q0 156 -105 287t-383 131h-544z" />
    <glyph glyph-name="afii10093" unicode="&#xfb;" horiz-adv-x="2863" 
d="M328 2101h258v-827h544q226 0 396 -66.5t266 -209.5t96 -359q0 -327 -205.5 -483t-552.5 -156h-802v2101zM586 1057v-840h524q508 0 508 422q0 418 -508 418h-524zM2277 2101h258v-2101h-258v2101z" />
    <glyph glyph-name="afii10093" unicode="&#x44b;" horiz-adv-x="2863" 
d="M328 2101h258v-827h544q226 0 396 -66.5t266 -209.5t96 -359q0 -327 -205.5 -483t-552.5 -156h-802v2101zM586 1057v-840h524q508 0 508 422q0 418 -508 418h-524zM2277 2101h258v-2101h-258v2101z" />
    <glyph glyph-name="afii10094" unicode="&#xfc;" horiz-adv-x="2216" 
d="M328 2101h258v-827h544q226 0 396 -66.5t266 -209.5t96 -359q0 -327 -205.5 -483t-552.5 -156h-802v2101zM586 1057v-840h524q508 0 508 422q0 418 -508 418h-524z" />
    <glyph glyph-name="afii10094" unicode="&#x44c;" horiz-adv-x="2216" 
d="M328 2101h258v-827h544q226 0 396 -66.5t266 -209.5t96 -359q0 -327 -205.5 -483t-552.5 -156h-802v2101zM586 1057v-840h524q508 0 508 422q0 418 -508 418h-524z" />
    <glyph glyph-name="afii10095" unicode="&#xfd;" horiz-adv-x="1880" 
d="M430 979v217h995q-11 213 -107.5 375.5t-269.5 254t-401 91.5q-259 0 -508 -119l-12 230q242 106 520 106q333 0 570 -133t358 -377t121 -567q0 -244 -75.5 -446.5t-217 -345.5t-343 -220.5t-450.5 -77.5q-221 0 -487 99l8 229q245 -111 504 -111q239 0 418 104.5
t274.5 286t97.5 404.5h-995z" />
    <glyph glyph-name="afii10095" unicode="&#x44d;" horiz-adv-x="1880" 
d="M430 979v217h995q-11 213 -107.5 375.5t-269.5 254t-401 91.5q-259 0 -508 -119l-12 230q242 106 520 106q333 0 570 -133t358 -377t121 -567q0 -244 -75.5 -446.5t-217 -345.5t-343 -220.5t-450.5 -77.5q-221 0 -487 99l8 229q245 -111 504 -111q239 0 418 104.5
t274.5 286t97.5 404.5h-995z" />
    <glyph glyph-name="afii10096" unicode="&#xfe;" horiz-adv-x="3043" 
d="M586 1184h332q18 242 127 458t323 354t520 138q307 0 527.5 -144.5t332 -392t111.5 -548.5q0 -300 -112.5 -546.5t-332 -391t-526.5 -144.5q-326 0 -540.5 149.5t-316 377t-113.5 473.5h-332v-967h-258v2101h258v-917zM1188 1049q0 -143 38.5 -294t121.5 -280.5t218 -210
t322 -80.5q188 0 324 80.5t219.5 212.5t120.5 280.5t37 291.5q0 201 -70 399t-228 333.5t-403 135.5t-402.5 -135.5t-227.5 -333.5t-70 -399z" />
    <glyph glyph-name="afii10096" unicode="&#x44e;" horiz-adv-x="3043" 
d="M586 1184h332q18 242 127 458t323 354t520 138q307 0 527.5 -144.5t332 -392t111.5 -548.5q0 -300 -112.5 -546.5t-332 -391t-526.5 -144.5q-326 0 -540.5 149.5t-316 377t-113.5 473.5h-332v-967h-258v2101h258v-917zM1188 1049q0 -143 38.5 -294t121.5 -280.5t218 -210
t322 -80.5q188 0 324 80.5t219.5 212.5t120.5 280.5t37 291.5q0 201 -70 399t-228 333.5t-403 135.5t-402.5 -135.5t-227.5 -333.5t-70 -399z" />
    <glyph glyph-name="afii10097" unicode="&#xff;" horiz-adv-x="2040" 
d="M1712 2101v-2101h-258v868h-512l-446 -868h-312l492 922q-164 44 -297 176.5t-133 388.5q0 147 67.5 287.5t214.5 233.5t369 93h815zM1454 1884h-500q-227 0 -332.5 -123.5t-105.5 -273.5q0 -153 106 -277.5t332 -124.5h500v799z" />
    <glyph glyph-name="afii10097" unicode="&#x44f;" horiz-adv-x="2040" 
d="M1712 2101v-2101h-258v868h-512l-446 -868h-312l492 922q-164 44 -297 176.5t-133 388.5q0 147 67.5 287.5t214.5 233.5t369 93h815zM1454 1884h-500q-227 0 -332.5 -123.5t-105.5 -273.5q0 -153 106 -277.5t332 -124.5h500v799z" />
    <glyph glyph-name="nonbreakingspace" unicode="&#xa0;" horiz-adv-x="1405" 
 />
  </font>
</defs>
</svg>
